<svg width="200" height="169" viewBox="0 0 200 169" fill="none" xmlns="http://www.w3.org/2000/svg">
<path fill-rule="evenodd" clip-rule="evenodd" d="M135.4 49.9052C138.391 52.3252 143.65 51.3267 147.469 47.5085C151.287 43.6903 152.285 38.4303 149.865 35.4405L149.886 35.4194L149.483 35.0165L147.469 33.0015V33.0016C144.352 29.8859 138.579 30.6076 134.573 34.6135C130.567 38.6194 129.846 44.3928 132.962 47.5085C132.969 47.5155 132.975 47.5224 132.982 47.5294L134.972 49.519C134.973 49.5204 134.975 49.5219 134.976 49.5233C134.978 49.5248 134.98 49.5262 134.981 49.5276L135.379 49.9263L135.4 49.9052Z" fill="#DDDDDD"/>
<path d="M147.468 33.0016L147.887 32.5816C147.655 32.3496 147.279 32.3496 147.047 32.5816L147.468 33.0016ZM147.468 33.0017L147.047 33.4217C147.279 33.6537 147.655 33.6537 147.887 33.4217L147.468 33.0017ZM132.981 47.5294L133.402 47.1093L133.399 47.1075L132.981 47.5294ZM147.45 47.4914C145.526 49.416 143.237 50.5771 141.112 50.9196C138.987 51.2625 137.077 50.7841 135.798 49.5063L134.959 50.3463C136.574 51.9617 138.906 52.479 141.302 52.0925C143.699 51.7059 146.209 50.4129 148.291 48.3315L147.45 47.4914ZM149.465 35.8395C150.743 37.1173 151.222 39.0284 150.879 41.1536C150.536 43.2779 149.375 45.567 147.45 47.4914L148.291 48.3315C150.372 46.2501 151.664 43.7397 152.052 41.3428C152.438 38.9468 151.921 36.6148 150.306 34.9995L149.465 35.8395ZM149.465 35.8394V35.8395L150.306 34.9995L149.465 35.8394ZM147.047 33.4216L149.465 35.8394L150.306 34.9995L147.887 32.5816L147.047 33.4216ZM147.887 33.4217V33.4216L147.047 32.5816V32.5817L147.887 33.4217ZM134.993 35.0336C138.871 31.1553 144.256 30.6301 147.047 33.4217L147.887 32.5817C144.448 29.1418 138.286 30.0599 134.152 34.1936L134.993 35.0336ZM133.381 47.0886C130.589 44.2968 131.114 38.912 134.993 35.0336L134.152 34.1936C130.019 38.3271 129.1 44.4888 132.54 47.9286L133.381 47.0886ZM133.399 47.1075C133.393 47.1011 133.387 47.0948 133.381 47.0886L132.54 47.9286C132.548 47.9362 132.556 47.9438 132.563 47.9513L133.399 47.1075ZM135.795 49.502L133.402 47.1094L132.561 47.9494L134.954 50.3421L135.795 49.502ZM135.798 49.5063C135.798 49.5058 135.797 49.5052 135.796 49.5045C135.796 49.5038 135.795 49.5029 135.795 49.502L134.954 50.3421C134.955 50.3425 134.955 50.3432 134.956 50.3439C134.957 50.3446 134.958 50.3454 134.959 50.3463L135.798 49.5063Z" fill="#4C4C4C"/>
<path d="M132.961 47.5085C136.077 50.6243 141.85 49.9026 145.856 45.8966C149.862 41.8907 150.583 36.1174 147.468 33.0017C144.352 29.8859 138.579 30.6076 134.573 34.6135C130.567 38.6195 129.845 44.3928 132.961 47.5085Z" fill="#EDEDED"/>
<path d="M132.961 47.5085C136.077 50.6243 141.85 49.9026 145.856 45.8966C149.862 41.8907 150.583 36.1174 147.468 33.0017C144.352 29.8859 138.579 30.6076 134.573 34.6135C130.567 38.6195 129.845 44.3928 132.961 47.5085Z" stroke="#4C4C4C" stroke-width="1.35"/>
<path opacity="0.15" d="M134.573 45.8966C136.996 48.3199 141.486 47.7586 144.602 44.6429C147.718 41.5271 148.279 37.0368 145.856 34.6135C143.432 32.1901 138.942 32.7514 135.826 35.8671C132.711 38.9829 132.149 43.4732 134.573 45.8966Z" stroke="#4C4C4C" stroke-width="0.8"/>
<g opacity="0.4">
<path d="M144.268 39.7484C144.547 37.5103 142.959 35.9227 140.721 36.2025C138.483 36.4823 136.442 38.5234 136.162 40.7615C135.882 42.9997 137.47 44.5872 139.708 44.3075" stroke="#4C4C4C" stroke-width="1.5" stroke-linecap="round"/>
<path d="M144.445 36.0238L135.983 44.4861" stroke="#4C4C4C" stroke-width="1.35" stroke-linecap="round"/>
</g>
<path fill-rule="evenodd" clip-rule="evenodd" d="M145.716 123.849L148.558 126.69L148.533 126.716C151.376 130.229 150.203 136.41 145.717 140.897C141.23 145.383 135.049 146.557 131.536 143.713L131.511 143.737L131.063 143.289C131.055 143.282 131.046 143.273 131.037 143.264C131.029 143.255 131.02 143.247 131.012 143.238L128.694 140.921C128.686 140.913 128.678 140.905 128.67 140.897C125.008 137.235 125.856 130.451 130.564 125.743C135.271 121.036 142.056 120.188 145.716 123.849Z" fill="#DDDDDD"/>
<path d="M148.558 126.69L148.091 127.157L148.558 126.69ZM145.716 123.849L146.183 123.382C145.925 123.124 145.507 123.124 145.25 123.382L145.716 123.849ZM145.716 123.849L145.25 124.316C145.507 124.574 145.925 124.574 146.183 124.316L145.716 123.849ZM128.693 140.92L129.161 140.454L129.158 140.451L128.693 140.92ZM131.501 143.729L131.969 143.262L131.968 143.261L131.501 143.729ZM145.723 140.903C143.457 143.17 140.76 144.538 138.255 144.942C135.749 145.347 133.489 144.783 131.977 143.271L131.044 144.205C132.931 146.091 135.659 146.699 138.465 146.245C141.273 145.793 144.216 144.278 146.657 141.837L145.723 140.903ZM148.091 127.157C149.604 128.669 150.167 130.929 149.762 133.434C149.358 135.94 147.99 138.637 145.723 140.903L146.657 141.837C149.098 139.395 150.613 136.453 151.066 133.645C151.519 130.838 150.912 128.111 149.025 126.224L148.091 127.157ZM148.091 127.157L149.025 126.224H149.024L148.091 127.157ZM145.25 124.316L148.091 127.157L149.024 126.224L146.183 123.382L145.25 124.316ZM146.183 124.316L145.25 123.382L146.183 124.316ZM131.03 126.21C135.596 121.644 141.949 121.015 145.25 124.316L146.183 123.382C142.162 119.361 134.946 120.427 130.097 125.277L131.03 126.21ZM129.136 140.429C125.835 137.129 126.464 130.776 131.03 126.21L130.097 125.277C125.247 130.126 124.182 137.342 128.202 141.363L129.136 140.429ZM129.158 140.451C129.151 140.444 129.143 140.437 129.136 140.429L128.202 141.363C128.211 141.372 128.22 141.381 128.229 141.39L129.158 140.451ZM131.968 143.261L129.161 140.454L128.227 141.387L131.035 144.195L131.968 143.261ZM131.977 143.271C131.975 143.268 131.972 143.266 131.969 143.262L131.034 144.194C131.037 144.198 131.04 144.201 131.044 144.205L131.977 143.271Z" fill="#4C4C4C"/>
<path d="M128.669 140.897C132.331 144.558 139.115 143.71 143.822 139.003C148.53 134.295 149.378 127.511 145.716 123.85C142.055 120.188 135.271 121.036 130.563 125.744C125.856 130.451 125.008 137.235 128.669 140.897Z" fill="#EDEDED"/>
<path d="M128.669 140.897C132.331 144.558 139.115 143.71 143.822 139.003C148.53 134.295 149.378 127.511 145.716 123.85C142.055 120.188 135.271 121.036 130.563 125.744C125.856 130.451 125.008 137.235 128.669 140.897Z" stroke="#4C4C4C" stroke-width="1.5"/>
<path opacity="0.15" d="M130.563 139.003C133.411 141.85 138.688 141.191 142.349 137.529C146.01 133.868 146.67 128.591 143.822 125.744C140.975 122.896 135.698 123.556 132.037 127.217C128.375 130.878 127.716 136.155 130.563 139.003Z" stroke="#4C4C4C" stroke-width="0.940088"/>
<g opacity="0.4">
<path d="M141.955 131.777C142.284 129.148 140.419 127.282 137.788 127.611C135.158 127.94 132.76 130.338 132.431 132.968C132.102 135.598 133.967 137.464 136.598 137.135" stroke="#4C4C4C" stroke-width="1.76267" stroke-linecap="round"/>
<path d="M142.166 127.401L132.221 137.345" stroke="#4C4C4C" stroke-width="1.5864" stroke-linecap="round"/>
</g>
<path fill-rule="evenodd" clip-rule="evenodd" d="M66.516 88.6494L69.3576 91.49L69.3329 91.5155C72.1762 95.0285 71.0032 101.21 66.5169 105.697C62.0298 110.183 55.8487 111.357 52.3357 108.513L52.3111 108.537L51.8632 108.089C51.8544 108.082 51.8456 108.073 51.8368 108.064C51.8288 108.055 51.82 108.047 51.8112 108.038L49.4933 105.72C49.4854 105.713 49.4775 105.705 49.4696 105.697C45.808 102.035 46.656 95.2511 51.3633 90.5431C56.0704 85.836 62.8552 84.9879 66.516 88.6494Z" fill="#DDDDDD"/>
<path d="M66.516 88.6494L66.9833 88.1821C66.7255 87.9243 66.3075 87.9243 66.0496 88.1821L66.516 88.6494ZM66.516 88.6494L66.0496 89.1158C66.3075 89.3737 66.7255 89.3737 66.9833 89.1158L66.516 88.6494ZM49.4933 105.721L49.9606 105.254L49.958 105.251L49.4933 105.721ZM52.3014 108.529L52.7687 108.062L52.7678 108.061L52.3014 108.529ZM66.5231 105.703C64.2571 107.97 61.5599 109.338 59.0545 109.742C56.5492 110.147 54.2893 109.583 52.7775 108.071L51.8438 109.005C53.7314 110.891 56.4585 111.499 59.2648 111.045C62.0729 110.593 65.0156 109.078 67.4568 106.637L66.5231 105.703ZM68.8912 91.9573C70.4039 93.4692 70.9671 95.729 70.5623 98.2344C70.1584 100.74 68.79 103.437 66.5231 105.703L67.4568 106.637C69.8979 104.195 71.4132 101.253 71.8656 98.4447C72.3188 95.6384 71.7116 92.9113 69.8248 91.0237L68.8912 91.9573ZM68.8912 91.9573L69.8248 91.0237H69.824L68.8912 91.9573ZM66.0496 89.1158L68.8912 91.9573L69.824 91.0237L66.9833 88.1821L66.0496 89.1158ZM66.9833 89.1158L66.0496 88.1821L66.9833 89.1158ZM51.8297 91.0105C56.396 86.4441 62.7488 85.8149 66.0496 89.1158L66.9833 88.1821C62.9617 84.1611 55.7457 85.2271 50.8969 90.0768L51.8297 91.0105ZM49.936 105.229C46.6347 101.929 47.2645 95.5759 51.8297 91.0105L50.8969 90.0768C46.0475 94.9256 44.9812 102.142 49.0023 106.163L49.936 105.229ZM49.958 105.251C49.9509 105.244 49.943 105.237 49.936 105.229L49.0023 106.163C49.0111 106.172 49.0199 106.181 49.0287 106.19L49.958 105.251ZM52.7678 108.061L49.9606 105.254L49.0269 106.187L51.835 108.995L52.7678 108.061ZM52.7775 108.071C52.7748 108.068 52.7722 108.066 52.7687 108.062L51.8341 108.994C51.8368 108.998 51.8403 109.001 51.8438 109.005L52.7775 108.071Z" fill="#4C4C4C"/>
<path d="M49.47 105.697C53.1313 109.358 59.9155 108.51 64.623 103.802C69.3304 99.095 70.1785 92.3108 66.5171 88.6495C62.8558 84.9881 56.0716 85.8362 51.3641 90.5436C46.6567 95.251 45.8087 102.035 49.47 105.697Z" fill="#EDEDED"/>
<path d="M49.47 105.697C53.1313 109.358 59.9155 108.51 64.623 103.802C69.3304 99.095 70.1785 92.3108 66.5171 88.6495C62.8558 84.9881 56.0716 85.8362 51.3641 90.5436C46.6567 95.251 45.8087 102.035 49.47 105.697Z" stroke="#4C4C4C" stroke-width="1.5"/>
<path opacity="0.15" d="M51.3642 103.803C54.2119 106.65 59.4885 105.991 63.1498 102.329C66.8112 98.668 67.4707 93.3914 64.623 90.5437C61.7753 87.696 56.4987 88.3555 52.8374 92.0169C49.176 95.6782 48.5165 100.955 51.3642 103.803Z" stroke="#4C4C4C" stroke-width="0.940088"/>
<g opacity="0.4">
<path d="M62.7549 96.5773C63.084 93.9479 61.2184 92.0823 58.5881 92.4105C55.9578 92.7396 53.5598 95.1376 53.2307 97.7679C52.9015 100.398 54.7671 102.264 57.3975 101.935" stroke="#4C4C4C" stroke-width="1.76267" stroke-linecap="round"/>
<path d="M62.9652 92.201L53.0204 102.145" stroke="#4C4C4C" stroke-width="1.5864" stroke-linecap="round"/>
</g>
<path fill-rule="evenodd" clip-rule="evenodd" d="M18.5634 117.1C15.5736 114.68 10.3138 115.678 6.49554 119.496C2.67731 123.314 1.67886 128.574 4.09895 131.564L4.07782 131.585L4.48069 131.988L6.49563 134.003C9.61144 137.119 15.3847 136.397 19.3906 132.392C23.3965 128.386 24.1182 122.612 21.0025 119.496C20.9956 119.489 20.9885 119.483 20.9816 119.476L18.9918 117.486C18.9904 117.484 18.989 117.483 18.9876 117.482C18.9862 117.48 18.9847 117.479 18.9833 117.477L18.5846 117.079L18.5634 117.1Z" fill="#DDDDDD"/>
<path d="M4.07828 131.586L3.65826 132.005L4.07828 131.586ZM6.49608 134.003L6.07606 134.424C6.18747 134.534 6.33856 134.597 6.49608 134.597C6.6536 134.597 6.8047 134.534 6.9161 134.424L6.49608 134.003ZM6.49608 134.003L6.9161 133.583C6.68414 133.352 6.30803 133.352 6.07606 133.583L6.49608 134.003ZM20.982 119.476L20.562 119.896L20.5639 119.897L20.982 119.476ZM6.51306 119.514C8.43762 117.589 10.7267 116.428 12.8509 116.085C14.9762 115.743 16.8873 116.221 18.1651 117.498L19.0051 116.659C17.3898 115.043 15.0578 114.526 12.6618 114.912C10.2649 115.299 7.75448 116.592 5.67302 118.673L6.51306 119.514ZM4.49822 131.166C3.22046 129.888 2.74209 127.977 3.08494 125.851C3.42752 123.727 4.58859 121.438 6.51306 119.514L5.67302 118.673C3.59164 120.754 2.29866 123.265 1.91207 125.662C1.52558 128.058 2.04284 130.39 3.65826 132.005L4.49822 131.166ZM4.49831 131.166H4.49822L3.65826 132.005L4.49831 131.166ZM6.9161 133.583L4.49831 131.166L3.65826 132.005L6.07606 134.424L6.9161 133.583ZM6.07606 133.583L6.9161 134.424L6.07606 133.583ZM18.9711 131.971C15.0927 135.85 9.70782 136.374 6.9161 133.583L6.07606 134.424C9.51598 137.863 15.6776 136.945 19.8111 132.811L18.9711 131.971ZM20.5829 119.917C23.3746 122.708 22.8494 128.093 18.9711 131.971L19.8111 132.811C23.9447 128.678 24.8628 122.516 21.423 119.076L20.5829 119.917ZM20.5639 119.897C20.5703 119.904 20.5766 119.91 20.5829 119.917L21.423 119.076C21.4153 119.068 21.4077 119.061 21.4001 119.053L20.5639 119.897ZM18.1694 117.503L20.562 119.896L21.402 119.055L19.0094 116.662L18.1694 117.503ZM18.1651 117.498C18.1656 117.499 18.1661 117.499 18.1669 117.5C18.1675 117.501 18.1684 117.502 18.1694 117.503L19.0094 116.662C19.0089 116.662 19.0084 116.662 19.0076 116.661C19.007 116.661 19.0061 116.66 19.0051 116.659L18.1651 117.498Z" fill="#4C4C4C"/>
<path d="M21.0029 119.496C17.8872 116.381 12.1139 117.102 8.10792 121.108C4.10196 125.114 3.3803 130.888 6.49605 134.003C9.61179 137.119 15.3851 136.397 19.391 132.391C23.397 128.386 24.1186 122.612 21.0029 119.496Z" fill="#EDEDED"/>
<path d="M21.0029 119.496C17.8872 116.381 12.1139 117.102 8.10792 121.108C4.10196 125.114 3.3803 130.888 6.49605 134.003C9.61179 137.119 15.3851 136.397 19.391 132.391C23.397 128.386 24.1186 122.612 21.0029 119.496Z" stroke="#4C4C4C" stroke-width="1.35"/>
<path opacity="0.15" d="M19.3904 121.108C16.967 118.685 12.4767 119.246 9.36092 122.362C6.24518 125.478 5.68389 129.968 8.10724 132.391C10.5306 134.815 15.0209 134.253 18.1367 131.138C21.2524 128.022 21.8137 123.532 19.3904 121.108Z" stroke="#4C4C4C" stroke-width="0.8"/>
<g opacity="0.4">
<path d="M9.69703 127.257C9.41728 129.495 11.0048 131.082 13.243 130.802C15.4811 130.522 17.5223 128.482 17.802 126.243C18.0818 124.005 16.4942 122.418 14.256 122.697" stroke="#4C4C4C" stroke-width="1.5" stroke-linecap="round"/>
<path d="M9.51855 130.981L17.9809 122.519" stroke="#4C4C4C" stroke-width="1.35" stroke-linecap="round"/>
</g>
<path fill-rule="evenodd" clip-rule="evenodd" d="M156.724 84.5396C153.734 82.1197 148.474 83.1182 144.656 86.936C140.837 90.7544 139.839 96.0141 142.259 99.0044L142.238 99.0255L142.641 99.4285L144.656 101.443H144.656C147.772 104.559 153.545 103.837 157.551 99.8316C161.557 95.8258 162.278 90.0521 159.163 86.936C159.156 86.929 159.149 86.9228 159.142 86.9158L157.152 84.9258C157.151 84.9244 157.15 84.923 157.148 84.9215C157.146 84.9201 157.145 84.9186 157.144 84.9172L156.745 84.5185L156.724 84.5396Z" fill="#DDDDDD"/>
<path d="M144.655 101.443L144.235 101.863C144.468 102.095 144.843 102.095 145.076 101.863L144.655 101.443ZM144.656 101.443L145.076 101.023C144.843 100.792 144.468 100.792 144.235 101.023L144.656 101.443ZM159.142 86.9157L158.721 87.3355L158.724 87.3372L159.142 86.9157ZM144.673 86.9536C146.597 85.029 148.886 83.8678 151.011 83.5252C153.136 83.1824 155.047 83.6607 156.325 84.9385L157.164 84.0985C155.55 82.4831 153.218 81.9659 150.821 82.3523C148.424 82.7389 145.914 84.0319 143.832 86.1132L144.673 86.9536ZM142.658 98.6056C141.38 97.3279 140.902 95.4165 141.244 93.2913C141.587 91.167 142.748 88.8781 144.673 86.9536L143.832 86.1132C141.751 88.1944 140.458 90.705 140.071 93.1021C139.685 95.4984 140.202 97.8304 141.818 99.4452L142.658 98.6056ZM142.658 98.6056L141.818 99.4452L142.658 98.6056ZM145.076 101.023L142.658 98.6056L141.818 99.4452L144.235 101.863L145.076 101.023ZM144.235 101.023L145.076 101.863L144.235 101.023ZM157.131 99.4109C153.252 103.29 147.867 103.814 145.076 101.023L144.235 101.863C147.675 105.303 153.837 104.385 157.97 100.251L157.131 99.4109ZM158.742 87.3566C161.534 90.148 161.009 95.5327 157.131 99.4109L157.97 100.251C162.104 96.1179 163.023 89.9561 159.583 86.5162L158.742 87.3566ZM158.724 87.3372C158.73 87.3434 158.736 87.3496 158.742 87.3566L159.583 86.5162C159.575 86.5083 159.568 86.5012 159.56 86.4933L158.724 87.3372ZM156.329 84.9428L158.721 87.3355L159.561 86.4951L157.169 84.1027L156.329 84.9428ZM156.325 84.9385C156.325 84.9391 156.326 84.9396 156.327 84.9403C156.327 84.941 156.328 84.9419 156.329 84.9428L157.169 84.1027C157.169 84.1023 157.168 84.1018 157.167 84.101C157.166 84.1003 157.165 84.0994 157.164 84.0985L156.325 84.9385Z" fill="#4C4C4C"/>
<path d="M159.163 86.9364C156.047 83.8207 150.274 84.5423 146.268 88.5483C142.262 92.5543 141.541 98.3275 144.656 101.443C147.772 104.559 153.545 103.837 157.551 99.8314C161.557 95.8255 162.279 90.0522 159.163 86.9364Z" fill="#EDEDED"/>
<path d="M159.163 86.9364C156.047 83.8207 150.274 84.5423 146.268 88.5483C142.262 92.5543 141.541 98.3275 144.656 101.443C147.772 104.559 153.545 103.837 157.551 99.8314C161.557 95.8255 162.279 90.0522 159.163 86.9364Z" stroke="#4C4C4C" stroke-width="1.35"/>
<path opacity="0.15" d="M157.551 88.5483C155.128 86.1249 150.638 86.6862 147.522 89.8019C144.406 92.9177 143.845 97.408 146.268 99.8314C148.692 102.255 153.182 101.693 156.298 98.5777C159.414 95.4619 159.975 90.9716 157.551 88.5483Z" stroke="#4C4C4C" stroke-width="0.8"/>
<g opacity="0.4">
<path d="M147.857 94.6967C147.577 96.9346 149.165 98.5221 151.403 98.2423C153.641 97.9624 155.682 95.9217 155.962 93.683C156.242 91.4451 154.654 89.8576 152.416 90.1375" stroke="#4C4C4C" stroke-width="1.5" stroke-linecap="round"/>
<path d="M147.679 98.4209L156.141 89.9589" stroke="#4C4C4C" stroke-width="1.35" stroke-linecap="round"/>
</g>
<path fill-rule="evenodd" clip-rule="evenodd" d="M76.8745 120.143C76.8815 120.136 76.8886 120.129 76.8956 120.122C80.0117 117.006 85.7845 117.727 89.7912 121.734C93.7969 125.74 94.5185 131.512 91.4024 134.629L91.3884 134.643L88.9851 137.046L88.964 137.025C85.9737 139.445 80.714 138.447 76.8956 134.629C73.0773 130.81 72.0794 125.55 74.4994 122.56L74.4783 122.539L74.8576 122.16C74.8655 122.152 74.8734 122.144 74.8813 122.136C74.8892 122.129 74.8963 122.121 74.9042 122.113L76.8745 120.143Z" fill="#DDDDDD"/>
<path d="M76.8745 120.143L77.2952 120.563L77.2969 120.561L76.8745 120.143ZM91.4024 134.629L91.8222 135.049L91.8231 135.048L91.4024 134.629ZM91.3884 134.643L90.9695 134.222H90.9686L91.3884 134.643ZM88.9851 137.046L89.4004 137.471L89.4048 137.467L88.9851 137.046ZM88.9851 137.046L88.5697 136.622L88.5653 136.626L88.9851 137.046ZM74.502 122.516L74.9192 122.939L74.9218 122.936L74.502 122.516ZM76.4759 119.702C76.468 119.709 76.46 119.717 76.453 119.725L77.2969 120.561C77.3031 120.555 77.3092 120.548 77.3163 120.541L76.4759 119.702ZM90.2109 121.313C86.0776 117.18 79.9158 116.262 76.4759 119.702L77.3163 120.541C80.1076 117.75 85.4924 118.275 89.3705 122.154L90.2109 121.313ZM91.8231 135.048C95.263 131.608 94.3443 125.447 90.2109 121.313L89.3705 122.154C93.2496 126.032 93.774 131.417 90.9827 134.209L91.8231 135.048ZM91.8081 135.063L91.8222 135.049L90.9836 134.208L90.9695 134.222L91.8081 135.063ZM89.4048 137.467L91.809 135.062L90.9686 134.222L88.5653 136.626L89.4048 137.467ZM89.4004 137.471L88.5697 136.622L89.4004 137.471ZM76.0728 135.451C78.154 137.533 80.6647 138.826 83.0618 139.212C85.458 139.599 87.7892 139.081 89.4048 137.467L88.5653 136.626C87.2867 137.904 85.3762 138.383 83.251 138.039C81.1267 137.697 78.8378 136.535 76.9132 134.612L76.0728 135.451ZM74.0576 122.119C72.4428 123.735 71.9254 126.067 72.3117 128.462C72.6989 130.86 73.9916 133.37 76.0728 135.451L76.9132 134.612C74.9887 132.687 73.8271 130.397 73.4848 128.273C73.1416 126.148 73.6203 124.237 74.898 122.96L74.0576 122.119ZM74.084 122.094C74.0752 122.102 74.0664 122.111 74.0576 122.119L74.898 122.96C74.9051 122.953 74.9121 122.946 74.9192 122.939L74.084 122.094ZM74.9218 122.936L77.2952 120.563L76.4548 119.723L74.0814 122.096L74.9218 122.936Z" fill="#4C4C4C"/>
<path d="M76.8965 120.121C73.7808 123.237 74.5024 129.01 78.5084 133.016C82.5143 137.022 88.2876 137.744 91.4034 134.628C94.5191 131.512 93.7975 125.739 89.7915 121.733C85.7855 117.727 80.0123 117.006 76.8965 120.121Z" fill="#EDEDED"/>
<path d="M76.8965 120.121C73.7808 123.237 74.5024 129.01 78.5084 133.016C82.5143 137.022 88.2876 137.744 91.4034 134.628C94.5191 131.512 93.7975 125.739 89.7915 121.733C85.7855 117.727 80.0123 117.006 76.8965 120.121Z" stroke="#4C4C4C" stroke-width="1.35"/>
<path opacity="0.15" d="M78.5079 121.733C76.0846 124.157 76.6458 128.647 79.7616 131.763C82.8773 134.878 87.3677 135.44 89.791 133.016C92.2144 130.593 91.6531 126.103 88.5373 122.987C85.4216 119.871 80.9313 119.31 78.5079 121.733Z" stroke="#4C4C4C" stroke-width="0.8"/>
<g opacity="0.4">
<path d="M83.6426 123.322C81.4048 123.042 79.8173 124.63 80.0962 126.869C80.3761 129.107 82.4177 131.148 84.6555 131.428C86.8942 131.707 88.4818 130.119 88.2019 127.882" stroke="#4C4C4C" stroke-width="1.5" stroke-linecap="round"/>
<path d="M79.918 123.144L88.3809 131.607" stroke="#4C4C4C" stroke-width="1.35" stroke-linecap="round"/>
</g>
<path fill-rule="evenodd" clip-rule="evenodd" d="M103.392 155.158C101.625 157.342 102.354 161.183 105.143 163.973C107.931 166.762 111.774 167.49 113.958 165.723L113.973 165.738L115.723 163.989L115.739 163.973C118.015 161.697 117.487 157.48 114.561 154.554C111.635 151.628 107.418 151.101 105.143 153.377C105.141 153.379 105.138 153.381 105.137 153.383L103.687 154.832C103.682 154.838 103.677 154.843 103.671 154.848C103.666 154.854 103.661 154.859 103.656 154.864L103.377 155.143L103.392 155.158Z" fill="#DDDDDD"/>
<path d="M103.383 155.137L103.694 155.448L103.695 155.447L103.383 155.137ZM113.973 165.738L114.285 166.05L114.286 166.049L113.973 165.738ZM113.988 165.723L113.677 165.413L113.677 165.413L113.988 165.723ZM115.723 163.989L115.413 163.676L115.412 163.677L115.723 163.989ZM115.739 163.973L116.05 164.284V164.284L115.739 163.973ZM105.137 153.383L105.449 153.694L105.137 153.383ZM103.073 154.825C103.071 154.827 103.068 154.829 103.066 154.831L103.689 155.454C103.69 155.452 103.692 155.45 103.694 155.448L103.073 154.825ZM103.066 154.831C101.885 156.013 101.507 157.719 101.79 159.47C102.072 161.222 103.017 163.057 104.538 164.578L105.16 163.955C103.755 162.551 102.908 160.88 102.658 159.33C102.408 157.779 102.757 156.386 103.689 155.454L103.066 154.831ZM104.538 164.578C106.059 166.099 107.894 167.044 109.646 167.327C111.397 167.609 113.103 167.232 114.285 166.05L113.662 165.428C112.731 166.359 111.337 166.708 109.786 166.458C108.235 166.208 106.565 165.361 105.16 163.955L104.538 164.578ZM114.286 166.049L114.3 166.034L113.677 165.413L113.662 165.428L114.286 166.049ZM114.3 166.035L116.034 164.299L115.412 163.677L113.677 165.413L114.3 166.035ZM116.033 164.3L116.05 164.284L115.429 163.661L115.413 163.676L116.033 164.3ZM116.05 164.284C118.566 161.768 117.894 157.264 114.873 154.243L114.251 154.865C117.082 157.697 117.464 161.626 115.428 163.661L116.05 164.284ZM114.873 154.243C111.852 151.223 107.348 150.549 104.833 153.065L105.455 153.687C107.49 151.652 111.419 152.034 114.251 154.865L114.873 154.243ZM104.833 153.065C104.83 153.068 104.827 153.07 104.826 153.072L105.449 153.694C105.45 153.692 105.453 153.689 105.455 153.687L104.833 153.065ZM103.695 155.447L105.449 153.694L104.826 153.071L103.073 154.825L103.695 155.447Z" fill="#4C4C4C"/>
<path d="M105.143 153.377C102.867 155.652 103.394 159.869 106.32 162.795C109.246 165.721 113.463 166.248 115.739 163.972C118.015 161.697 117.487 157.48 114.561 154.554C111.635 151.628 107.419 151.101 105.143 153.377Z" fill="#EDEDED"/>
<path d="M105.143 153.377C102.867 155.652 103.394 159.869 106.32 162.795C109.246 165.721 113.463 166.248 115.739 163.972C118.015 161.697 117.487 157.48 114.561 154.554C111.635 151.628 107.419 151.101 105.143 153.377Z" stroke="#4C4C4C"/>
<path opacity="0.15" d="M106.321 154.554C104.551 156.324 104.961 159.604 107.236 161.879C109.512 164.155 112.792 164.565 114.562 162.795C116.332 161.025 115.922 157.745 113.646 155.47C111.37 153.194 108.091 152.784 106.321 154.554Z" stroke="#4C4C4C" stroke-width="0.584324"/>
<g opacity="0.4">
<path d="M110.07 155.715C108.436 155.51 107.276 156.67 107.48 158.305C107.685 159.939 109.175 161.431 110.81 161.635C112.445 161.839 113.604 160.679 113.4 159.045" stroke="#4C4C4C" stroke-width="1.09561" stroke-linecap="round"/>
<path d="M107.351 155.584L113.531 161.765" stroke="#4C4C4C" stroke-width="0.986047" stroke-linecap="round"/>
</g>
<path fill-rule="evenodd" clip-rule="evenodd" d="M173.792 73.318C172.024 75.5018 172.754 79.3436 175.542 82.1325C178.331 84.9214 182.173 85.6503 184.357 83.883L184.372 83.8985L186.123 82.1486L186.138 82.1326C188.414 79.8568 187.887 75.64 184.961 72.714C182.035 69.788 177.818 69.2609 175.542 71.5367C175.541 71.5388 175.538 71.5409 175.536 71.5429L174.087 72.9924C174.082 72.9977 174.076 73.0029 174.071 73.0083C174.066 73.0136 174.06 73.019 174.055 73.0243L173.776 73.3026L173.792 73.318Z" fill="#DDDDDD"/>
<path d="M173.783 73.2969L174.093 73.6086L174.094 73.6081L173.783 73.2969ZM184.373 83.8986L184.684 84.2097L184.685 84.2089L184.373 83.8986ZM184.388 83.8836L184.077 83.5726L184.076 83.5734L184.388 83.8836ZM186.123 82.1487L185.812 81.8368L185.811 81.8376L186.123 82.1487ZM186.139 82.1327L186.449 82.4446V82.4439L186.139 82.1327ZM175.537 71.5431L175.848 71.8542V71.8537L175.537 71.5431ZM173.472 72.9852C173.47 72.9873 173.468 72.9894 173.466 72.9916L174.088 73.6139C174.09 73.6122 174.092 73.6104 174.093 73.6086L173.472 72.9852ZM173.466 72.9916C172.284 74.1732 171.907 75.8786 172.189 77.6301C172.472 79.3822 173.417 81.217 174.937 82.7381L175.559 82.1158C174.155 80.711 173.308 79.0401 173.058 77.49C172.808 75.9391 173.156 74.5454 174.088 73.6139L173.466 72.9916ZM174.937 82.7381C176.459 84.2591 178.294 85.2043 180.046 85.4867C181.797 85.7692 183.502 85.3917 184.684 84.2097L184.062 83.5874C183.13 84.519 181.736 84.8682 180.186 84.6181C178.635 84.368 176.965 83.5206 175.559 82.1158L174.937 82.7381ZM184.685 84.2089L184.7 84.194L184.076 83.5734L184.061 83.5883L184.685 84.2089ZM184.699 84.1948L186.434 82.4598L185.811 81.8376L184.077 83.5726L184.699 84.1948ZM186.433 82.4606L186.449 82.4446L185.828 81.8208L185.812 81.8368L186.433 82.4606ZM186.449 82.4439C188.965 79.928 188.293 75.4235 185.273 72.403L184.651 73.0252C187.482 75.8567 187.864 79.7859 185.827 81.8216L186.449 82.4439ZM185.273 72.403C182.252 69.3826 177.748 68.7099 175.232 71.2257L175.854 71.848C177.89 69.8123 181.819 70.1938 184.651 73.0252L185.273 72.403ZM175.232 71.2257C175.229 71.228 175.227 71.2303 175.225 71.2325L175.848 71.8537C175.85 71.8517 175.853 71.8498 175.854 71.848L175.232 71.2257ZM174.094 73.6081L175.848 71.8542L175.226 71.232L173.472 72.9858L174.094 73.6081Z" fill="#4C4C4C"/>
<path d="M175.543 71.5367C173.268 73.8125 173.795 78.0293 176.721 80.9553C179.647 83.8812 183.863 84.4083 186.139 82.1326C188.415 79.8568 187.888 75.64 184.962 72.714C182.036 69.7881 177.819 69.261 175.543 71.5367Z" fill="#EDEDED"/>
<path d="M175.543 71.5367C173.268 73.8125 173.795 78.0293 176.721 80.9553C179.647 83.8812 183.863 84.4083 186.139 82.1326C188.415 79.8568 187.888 75.64 184.962 72.714C182.036 69.7881 177.819 69.261 175.543 71.5367Z" stroke="#4C4C4C"/>
<path opacity="0.15" d="M176.721 72.7141C174.951 74.4841 175.361 77.7638 177.636 80.0396C179.912 82.3153 183.192 82.7253 184.962 80.9553C186.732 79.1853 186.322 75.9055 184.046 73.6297C181.77 71.354 178.491 70.944 176.721 72.7141Z" stroke="#4C4C4C" stroke-width="0.584324"/>
<g opacity="0.4">
<path d="M180.472 73.8748C178.837 73.6705 177.678 74.83 177.882 76.4648C178.086 78.0995 179.577 79.5904 181.212 79.7947C182.847 79.9991 184.006 78.8395 183.801 77.2048" stroke="#4C4C4C" stroke-width="1.09561" stroke-linecap="round"/>
<path d="M177.751 73.7444L183.931 79.9252" stroke="#4C4C4C" stroke-width="0.986047" stroke-linecap="round"/>
</g>
<path fill-rule="evenodd" clip-rule="evenodd" d="M74.6006 7.96816C74.6094 7.959 74.6191 7.94994 74.6279 7.94088C78.9689 3.59945 87.0139 4.60499 92.5948 10.1868C98.1767 15.7686 99.1825 23.8129 94.8415 28.1542L94.8221 28.1733L91.472 31.523L91.4429 31.4935C87.277 34.8655 79.9484 33.4743 74.6279 28.1541C69.3074 22.8339 67.9161 15.5049 71.2883 11.339L71.2592 11.3096L71.7899 10.779C71.7996 10.7687 71.8101 10.7584 71.8207 10.7482C71.8304 10.7379 71.8409 10.7277 71.8515 10.7175L74.6006 7.96816Z" fill="#DDDDDD"/>
<path d="M91.4728 31.5229L91.9392 31.9897L91.9401 31.9884L91.4728 31.5229ZM91.501 31.4946L91.0337 31.0278L91.0328 31.0291L91.501 31.4946ZM94.8221 28.1733L94.3557 27.7058V27.7066L94.8221 28.1733ZM94.8415 28.1542L95.307 28.6216L95.3079 28.6209L94.8415 28.1542ZM74.6006 7.96806L75.067 8.43472L75.0696 8.4327L74.6006 7.96806ZM71.2715 11.2972L71.7371 11.7649L71.7379 11.7638L71.2715 11.2972ZM74.5328 28.2489C71.8295 25.5452 70.1927 22.3245 69.7095 19.326C69.2255 16.3266 69.8979 13.6044 71.7256 11.7763L70.7919 10.8428C68.5893 13.046 67.8739 16.2359 68.4063 19.5362C68.9387 22.8375 70.7215 26.3042 73.6 29.1822L74.5328 28.2489ZM91.0055 31.0563C89.1778 32.8844 86.4551 33.5563 83.456 33.0726C80.4579 32.589 77.2371 30.9525 74.5328 28.2489L73.6 29.1822C76.4776 32.0603 79.9448 33.8432 83.2457 34.3757C86.5457 34.908 89.7357 34.1928 91.9392 31.9897L91.0055 31.0563ZM91.0328 31.0291L91.0047 31.0575L91.9401 31.9884L91.9683 31.96L91.0328 31.0291ZM94.3557 27.7066L91.0337 31.0278L91.9674 31.9613L95.2885 28.64L94.3557 27.7066ZM94.3751 27.6868L94.3557 27.7058L95.2876 28.6407L95.307 28.6216L94.3751 27.6868ZM92.1284 10.6534C97.5686 16.0934 98.3553 23.7062 94.3742 27.6875L95.3079 28.6209C100.01 23.9194 98.7856 15.4436 93.0621 9.72005L92.1284 10.6534ZM75.0943 8.40744C79.0754 4.42618 86.6883 5.21342 92.1284 10.6534L93.0621 9.72005C87.3386 3.99644 78.8624 2.7726 74.1615 7.47411L75.0943 8.40744ZM75.0696 8.4327C75.0775 8.42434 75.0863 8.41589 75.0943 8.40744L74.1615 7.47411C74.1509 7.48379 74.1412 7.49365 74.1316 7.50342L75.0696 8.4327ZM71.7379 11.7638L75.067 8.43472L74.1342 7.50139L70.8051 10.8305L71.7379 11.7638ZM71.7256 11.7763C71.7291 11.7725 71.7335 11.7687 71.7371 11.7649L70.806 10.8294C70.8016 10.8339 70.7972 10.8384 70.7919 10.8428L71.7256 11.7763Z" fill="#4C4C4C"/>
<path d="M74.6279 7.94078C70.2866 12.2822 71.2921 20.3265 76.8739 25.9082C82.4557 31.49 90.5 32.4956 94.8414 28.1542C99.1827 23.8128 98.1772 15.7685 92.5954 10.1867C87.0136 4.60496 78.9693 3.59941 74.6279 7.94078Z" fill="#EDEDED"/>
<path d="M74.6279 7.94078C70.2866 12.2822 71.2921 20.3265 76.8739 25.9082C82.4557 31.49 90.5 32.4956 94.8414 28.1542C99.1827 23.8128 98.1772 15.7685 92.5954 10.1867C87.0136 4.60496 78.9693 3.59941 74.6279 7.94078Z" stroke="#4C4C4C" stroke-width="1.5"/>
<path opacity="0.15" d="M76.8736 10.1869C73.4969 13.5635 74.279 19.8202 78.6204 24.1616C82.9617 28.5029 89.2184 29.285 92.595 25.9084C95.9717 22.5317 95.1896 16.2751 90.8482 11.9337C86.5069 7.59232 80.2502 6.81024 76.8736 10.1869Z" stroke="#4C4C4C" stroke-width="1.1147"/>
<g opacity="0.4">
<path d="M84.0286 12.4009C80.9099 12.011 78.6985 14.2231 79.0883 17.3416C79.4782 20.4602 82.3214 23.3043 85.4402 23.6941C88.5589 24.0839 90.7712 21.8719 90.3814 18.7533" stroke="#4C4C4C" stroke-width="2.09006" stroke-linecap="round"/>
<path d="M78.8387 12.1521L90.6298 23.9432" stroke="#4C4C4C" stroke-width="1.88105" stroke-linecap="round"/>
</g>
<path fill-rule="evenodd" clip-rule="evenodd" d="M192.37 29.2622C192.362 29.2693 192.355 29.2763 192.348 29.2833C189.232 32.3992 183.46 31.6775 179.454 27.6715C175.447 23.6655 174.726 17.8923 177.842 14.7765L177.856 14.7626L180.259 12.3588L180.28 12.38C183.27 9.95986 188.53 10.9583 192.348 14.7765C196.167 18.5948 197.165 23.8547 194.745 26.8445L194.766 26.8655L194.386 27.245C194.379 27.2529 194.371 27.2607 194.364 27.2686C194.356 27.2764 194.348 27.2842 194.34 27.2919L192.37 29.2622Z" fill="#DDDDDD"/>
<path d="M192.369 29.2622L191.949 28.8421L191.947 28.8441L192.369 29.2622ZM177.841 14.7765L177.422 14.3558V14.3565L177.841 14.7765ZM177.855 14.7626L178.274 15.1832L178.275 15.1826L177.855 14.7626ZM180.259 12.3588L179.843 11.9343L179.839 11.9387L180.259 12.3588ZM180.259 12.3587L180.675 12.7832L180.679 12.7787L180.259 12.3587ZM194.743 26.889L194.325 26.4664L194.322 26.469L194.743 26.889ZM192.768 29.7033C192.776 29.6957 192.784 29.6879 192.791 29.6802L191.947 28.8441C191.941 28.8505 191.935 28.8569 191.928 28.8633L192.768 29.7033ZM179.033 28.0915C183.166 32.225 189.328 33.1431 192.768 29.7033L191.928 28.8633C189.136 31.655 183.751 31.1298 179.873 27.2514L179.033 28.0915ZM177.422 14.3565C173.982 17.7963 174.9 23.9579 179.033 28.0915L179.873 27.2514C175.995 23.3731 175.47 17.9881 178.261 15.1965L177.422 14.3565ZM177.436 14.3419L177.422 14.3558L178.26 15.1971L178.274 15.1832L177.436 14.3419ZM179.839 11.9387L177.435 14.3426L178.275 15.1826L180.679 12.7788L179.839 11.9387ZM179.843 11.9343V11.9343L180.675 12.7832V12.7831L179.843 11.9343ZM193.171 13.9535C191.09 11.872 188.579 10.5791 186.182 10.1926C183.787 9.80607 181.455 10.3233 179.839 11.9387L180.679 12.7787C181.957 11.5009 183.868 11.0226 185.993 11.3653C188.117 11.708 190.407 12.8691 192.331 14.7936L193.171 13.9535ZM195.186 27.2856C196.801 25.6702 197.318 23.3383 196.932 20.9423C196.546 18.5453 195.252 16.035 193.171 13.9535L192.331 14.7936C194.255 16.7181 195.417 19.0072 195.759 21.1314C196.102 23.2567 195.623 25.1677 194.346 26.4455L195.186 27.2856ZM195.16 27.3116C195.169 27.3029 195.177 27.2943 195.186 27.2856L194.346 26.4455C194.339 26.4525 194.332 26.4595 194.325 26.4664L195.16 27.3116ZM194.322 26.469L191.949 28.8421L192.789 29.6822L195.162 27.309L194.322 26.469Z" fill="#4C4C4C"/>
<path d="M192.348 29.2833C195.463 26.1675 194.742 20.3942 190.736 16.3883C186.73 12.3823 180.957 11.6607 177.841 14.7764C174.725 17.8922 175.447 23.6654 179.453 27.6714C183.459 31.6774 189.232 32.399 192.348 29.2833Z" fill="#EDEDED"/>
<path d="M192.348 29.2833C195.463 26.1675 194.742 20.3942 190.736 16.3883C186.73 12.3823 180.957 11.6607 177.841 14.7764C174.725 17.8922 175.447 23.6654 179.453 27.6714C183.459 31.6774 189.232 32.399 192.348 29.2833Z" stroke="#4C4C4C" stroke-width="1.35"/>
<path opacity="0.15" d="M190.735 27.6714C193.159 25.248 192.597 20.7577 189.482 17.6419C186.366 14.5262 181.876 13.9649 179.452 16.3883C177.029 18.8116 177.59 23.3019 180.706 26.4177C183.822 29.5334 188.312 30.0947 190.735 27.6714Z" stroke="#4C4C4C" stroke-width="0.8"/>
<g opacity="0.4">
<path d="M185.601 26.0824C187.84 26.3621 189.427 24.7746 189.148 22.5364C188.868 20.2983 186.826 18.2572 184.588 17.9774C182.35 17.6976 180.763 19.2852 181.043 21.5233" stroke="#4C4C4C" stroke-width="1.5" stroke-linecap="round"/>
<path d="M189.326 26.261L180.864 17.7987" stroke="#4C4C4C" stroke-width="1.35" stroke-linecap="round"/>
</g>
<path fill-rule="evenodd" clip-rule="evenodd" d="M51.0884 156.391C51.0823 156.397 51.0752 156.404 51.0691 156.41C49.0459 158.433 45.2984 157.964 42.6978 155.364C40.0972 152.764 39.6287 149.016 41.6514 146.993L41.6614 146.983L43.221 145.423L43.2346 145.437C45.1755 143.866 48.5903 144.514 51.0691 146.993C53.548 149.471 54.1957 152.886 52.6249 154.827L52.6381 154.841L52.3979 155.081C52.3908 155.089 52.3838 155.096 52.3767 155.103C52.3706 155.11 52.3635 155.116 52.3565 155.123L51.0884 156.391Z" fill="#DDDDDD"/>
<path d="M43.2211 145.424L42.91 145.112L42.909 145.114L43.2211 145.424ZM43.2037 145.441L43.5148 145.752L43.5159 145.751L43.2037 145.441ZM41.6617 146.983L41.9724 147.294H41.9729L41.6617 146.983ZM41.6517 146.993L41.3412 146.681L41.3406 146.682L41.6517 146.993ZM51.0887 156.391L50.7781 156.079L50.7755 156.082L51.0887 156.391ZM52.6279 154.852L52.3181 154.539L52.3172 154.54L52.6279 154.852ZM51.0192 147.043C52.2618 148.284 53.0098 149.76 53.2298 151.127C53.4507 152.494 53.1418 153.716 52.3278 154.53L52.9499 155.152C54.0139 154.088 54.3518 152.555 54.0983 150.987C53.8458 149.419 53.0001 147.778 51.6423 146.421L51.0192 147.043ZM43.5323 145.734C44.3464 144.92 45.5677 144.612 46.935 144.832C48.3016 145.053 49.7775 145.8 51.0192 147.043L51.6423 146.421C50.2835 145.062 48.6437 144.216 47.0752 143.964C45.5073 143.711 43.9741 144.048 42.91 145.112L43.5323 145.734ZM43.5159 145.751L43.5333 145.733L42.909 145.114L42.8915 145.131L43.5159 145.751ZM41.9729 147.294L43.5148 145.752L42.8926 145.13L41.3507 146.671L41.9729 147.294ZM41.9623 147.305L41.9724 147.294L41.3512 146.671L41.3412 146.681L41.9623 147.305ZM43.0093 155.053C40.5032 152.547 40.1803 149.087 41.9629 147.304L41.3406 146.682C39.0779 148.944 39.6919 152.98 42.387 155.676L43.0093 155.053ZM50.7579 156.1C48.9756 157.882 45.5154 157.559 43.0093 155.053L42.387 155.676C45.0821 158.37 49.1175 158.984 51.3809 156.722L50.7579 156.1ZM50.7755 156.082C50.7702 156.087 50.764 156.094 50.7579 156.1L51.3809 156.722C51.3879 156.714 51.395 156.707 51.402 156.7L50.7755 156.082ZM52.3172 154.54L50.7781 156.079L51.4003 156.702L52.9394 155.163L52.3172 154.54ZM52.3278 154.53C52.3243 154.533 52.3216 154.536 52.3181 154.539L52.9376 155.164C52.942 155.16 52.9455 155.156 52.9499 155.152L52.3278 154.53Z" fill="#4C4C4C"/>
<path d="M51.0693 156.41C53.092 154.388 52.6235 150.64 50.0229 148.039C47.4223 145.438 43.6744 144.97 41.6517 146.993C39.629 149.015 40.0975 152.763 42.6981 155.364C45.2987 157.964 49.0466 158.433 51.0693 156.41Z" fill="#EDEDED"/>
<path d="M51.0693 156.41C53.092 154.388 52.6235 150.64 50.0229 148.039C47.4223 145.438 43.6744 144.97 41.6517 146.993C39.629 149.015 40.0975 152.763 42.6981 155.364C45.2987 157.964 49.0466 158.433 51.0693 156.41Z" stroke="#4C4C4C"/>
<path opacity="0.15" d="M50.0227 155.364C51.5959 153.791 51.2316 150.876 49.2089 148.853C47.1862 146.83 44.2711 146.466 42.6979 148.039C41.1247 149.612 41.4891 152.527 43.5118 154.55C45.5345 156.573 48.4495 156.937 50.0227 155.364Z" stroke="#4C4C4C" stroke-width="0.519346"/>
<g opacity="0.4">
<path d="M46.6896 154.333C48.1426 154.514 49.1734 153.483 48.9916 152.03C48.81 150.578 47.4849 149.252 46.0319 149.071C44.5789 148.889 43.5484 149.92 43.73 151.373" stroke="#4C4C4C" stroke-width="0.973774" stroke-linecap="round"/>
<path d="M49.1083 154.449L43.6143 148.955" stroke="#4C4C4C" stroke-width="0.876397" stroke-linecap="round"/>
</g>
<path fill-rule="evenodd" clip-rule="evenodd" d="M81.8891 65.7506C81.8829 65.7572 81.8759 65.7638 81.8697 65.7704C79.8466 67.7931 76.0987 67.3246 73.4983 64.724C70.8979 62.1234 70.4297 58.3755 72.452 56.3528L72.4616 56.3428L74.0219 54.7833L74.0351 54.797C75.9764 53.2259 79.3908 53.874 81.8697 56.3528C84.3487 58.8316 84.9964 62.2462 83.4256 64.1872L83.4388 64.2008L83.1985 64.4418C83.1915 64.4486 83.1844 64.4556 83.1774 64.4624C83.1712 64.4692 83.1642 64.4761 83.1572 64.4829L81.8891 65.7506Z" fill="#DDDDDD"/>
<path d="M74.0216 54.7834L73.71 54.4723L73.7092 54.4733L74.0216 54.7834ZM74.004 54.801L74.3146 55.1121L74.3164 55.111L74.004 54.801ZM72.4622 56.3429L72.772 56.6545L72.7728 56.654L72.4622 56.3429ZM72.4516 56.3528L72.141 56.0412V56.0418L72.4516 56.3528ZM81.8887 65.7506L81.5781 65.4396L81.5755 65.4417L81.8887 65.7506ZM83.4279 64.2118L83.1181 63.8993L83.1172 63.9006L83.4279 64.2118ZM81.8192 56.4025C83.0618 57.6447 83.8098 59.1205 84.0298 60.4872C84.2507 61.8544 83.9418 63.0758 83.1278 63.8899L83.75 64.5121C84.8139 63.448 85.1518 61.9148 84.8984 60.347C84.6458 58.7785 83.8001 57.1387 82.4423 55.7802L81.8192 56.4025ZM74.3322 55.0945C75.1462 54.2805 76.3676 53.9717 77.7352 54.1922C79.1018 54.4126 80.5776 55.1604 81.8192 56.4025L82.4423 55.7802C81.0836 54.4219 79.4432 53.5765 77.8751 53.3235C76.3069 53.0706 74.774 53.4081 73.71 54.4723L74.3322 55.0945ZM74.3164 55.111L74.3331 55.0934L73.7092 54.4733L73.6916 54.4909L74.3164 55.111ZM72.7728 56.654L74.3146 55.1121L73.6924 54.4898L72.1507 56.0317L72.7728 56.654ZM72.7623 56.6645L72.772 56.6545L72.1516 56.0312L72.141 56.0412L72.7623 56.6645ZM73.8095 64.4129C71.3032 61.9069 70.9803 58.4466 72.7632 56.664L72.141 56.0418C69.8776 58.3045 70.4919 62.3401 73.1873 65.0352L73.8095 64.4129ZM81.5579 65.4594C79.7759 67.242 76.3157 66.919 73.8095 64.4129L73.1873 65.0352C75.8819 67.7304 79.9175 68.3443 82.1809 66.0816L81.5579 65.4594ZM81.5755 65.4417C81.5702 65.4476 81.564 65.4535 81.5579 65.4594L82.1809 66.0816C82.1879 66.0743 82.195 66.067 82.202 66.0597L81.5755 65.4417ZM83.1172 63.9006L81.5781 65.4396L82.2003 66.0618L83.7394 64.5229L83.1172 63.9006ZM83.1278 63.8899C83.1243 63.893 83.1216 63.8961 83.1181 63.8993L83.7376 64.5242C83.742 64.5202 83.7456 64.5162 83.75 64.5121L83.1278 63.8899Z" fill="#4C4C4C"/>
<path d="M81.8691 65.7703C83.8918 63.7476 83.4233 59.9997 80.8227 57.3991C78.2221 54.7985 74.4742 54.33 72.4515 56.3527C70.4288 58.3754 70.8973 62.1233 73.4979 64.7239C76.0985 67.3245 79.8464 67.793 81.8691 65.7703Z" fill="#EDEDED"/>
<path d="M81.8691 65.7703C83.8918 63.7476 83.4233 59.9997 80.8227 57.3991C78.2221 54.7985 74.4742 54.33 72.4515 56.3527C70.4288 58.3754 70.8973 62.1233 73.4979 64.7239C76.0985 67.3245 79.8464 67.793 81.8691 65.7703Z" stroke="#4C4C4C"/>
<path opacity="0.15" d="M80.8229 64.7239C82.3961 63.1507 82.0317 60.2357 80.009 58.213C77.9863 56.1903 75.0713 55.8259 73.4981 57.3991C71.9249 58.9723 72.2893 61.8874 74.312 63.9101C76.3347 65.9328 79.2497 66.2971 80.8229 64.7239Z" stroke="#4C4C4C" stroke-width="0.519346"/>
<g opacity="0.4">
<path d="M77.4896 63.6924C78.9425 63.874 79.973 62.8434 79.7908 61.3905C79.6096 59.9375 78.2843 58.6124 76.8314 58.4308C75.3785 58.2492 74.348 59.2798 74.5293 60.7328" stroke="#4C4C4C" stroke-width="0.973774" stroke-linecap="round"/>
<path d="M79.9079 63.8084L74.414 58.3148" stroke="#4C4C4C" stroke-width="0.876397" stroke-linecap="round"/>
</g>
<path fill-rule="evenodd" clip-rule="evenodd" d="M196.288 56.9507C196.282 56.9573 196.275 56.9639 196.269 56.9705C194.246 58.9931 190.498 58.5246 187.898 55.924C185.297 53.3235 184.829 49.5756 186.851 47.5529L186.861 47.5428L188.421 45.9834L188.435 45.997C190.376 44.426 193.79 45.0741 196.269 47.5529C198.748 50.0317 199.396 53.4463 197.825 55.3872L197.838 55.4009L197.598 55.6418C197.591 55.6487 197.584 55.6556 197.577 55.6624C197.571 55.6693 197.564 55.6762 197.557 55.6829L196.288 56.9507Z" fill="#DDDDDD"/>
<path d="M188.422 45.9833L188.11 45.6722L188.11 45.6733L188.422 45.9833ZM188.404 46.0009L188.715 46.312L188.717 46.3109L188.404 46.0009ZM186.863 47.5429L187.172 47.8545L187.173 47.8539L186.863 47.5429ZM186.852 47.5528L186.541 47.2412V47.2417L186.852 47.5528ZM196.289 56.9506L195.979 56.6395L195.976 56.6416L196.289 56.9506ZM197.828 55.4117L197.519 55.0992L197.518 55.1006L197.828 55.4117ZM196.22 47.6024C197.462 48.8446 198.21 50.3205 198.43 51.6871C198.651 53.0544 198.342 54.2757 197.528 55.0898L198.15 55.7121C199.214 54.648 199.552 53.1148 199.299 51.5469C199.046 49.9784 198.2 48.3386 196.843 46.9802L196.22 47.6024ZM188.733 46.2945C189.547 45.4804 190.768 45.1716 192.136 45.3921C193.502 45.6126 194.978 46.3603 196.22 47.6024L196.843 46.9802C195.484 45.6218 193.844 44.7764 192.275 44.5234C190.707 44.2706 189.174 44.6081 188.11 45.6722L188.733 46.2945ZM188.717 46.3109L188.733 46.2933L188.11 45.6733L188.092 45.6909L188.717 46.3109ZM187.173 47.8539L188.715 46.312L188.093 45.6898L186.551 47.2317L187.173 47.8539ZM187.163 47.8645L187.172 47.8545L186.552 47.2312L186.541 47.2412L187.163 47.8645ZM188.21 55.6129C185.704 53.1068 185.381 49.6466 187.164 47.864L186.541 47.2417C184.278 49.5045 184.892 53.5401 187.588 56.2351L188.21 55.6129ZM195.958 56.6593C194.176 58.4419 190.716 58.119 188.21 55.6129L187.588 56.2351C190.282 58.9303 194.318 59.5443 196.581 57.2816L195.958 56.6593ZM195.976 56.6416C195.971 56.6475 195.964 56.6534 195.958 56.6593L196.581 57.2816C196.588 57.2743 196.595 57.2669 196.602 57.2596L195.976 56.6416ZM197.518 55.1006L195.979 56.6395L196.601 57.2618L198.14 55.7228L197.518 55.1006ZM197.528 55.0898C197.525 55.093 197.522 55.0961 197.519 55.0992L198.138 55.7241C198.142 55.7202 198.146 55.7161 198.15 55.7121L197.528 55.0898Z" fill="#4C4C4C"/>
<path d="M196.269 56.9704C198.292 54.9477 197.824 51.1998 195.223 48.5992C192.622 45.9986 188.874 45.5301 186.852 47.5528C184.829 49.5755 185.298 53.3234 187.898 55.924C190.499 58.5246 194.247 58.9931 196.269 56.9704Z" fill="#EDEDED"/>
<path d="M196.269 56.9704C198.292 54.9477 197.824 51.1998 195.223 48.5992C192.622 45.9986 188.874 45.5301 186.852 47.5528C184.829 49.5755 185.298 53.3234 187.898 55.924C190.499 58.5246 194.247 58.9931 196.269 56.9704Z" stroke="#4C4C4C"/>
<path opacity="0.15" d="M195.223 55.924C196.796 54.3508 196.432 51.4358 194.409 49.4131C192.387 47.3904 189.472 47.026 187.898 48.5992C186.325 50.1724 186.69 53.0875 188.712 55.1102C190.735 57.1328 193.65 57.4972 195.223 55.924Z" stroke="#4C4C4C" stroke-width="0.519346"/>
<path d="M191.89 54.8925C193.343 55.0741 194.373 54.0434 194.191 52.5906C194.01 51.1376 192.685 49.8125 191.232 49.6309C189.779 49.4492 188.748 50.4799 188.93 51.9329" stroke="#4C4C4C" stroke-width="0.973774" stroke-linecap="round"/>
<path d="M194.308 55.0085L188.814 49.5149" stroke="#4C4C4C" stroke-width="0.876397" stroke-linecap="round"/>
<path opacity="0.1" fill-rule="evenodd" clip-rule="evenodd" d="M145.716 123.849L148.558 126.69L148.533 126.716C150.599 129.267 150.545 133.225 148.642 136.92H126.579C125.858 133.369 127.262 129.045 130.564 125.743C135.271 121.036 142.056 120.188 145.716 123.849ZM89.1122 136.92L91.3896 134.643L91.4037 134.628C94.5189 131.512 93.7973 125.74 89.7915 121.734C85.7858 117.727 80.0121 117.006 76.8969 120.122L76.8758 120.143L74.9054 122.113L74.8817 122.136L74.8579 122.16L74.4786 122.539L74.4998 122.56C72.0798 125.55 73.0786 130.81 76.8969 134.628C77.8332 135.565 78.8558 136.331 79.9109 136.92H89.1122ZM14.8848 135.31C16.4751 134.728 18.0347 133.748 19.3915 132.392C23.3975 128.385 24.1191 122.612 21.0034 119.496L20.9825 119.476L18.9927 117.486L18.9885 117.482L18.9842 117.477L18.5854 117.079L18.5643 117.1C16.6856 115.579 13.9105 115.408 11.16 116.439V128.12C11.16 131.09 12.6313 133.716 14.8848 135.31ZM151.175 39.24H131.612C130.529 42.308 130.928 45.4744 132.962 47.5084L132.983 47.5292L134.972 49.5189L134.977 49.5232L134.981 49.5275L135.38 49.9262L135.401 49.9051C138.39 52.3251 143.65 51.3266 147.468 47.5084C149.955 45.0219 151.245 41.9242 151.175 39.24Z" fill="#4C4C4C"/>
</svg>
