<svg width="268" height="173" viewBox="0 0 268 173" fill="none" xmlns="http://www.w3.org/2000/svg">
<path opacity="0.4" d="M36.8509 131.567C35.8944 132.216 28.2905 137.109 18.9891 143.08" stroke="#CCCCCC" stroke-width="0.852603" stroke-linecap="round" stroke-dasharray="1.42 2.13"/>
<g opacity="0.2">
<path d="M39.6111 131.374L39.8988 128.569L51.9832 121.647L40.6527 131.901C40.2278 132.286 39.5527 131.944 39.6111 131.374Z" fill="white" stroke="#4C4C4C" stroke-width="1.06575" stroke-linejoin="round"/>
<path d="M52.2057 122.709C52.7517 121.951 52.0863 120.916 51.1706 121.099L38.083 123.714C37.4515 123.84 37.1452 124.562 37.4936 125.103L42.8918 133.495C43.2402 134.036 44.0247 134.057 44.4012 133.535L52.2057 122.709Z" fill="white" stroke="#4C4C4C" stroke-width="1.06575"/>
<path d="M39.9228 128.681L52.095 121.622" stroke="#4C4C4C" stroke-width="1.06575"/>
</g>
<path opacity="0.4" d="M225.17 96.3669C222.857 97.9386 181.637 124.347 171.6 130.76" stroke="#CCCCCC" stroke-width="0.852603" stroke-linecap="round" stroke-dasharray="1.42 2.13"/>
<path opacity="0.4" d="M129.25 25.9667C126.937 27.5384 85.7167 53.946 75.6805 60.3598" stroke="#CCCCCC" stroke-width="0.852603" stroke-linecap="round" stroke-dasharray="1.42 2.13"/>
<g opacity="0.7">
<path opacity="0.4" d="M28.0509 57.6465C25.7367 59.2183 -15.4833 85.6256 -25.5195 92.0399" stroke="#CCCCCC" stroke-width="0.852603" stroke-linecap="round" stroke-dasharray="1.42 2.13"/>
<g opacity="0.2">
<path d="M30.8114 57.454L31.099 54.6485L43.1835 47.7262L31.8529 57.9813C31.4281 58.3658 30.7529 58.024 30.8114 57.454Z" fill="white" stroke="#4C4C4C" stroke-width="1.06575" stroke-linejoin="round"/>
<path d="M43.4059 48.7881C43.952 48.0307 43.2866 46.9964 42.3709 47.1792L29.2832 49.7932C28.6518 49.9193 28.3454 50.6417 28.6938 51.1833L34.0921 59.5746C34.4405 60.1161 35.2249 60.1369 35.6015 59.6145L43.4059 48.7881Z" fill="white" stroke="#4C4C4C" stroke-width="1.06575"/>
<path d="M31.123 54.7604L43.2953 47.7021" stroke="#4C4C4C" stroke-width="1.06575"/>
</g>
</g>
<path opacity="0.4" d="M106.368 139.953C105.214 140.737 84.6605 153.905 79.6562 157.103" stroke="#CCCCCC" stroke-width="0.425131" stroke-linecap="round" stroke-dasharray="0.71 1.06"/>
<g opacity="0.2">
<path d="M107.743 139.857L107.886 138.458L113.913 135.007L108.263 140.121C108.051 140.312 107.714 140.142 107.743 139.857Z" fill="white" stroke="#4C4C4C" stroke-width="0.531414" stroke-linejoin="round"/>
<path d="M114.024 135.537C114.296 135.159 113.964 134.643 113.507 134.734L106.982 136.037C106.667 136.101 106.514 136.461 106.688 136.731L109.379 140.915C109.553 141.184 109.944 141.195 110.132 140.935L114.024 135.537Z" fill="white" stroke="#4C4C4C" stroke-width="0.531414"/>
<path d="M107.899 138.515L113.969 134.995" stroke="#4C4C4C" stroke-width="0.531414"/>
</g>
<g opacity="0.6">
<path opacity="0.4" d="M222.698 155.85C221.544 156.635 200.991 169.802 195.986 173" stroke="#CCCCCC" stroke-width="0.425131" stroke-linecap="round" stroke-dasharray="0.71 1.06"/>
<g opacity="0.2">
<path d="M224.074 155.755L224.217 154.355L230.244 150.904L224.594 156.018C224.382 156.21 224.045 156.039 224.074 155.755Z" fill="white" stroke="#4C4C4C" stroke-width="0.531414" stroke-linejoin="round"/>
<path d="M230.355 151.434C230.627 151.055 230.295 150.54 229.838 150.631L223.312 151.934C222.998 151.998 222.845 152.358 223.019 152.628L225.71 156.811C225.884 157.082 226.275 157.092 226.464 156.832L230.355 151.434Z" fill="white" stroke="#4C4C4C" stroke-width="0.531414"/>
<path d="M224.23 154.412L230.299 150.892" stroke="#4C4C4C" stroke-width="0.531414"/>
</g>
</g>
<path opacity="0.5" d="M259.829 118.948C258.675 119.731 238.122 132.899 233.117 136.097" stroke="#CCCCCC" stroke-width="0.425131" stroke-linecap="round" stroke-dasharray="0.71 1.06"/>
<g opacity="0.3">
<path d="M261.205 118.852L261.348 117.453L267.374 114.001L261.724 119.115C261.513 119.307 261.176 119.136 261.205 118.852Z" fill="white" stroke="#4C4C4C" stroke-width="0.531414" stroke-linejoin="round"/>
<path d="M267.485 114.531C267.757 114.153 267.425 113.637 266.969 113.728L260.443 115.032C260.128 115.095 259.975 115.455 260.149 115.725L262.841 119.909C263.015 120.179 263.406 120.189 263.593 119.929L267.485 114.531Z" fill="white" stroke="#4C4C4C" stroke-width="0.531414"/>
<path d="M261.36 117.509L267.43 113.989" stroke="#4C4C4C" stroke-width="0.531414"/>
</g>
<g opacity="0.6">
<path opacity="0.4" d="M255.599 35.4048C254.445 36.1885 233.892 49.3561 228.888 52.5542" stroke="#CCCCCC" stroke-width="0.425131" stroke-linecap="round" stroke-dasharray="0.71 1.06"/>
<g opacity="0.2">
<path d="M256.975 35.3089L257.119 33.91L263.144 30.4584L257.495 35.5719C257.283 35.7635 256.946 35.5931 256.975 35.3089Z" fill="white" stroke="#4C4C4C" stroke-width="0.531414" stroke-linejoin="round"/>
<path d="M263.255 30.9878C263.528 30.6101 263.196 30.0944 262.739 30.1855L256.213 31.4889C255.898 31.5518 255.746 31.912 255.919 32.1821L258.611 36.3662C258.785 36.6363 259.176 36.6466 259.364 36.3861L263.255 30.9878Z" fill="white" stroke="#4C4C4C" stroke-width="0.531414"/>
<path d="M257.131 33.9658L263.201 30.4464" stroke="#4C4C4C" stroke-width="0.531414"/>
</g>
</g>
<path opacity="0.4" d="M210.89 30.1819C209.737 30.9656 189.183 44.1331 184.179 47.3312" stroke="#CCCCCC" stroke-width="0.425131" stroke-linecap="round" stroke-dasharray="0.71 1.06"/>
<g opacity="0.2">
<path d="M212.266 30.086L212.41 28.6872L218.435 25.2355L212.785 30.349C212.573 30.5407 212.237 30.3703 212.266 30.086Z" fill="white" stroke="#4C4C4C" stroke-width="0.531414" stroke-linejoin="round"/>
<path d="M218.546 25.765C218.819 25.3873 218.487 24.8715 218.03 24.9628L211.504 26.2661C211.189 26.329 211.037 26.6893 211.21 26.9593L213.902 31.1434C214.075 31.4134 214.467 31.4238 214.654 31.1633L218.546 25.765Z" fill="white" stroke="#4C4C4C" stroke-width="0.531414"/>
<path d="M212.422 28.7429L218.491 25.2235" stroke="#4C4C4C" stroke-width="0.531414"/>
</g>
<path d="M26.1551 101.278C22.6829 103.636 13.4286 109.618 7.04004 113.731" stroke="#CCCCCC" stroke-width="1.06575" stroke-linecap="round" stroke-dasharray="2.13 2.84"/>
<path d="M183.676 157.598C180.479 159.77 172.381 165.012 166.13 169.04" stroke="#CCCCCC" stroke-width="1.06575" stroke-linecap="round" stroke-dasharray="2.13 2.84"/>
<path d="M48.124 141.844C44.8717 144.052 25.9767 156.195 11.001 165.797" stroke="#CCCCCC" stroke-width="1.421" stroke-linecap="round" stroke-dasharray="2.84 4.26"/>
<path d="M233.66 28.24C228.14 31.989 195.369 52.8519 183.147 61.0498" stroke="#CCCCCC" stroke-width="1.06575" stroke-linecap="round" stroke-dasharray="2.13 2.84"/>
<path d="M237.698 158.545C234.956 160.407 225.49 166.491 215.16 173.15" stroke="#CCCCCC" stroke-width="1.06575" stroke-linecap="round" stroke-dasharray="2.13 2.84"/>
<path d="M206.018 95.1851C203.276 97.0471 193.811 103.131 183.48 109.79" stroke="#CCCCCC" stroke-width="1.06575" stroke-linecap="round" stroke-dasharray="2.13 2.84"/>
<path d="M74.018 77.5853C71.2762 79.4475 61.8111 85.5315 51.4805 92.1895" stroke="#CCCCCC" stroke-width="1.06575" stroke-linecap="round" stroke-dasharray="2.13 2.84"/>
<path d="M147.938 139.185C144.307 141.651 128.888 151.52 115.28 160.32" stroke="#CCCCCC" stroke-width="1.06575" stroke-linecap="round" stroke-dasharray="2.13 2.84"/>
<path d="M79.7058 36.6416C74.1857 40.3906 41.4144 61.2535 29.1932 69.4514" stroke="#CCCCCC" stroke-width="1.06575" stroke-linecap="round" stroke-dasharray="2.13 2.84"/>
<path d="M181.511 14.9895C175.99 18.7385 135.064 44.5999 122.843 52.7978" stroke="#CCCCCC" stroke-width="1.06575" stroke-linecap="round" stroke-dasharray="2.13 2.84"/>
<path d="M96.7702 71.4547C94.4558 73.0264 89.1318 76.0405 79.0957 82.4543" stroke="#DDDDDC" stroke-width="1.06575" stroke-linecap="round" stroke-dasharray="2.13 2.84"/>
<path d="M94.2353 163.787C91.9209 165.36 83.3837 170.818 73.3475 177.231" stroke="#DDDDDC" stroke-width="0.852603" stroke-linecap="round" stroke-dasharray="1.42 2.13"/>
<path d="M261.727 50.6846C259.412 52.2563 238.837 65.8262 228.801 72.24" stroke="#CCCCCC" stroke-width="0.852603" stroke-linecap="round" stroke-dasharray="1.42 2.13"/>
<path d="M261.25 94.6069C258.937 96.1786 217.717 122.587 207.68 129" stroke="#CCCCCC" stroke-width="0.852603" stroke-linecap="round" stroke-dasharray="1.42 2.13"/>
<path d="M208.451 62.9268C206.137 64.4984 164.917 90.9064 154.881 97.3199" stroke="#CCCCCC" stroke-width="0.852603" stroke-linecap="round" stroke-dasharray="1.42 2.13"/>
<path d="M120.451 92.8469C118.137 94.4186 76.9171 120.827 66.8809 127.24" stroke="#CCCCCC" stroke-width="0.852603" stroke-linecap="round" stroke-dasharray="1.42 2.13"/>
<path d="M172.371 47.0868C170.057 48.6585 128.837 75.0661 118.801 81.4799" stroke="#CCCCCC" stroke-width="0.852603" stroke-linecap="round" stroke-dasharray="1.42 2.13"/>
<path d="M46.5306 22.4468C45.1963 23.353 30.9278 32.5158 17.1602 41.3422" stroke="#CCCCCC" stroke-width="0.852603" stroke-linecap="round" stroke-dasharray="1.42 2.13"/>
<path opacity="0.3" d="M252.56 51.8451V45.8399C252.56 40.4938 248.226 36.1599 242.88 36.1599H231.701M252.56 65.2244V72.5903V72.6554M252.56 75.8251V79.0599M252.56 106.519V110.552M252.56 117.275V123.28C252.56 128.626 248.226 132.96 242.88 132.96H223.268M216.128 132.96H211.246M208.063 132.96H204.956M140.196 132.96H133.539M128.924 132.96H124.486M48.4005 110.552V115.36M48.4005 107.35V102.42M48.4005 73.3562V67.9784M48.4005 51.8451V45.8399C48.4005 40.4938 52.7344 36.1599 58.0805 36.1599H63.4905M67.0411 36.1599H71.9232M126.782 36.1599H129.888M133.944 36.1599H137.939M207.688 36.1599H212.126M227.568 36.1599H228.915" stroke="#3785D7" stroke-width="1.5" stroke-linecap="round"/>
<g opacity="0.85">
<path opacity="0.85" d="M82.1053 151.853L81.2302 146.17" stroke="#DDDDDD" stroke-width="1.25" stroke-linecap="round" stroke-linejoin="round"/>
<path opacity="0.85" d="M88.7741 141.896L83.8154 142.659" stroke="#DDDDDD" stroke-width="1.25" stroke-linecap="round" stroke-linejoin="round"/>
<path opacity="0.85" d="M84.704 146.035L82.9836 144.741" stroke="#DDDDDD" stroke-width="1.25" stroke-linecap="round" stroke-linejoin="round"/>
<path opacity="0.85" d="M86.1949 147.134L85.9861 146.954" stroke="#DDDDDD" stroke-width="1.25" stroke-linecap="round" stroke-linejoin="round"/>
<path opacity="0.85" d="M87.8777 148.373L87.7852 148.284" stroke="#DDDDDD" stroke-width="1.25" stroke-linecap="round" stroke-linejoin="round"/>
<path opacity="0.85" d="M83.7889 138.993L82.3954 140.919" stroke="#DDDDDD" stroke-width="1.25" stroke-linecap="round" stroke-linejoin="round"/>
<path opacity="0.85" d="M85.3172 136.884L84.7998 137.6" stroke="#DDDDDD" stroke-width="1.25" stroke-linecap="round" stroke-linejoin="round"/>
<path opacity="0.85" d="M79.1278 145.334L77.5476 147.537" stroke="#DDDDDD" stroke-width="1.25" stroke-linecap="round" stroke-linejoin="round"/>
<path opacity="0.85" d="M76.3519 149.141L75.6836 150.094" stroke="#DDDDDD" stroke-width="1.25" stroke-linecap="round" stroke-linejoin="round"/>
</g>
<g opacity="0.5">
<path opacity="0.85" d="M247.817 2.79358L244.675 7.60818" stroke="#3785D7" stroke-width="1.25" stroke-linecap="round" stroke-linejoin="round"/>
<path opacity="0.85" d="M236.205 5.75208L240.406 8.49461" stroke="#3785D7" stroke-width="1.25" stroke-linecap="round" stroke-linejoin="round"/>
<path opacity="0.85" d="M241.999 5.38879L242.415 7.50078" stroke="#3785D7" stroke-width="1.25" stroke-linecap="round" stroke-linejoin="round"/>
<path opacity="0.85" d="M241.622 3.5752L241.657 3.84874" stroke="#3785D7" stroke-width="1.25" stroke-linecap="round" stroke-linejoin="round"/>
<path opacity="0.85" d="M241.197 1.5293L241.207 1.6575" stroke="#3785D7" stroke-width="1.25" stroke-linecap="round" stroke-linejoin="round"/>
<path opacity="0.85" d="M237.978 11.2418L240.302 10.7391" stroke="#3785D7" stroke-width="1.25" stroke-linecap="round" stroke-linejoin="round"/>
<path opacity="0.85" d="M235.433 11.7919L236.296 11.6039" stroke="#3785D7" stroke-width="1.25" stroke-linecap="round" stroke-linejoin="round"/>
<path opacity="0.85" d="M245.682 9.6335L248.329 9.04883" stroke="#3785D7" stroke-width="1.25" stroke-linecap="round" stroke-linejoin="round"/>
<path opacity="0.85" d="M250.291 8.65346L251.424 8.39087" stroke="#3785D7" stroke-width="1.25" stroke-linecap="round" stroke-linejoin="round"/>
</g>
</svg>
