<svg width="263" height="159" viewBox="0 0 263 159" fill="none" xmlns="http://www.w3.org/2000/svg">
<g opacity="0.75">
<path fill-rule="evenodd" clip-rule="evenodd" d="M16.6348 17.7879C15.7408 17.2101 14.584 17.9609 14.7478 19.0127L14.7827 19.2366C15.2359 22.1471 14.986 25.0937 14.0905 27.8424C8.59537 33.3958 5.63171 40.7267 6.53371 48.2804L3.05947 49.3703C2.12288 49.6642 1.60175 50.6617 1.89567 51.5983L4.82193 60.9258C5.11576 61.8625 6.11324 62.3835 7.04983 62.0897L11.953 60.5514C14.5493 63.6093 17.9244 66.0962 21.8052 67.8436L24.0656 75.5091C24.3175 76.3636 25.1631 76.8995 26.0434 76.7627L34.3841 75.4664C35.2644 75.3296 35.9074 74.5623 35.8881 73.6716L35.8239 70.7042C37.5147 70.6861 39.2332 70.5465 40.9664 70.2771C43.6337 69.8625 46.1748 69.1657 48.5529 68.2293L49.5324 71.5511C49.7844 72.4056 50.63 72.9415 51.5102 72.8047L59.851 71.5084C60.7312 71.3716 61.3743 70.6042 61.355 69.7136L61.1416 59.8537C61.1389 59.7289 61.1235 59.6076 61.0968 59.4912C65.804 54.0712 68.2329 47.2288 67.3149 40.2091L68.9869 38.4532C70.8154 36.5331 71.4288 33.7581 70.5813 31.2459L69.7225 28.6984C69.4699 27.9498 68.3755 28.0713 68.2932 28.857C68.0881 30.8162 66.9192 32.4654 65.2944 33.3738C60.2081 22.6997 47.0481 16.2689 32.9138 18.4656C28.8789 19.0927 25.1331 20.3656 21.8027 22.1371C20.4428 20.5912 18.8722 19.2343 17.1315 18.109L16.6348 17.7879Z" fill="white"/>
<path d="M14.5437 19.0612L13.8916 19.1628L14.5437 19.0612ZM16.4307 17.8365L16.0724 18.3908L16.4307 17.8365ZM14.5786 19.2851L15.2308 19.1835L14.5786 19.2851ZM13.8865 27.8909L14.3556 28.3552L14.4655 28.244L14.514 28.0954L13.8865 27.8909ZM6.32955 48.329L6.52711 48.9587L7.04992 48.7947L6.98489 48.2507L6.32955 48.329ZM2.8554 49.4189L3.05296 50.0487L2.8554 49.4189ZM1.69151 51.6469L1.06179 51.8445L1.69151 51.6469ZM4.61778 60.9744L5.24759 60.7768L4.61778 60.9744ZM6.84576 62.1383L7.04332 62.768L6.84576 62.1383ZM11.7489 60.6L12.252 60.1728L11.9689 59.8393L11.5513 59.9703L11.7489 60.6ZM21.6012 67.8922L22.2342 67.7054L22.1485 67.4148L21.8721 67.2903L21.6012 67.8922ZM23.8614 75.5577L24.4945 75.371L23.8614 75.5577ZM35.684 73.7202L36.3439 73.706L35.684 73.7202ZM35.6198 70.7528L35.6128 70.0928L34.9455 70.0999L34.9599 70.767L35.6198 70.7528ZM48.3488 68.278L48.9819 68.0912L48.7779 67.3996L48.107 67.6638L48.3488 68.278ZM49.3283 71.5997L48.6953 71.7863L49.3283 71.5997ZM61.1509 69.7622L61.8107 69.7479L61.1509 69.7622ZM60.9375 59.9022L61.5973 59.8879L60.9375 59.9022ZM60.8926 59.5397L60.3944 59.1069L60.1743 59.3604L60.2494 59.6876L60.8926 59.5397ZM67.1108 40.2577L66.6328 39.8026L66.4155 40.0308L66.4563 40.3433L67.1108 40.2577ZM68.7827 38.5017L68.3048 38.0466L68.7827 38.5017ZM70.3772 31.2945L71.0029 31.0835L70.3772 31.2945ZM69.5183 28.7469L70.1431 28.536L69.5183 28.7469ZM68.0891 28.9056L67.4327 28.8369L68.0891 28.9056ZM65.0902 33.4224L64.4945 33.7063L64.7975 34.3422L65.4124 33.9984L65.0902 33.4224ZM21.5986 22.1857L21.1031 22.6215L21.4478 23.0134L21.9085 22.7683L21.5986 22.1857ZM16.9273 18.1575L16.5691 18.7119L16.9273 18.1575ZM15.1959 18.9598C15.1198 18.4712 15.6571 18.1223 16.0724 18.3908L16.789 17.2823C15.4163 16.3949 13.6402 17.5478 13.8916 19.1628L15.1959 18.9598ZM15.2308 19.1835L15.1959 18.9598L13.8916 19.1628L13.9264 19.3866L15.2308 19.1835ZM14.514 28.0954C15.4413 25.249 15.7001 22.1977 15.2308 19.1835L13.9264 19.3866C14.3635 22.1938 14.1226 25.0355 13.2589 27.6865L14.514 28.0954ZM6.98489 48.2507C6.11034 40.9263 8.9795 33.7882 14.3556 28.3552L13.4172 27.4267C7.80294 33.1006 4.74494 40.6242 5.67422 48.4072L6.98489 48.2507ZM3.05296 50.0487L6.52711 48.9587L6.13199 47.6992L2.65784 48.7892L3.05296 50.0487ZM2.32124 51.4494C2.13653 50.8605 2.46415 50.2334 3.05296 50.0487L2.65784 48.7892C1.37339 49.1922 0.658834 50.56 1.06179 51.8445L2.32124 51.4494ZM5.24759 60.7768L2.32124 51.4494L1.06179 51.8445L3.98805 61.1719L5.24759 60.7768ZM6.6482 61.5085C6.05939 61.6933 5.43231 61.3656 5.24759 60.7768L3.98805 61.1719C4.391 62.4564 5.75896 63.171 7.04332 62.768L6.6482 61.5085ZM11.5513 59.9703L6.6482 61.5085L7.04332 62.768L11.9465 61.2298L11.5513 59.9703ZM21.8721 67.2903C18.0738 65.58 14.7801 63.1503 12.252 60.1728L11.2458 61.0272C13.9103 64.1654 17.367 66.7095 21.3302 68.4939L21.8721 67.2903ZM24.4945 75.371L22.2342 67.7054L20.9681 68.0788L23.2284 75.7444L24.4945 75.371ZM25.7379 76.1591C25.1845 76.2452 24.6529 75.9082 24.4945 75.371L23.2284 75.7444C23.5739 76.9161 24.7335 77.6511 25.9406 77.4635L25.7379 76.1591ZM34.0786 74.8628L25.7379 76.1591L25.9406 77.4635L34.2813 76.1671L34.0786 74.8628ZM35.0242 73.7345C35.0363 74.2944 34.632 74.7768 34.0786 74.8628L34.2813 76.1671C35.4885 75.9795 36.3703 74.9273 36.3439 73.706L35.0242 73.7345ZM34.9599 70.767L35.0242 73.7345L36.3439 73.706L36.2796 70.7384L34.9599 70.767ZM40.661 69.6735C38.959 69.9381 37.272 70.0751 35.6128 70.0928L35.6268 71.4127C37.3492 71.3944 39.0993 71.2521 40.8637 70.9779L40.661 69.6735ZM48.107 67.6638C45.7741 68.5824 43.2802 69.2665 40.661 69.6735L40.8637 70.9779C43.5791 70.5558 46.1672 69.8463 48.5907 68.892L48.107 67.6638ZM49.9614 71.4129L48.9819 68.0912L47.7158 68.4646L48.6953 71.7863L49.9614 71.4129ZM51.2048 72.2011C50.6514 72.2871 50.1198 71.9502 49.9614 71.4129L48.6953 71.7863C49.0408 72.958 50.2004 73.693 51.4075 73.5054L51.2048 72.2011ZM59.5455 70.9048L51.2048 72.2011L51.4075 73.5054L59.7482 72.2091L59.5455 70.9048ZM60.491 69.7765C60.5032 70.3364 60.0989 70.8188 59.5455 70.9048L59.7482 72.2091C60.9554 72.0215 61.8371 70.9692 61.8107 69.7479L60.491 69.7765ZM60.2777 59.9165L60.491 69.7765L61.8107 69.7479L61.5973 59.8879L60.2777 59.9165ZM60.2494 59.6876C60.2662 59.7603 60.2759 59.8368 60.2777 59.9165L61.5973 59.8879C61.5937 59.718 61.5727 59.5521 61.5359 59.392L60.2494 59.6876ZM66.4563 40.3433C67.3465 47.1506 64.9955 53.8092 60.3944 59.1069L61.391 59.9725C66.2043 54.4304 68.711 47.4041 67.7652 40.1721L66.4563 40.3433ZM67.5887 40.7128L69.2605 38.9569L68.3048 38.0466L66.6328 39.8026L67.5887 40.7128ZM69.2605 38.9569C71.2581 36.8593 71.9286 33.8279 71.0029 31.0835L69.7524 31.5055C70.5215 33.7855 69.9645 36.304 68.3048 38.0466L69.2605 38.9569ZM71.0029 31.0835L70.1431 28.536L68.8926 28.958L69.7524 31.5055L71.0029 31.0835ZM70.1431 28.536C69.6644 27.1159 67.5887 27.3463 67.4327 28.8369L68.7455 28.9743C68.7479 28.9515 68.7528 28.9402 68.7548 28.9361C68.7569 28.9318 68.7591 28.9291 68.7619 28.9266C68.7683 28.9206 68.7852 28.9099 68.8126 28.9068C68.8399 28.9038 68.8587 28.9105 68.8663 28.915C68.8695 28.9169 68.8722 28.9191 68.8752 28.9228C68.8781 28.9263 68.8853 28.9362 68.8926 28.958L70.1431 28.536ZM67.4327 28.8369C67.2512 30.5713 66.216 32.0368 64.7682 32.8463L65.4124 33.9984C67.2142 32.9911 68.517 31.1584 68.7455 28.9743L67.4327 28.8369ZM32.811 19.1664C46.7106 17.0061 59.5555 23.3413 64.4945 33.7063L65.6861 33.1385C60.4525 22.1552 46.9775 15.6288 32.6084 17.862L32.811 19.1664ZM21.9085 22.7683C25.1736 21.0317 28.8489 19.7822 32.811 19.1664L32.6084 17.862C28.5008 18.5004 24.6844 19.7967 21.2887 21.6029L21.9085 22.7683ZM16.5691 18.7119C18.2587 19.804 19.7831 21.121 21.1031 22.6215L22.0941 21.7497C20.6943 20.1584 19.0776 18.7617 17.2856 17.6033L16.5691 18.7119ZM16.0724 18.3908L16.5691 18.7119L17.2856 17.6033L16.789 17.2823L16.0724 18.3908Z" fill="#4C4C4C"/>
<path d="M5.20035 51.8801L7.40035 58.4801" stroke="#DDDDDD" stroke-width="1.5" stroke-linecap="round"/>
<path d="M48.3205 23.28C51.6821 24.0271 56.6289 27.3105 60.2005 31.7848M61.9605 34.28C61.818 34.0486 61.6712 33.8193 61.5205 33.5922" stroke="#DDDDDD" stroke-width="1.5" stroke-linecap="round"/>
<path d="M13.8286 43.2276C13.7155 42.5001 13.0341 42.002 12.3066 42.1151C11.5792 42.2282 11.0811 42.9096 11.1941 43.6371L11.6036 46.2715C11.7167 46.999 12.3981 47.4971 13.1256 47.3841C13.853 47.271 14.3511 46.5896 14.2381 45.8621L13.8286 43.2276Z" fill="#4C4C4C"/>
<path d="M37.8567 70.5215L46.6383 69.1566L46.7767 70.0477C46.8887 70.7681 46.3955 71.4428 45.6751 71.5547L39.5022 72.5142C38.7818 72.6261 38.1071 72.1329 37.9951 71.4125L37.8567 70.5215Z" fill="#4C4C4C"/>
<path d="M33.8049 25.4359C38.6404 24.9476 42.1647 20.6318 41.6764 15.7963C41.1882 10.9607 36.8724 7.43648 32.0369 7.92471C27.2013 8.41293 23.6771 12.7287 24.1653 17.5643C24.6535 22.3999 28.9693 25.9241 33.8049 25.4359Z" fill="#F7F7F7"/>
<path d="M33.8049 25.4359C38.6404 24.9476 42.1647 20.6318 41.6764 15.7963C41.1882 10.9607 36.8724 7.43648 32.0369 7.92471C27.2013 8.41293 23.6771 12.7287 24.1653 17.5643C24.6535 22.3999 28.9693 25.9241 33.8049 25.4359Z" stroke="#4C4C4C" stroke-width="1.35"/>
<path opacity="0.15" d="M33.6082 23.4901C37.3693 23.1104 40.1103 19.7536 39.7306 15.9926C39.3509 12.2316 35.9941 9.49057 32.2331 9.8703C28.4721 10.25 25.7311 13.6068 26.1108 17.3678C26.4905 21.1288 29.8472 23.8698 33.6082 23.4901Z" stroke="#4C4C4C" stroke-width="0.8"/>
<g opacity="0.4">
<path d="M35.3949 13.6509C33.7218 12.2847 31.2578 12.5334 29.8916 14.2065C28.5254 15.8796 28.7741 18.3435 30.4473 19.7097C32.1204 21.0759 34.5842 20.8272 35.9505 19.1541" stroke="#4C4C4C" stroke-width="1.5" stroke-linecap="round"/>
<path d="M32.4052 11.5729L33.4365 21.7877" stroke="#4C4C4C" stroke-width="1.35" stroke-linecap="round"/>
</g>
<path opacity="0.2" fill-rule="evenodd" clip-rule="evenodd" d="M41.4484 18.8641C40.5581 22.3388 37.5815 25.0546 33.8051 25.4359C30.3837 25.7813 27.2226 24.1181 25.4933 21.4029C27.9415 20.3303 30.6036 19.5432 33.4241 19.1049C36.1635 18.6791 38.8603 18.6121 41.4484 18.8641Z" fill="#4C4C4C"/>
<path d="M33.4237 21.7449C30.3478 22.2229 27.4605 23.1157 24.8334 24.3411L25.88 29.8801L43.04 27.2401L42.3967 21.6114C39.5217 21.2411 36.4995 21.2668 33.4237 21.7449Z" fill="white"/>
<path d="M24.8334 24.3411C27.4605 23.1157 30.3478 22.2229 33.4237 21.7449C36.4995 21.2668 39.5217 21.2411 42.3966 21.6114" stroke="#4C4C4C" stroke-width="1.5" stroke-linecap="round"/>
</g>
<g opacity="0.8">
<path fill-rule="evenodd" clip-rule="evenodd" d="M239.961 91.3559C240.846 90.5666 242.247 91.1949 242.247 92.3811V92.6328C242.246 95.9134 243.025 99.1131 244.48 101.985C251.476 107.155 255.992 114.716 256.291 123.181L260.3 123.787C261.381 123.949 262.125 124.958 261.962 126.039L260.337 136.804C260.174 137.884 259.166 138.628 258.084 138.465L252.426 137.611C250.092 141.42 246.804 144.733 242.832 147.32L241.656 156.142C241.525 157.125 240.686 157.859 239.694 157.859H230.294C229.302 157.859 228.464 157.125 228.332 156.142L227.895 152.865C226.032 153.135 224.117 153.274 222.164 153.274C219.158 153.274 216.243 152.943 213.466 152.319L212.956 156.142C212.825 157.125 211.986 157.859 210.994 157.859H201.595C200.602 157.859 199.763 157.125 199.632 156.142L198.181 145.256C198.163 145.118 198.159 144.981 198.169 144.849C192.062 139.69 188.219 132.576 188.028 124.695L185.888 123.048C183.548 121.249 182.397 118.3 182.901 115.39L183.411 112.441C183.561 111.574 184.786 111.52 185.01 112.37C185.571 114.491 187.14 116.106 189.083 116.828C192.854 104.213 206.235 94.8856 222.164 94.8856C226.711 94.8856 231.051 95.6459 235.018 97.0249C236.25 95.0915 237.747 93.3298 239.47 91.7942L239.961 91.3559Z" fill="white"/>
<path d="M242.247 92.3811L241.587 92.3803L242.247 92.3811ZM239.961 91.3559L239.521 90.8631L239.961 91.3559ZM242.247 92.6328H242.907H242.247ZM244.48 101.985L244.088 102.515L243.962 102.422L243.891 102.283L244.48 101.985ZM256.291 123.181L256.192 123.834L255.65 123.752L255.631 123.205L256.291 123.181ZM260.3 123.787L260.399 123.134L260.3 123.787ZM261.961 126.039L261.309 125.941L261.961 126.039ZM260.337 136.804L259.684 136.705L260.337 136.804ZM258.084 138.465L258.183 137.812L258.084 138.465ZM252.426 137.611L251.863 137.266L252.092 136.893L252.524 136.958L252.426 137.611ZM242.832 147.32L242.177 147.232L242.218 146.932L242.472 146.767L242.832 147.32ZM241.655 156.142L242.31 156.229L241.655 156.142ZM228.332 156.142L227.677 156.229L228.332 156.142ZM227.895 152.865L227.801 152.212L228.462 152.116L228.55 152.778L227.895 152.865ZM213.465 152.319L212.811 152.232L212.907 151.517L213.61 151.675L213.465 152.319ZM212.956 156.142L212.301 156.054L212.956 156.142ZM199.632 156.142L198.978 156.229L199.632 156.142ZM198.181 145.256L197.526 145.343L198.181 145.256ZM198.168 144.849L198.594 144.345L198.85 144.562L198.827 144.896L198.168 144.849ZM188.028 124.695L188.43 124.172L188.68 124.364L188.688 124.679L188.028 124.695ZM185.888 123.048L186.29 122.526L185.888 123.048ZM182.9 115.391L182.25 115.278L182.9 115.391ZM183.411 112.441L184.061 112.552L183.411 112.441ZM185.01 112.37L184.372 112.539L185.01 112.37ZM189.082 116.828L189.715 117.017L189.513 117.692L188.853 117.446L189.082 116.828ZM235.018 97.0249L235.575 97.3795L235.294 97.8204L234.801 97.6488L235.018 97.0249ZM239.469 91.7942L239.03 91.3014L239.469 91.7942ZM241.587 92.3803C241.587 91.7651 240.859 91.4387 240.4 91.8487L239.521 90.8631C240.832 89.6954 242.907 90.6255 242.907 92.3811L241.587 92.3803ZM241.587 92.6328V92.3803L242.907 92.3811V92.6328H241.587ZM243.891 102.283C242.389 99.3199 241.586 96.0182 241.587 92.6328H242.907C242.906 95.8087 243.659 98.9063 245.069 101.686L243.891 102.283ZM255.631 123.205C255.339 114.969 250.948 107.586 244.088 102.515L244.873 101.453C252.005 106.725 256.643 114.461 256.95 123.158L255.631 123.205ZM260.201 124.44L256.192 123.834L256.389 122.529L260.399 123.134L260.201 124.44ZM261.309 125.941C261.418 125.22 260.922 124.548 260.201 124.44L260.399 123.134C261.84 123.352 262.832 124.696 262.614 126.138L261.309 125.941ZM259.684 136.705L261.309 125.941L262.614 126.138L260.99 136.902L259.684 136.705ZM258.183 137.812C258.903 137.921 259.576 137.426 259.684 136.705L260.99 136.902C260.772 138.344 259.427 139.335 257.986 139.118L258.183 137.812ZM252.524 136.958L258.183 137.812L257.986 139.118L252.327 138.263L252.524 136.958ZM242.472 146.767C246.368 144.23 249.584 140.985 251.863 137.266L252.989 137.955C250.6 141.855 247.239 145.237 243.192 147.873L242.472 146.767ZM241.002 156.054L242.177 147.232L243.486 147.408L242.31 156.229L241.002 156.054ZM239.694 157.199C240.355 157.199 240.914 156.71 241.002 156.054L242.31 156.229C242.135 157.54 241.017 158.519 239.694 158.519V157.199ZM230.294 157.199H239.694V158.519H230.294V157.199ZM228.986 156.054C229.074 156.71 229.633 157.199 230.294 157.199V158.519C228.971 158.519 227.853 157.54 227.677 156.229L228.986 156.054ZM228.55 152.778L228.986 156.054L227.677 156.229L227.241 152.952L228.55 152.778ZM222.163 152.614C224.085 152.614 225.969 152.477 227.801 152.212L227.99 153.518C226.095 153.792 224.149 153.934 222.163 153.934V152.614ZM213.61 151.675C216.34 152.288 219.207 152.614 222.163 152.614V153.934C219.109 153.934 216.145 153.597 213.32 152.963L213.61 151.675ZM212.301 156.054L212.811 152.232L214.119 152.406L213.61 156.229L212.301 156.054ZM210.994 157.199C211.655 157.199 212.214 156.71 212.301 156.054L213.61 156.229C213.435 157.54 212.316 158.519 210.994 158.519V157.199ZM201.594 157.199H210.994V158.519H201.594V157.199ZM200.287 156.054C200.374 156.71 200.933 157.199 201.594 157.199V158.519C200.272 158.519 199.153 157.54 198.978 156.229L200.287 156.054ZM198.835 145.168L200.287 156.054L198.978 156.229L197.526 145.343L198.835 145.168ZM198.827 144.896C198.82 144.984 198.822 145.076 198.835 145.168L197.526 145.343C197.502 145.16 197.497 144.979 197.509 144.802L198.827 144.896ZM188.688 124.679C188.873 132.346 192.611 139.29 198.594 144.345L197.743 145.353C191.512 140.089 187.564 132.806 187.368 124.711L188.688 124.679ZM187.626 125.218L185.486 123.572L186.29 122.526L188.43 124.172L187.626 125.218ZM185.486 123.572C182.951 121.622 181.705 118.429 182.25 115.278L183.551 115.503C183.09 118.171 184.145 120.875 186.29 122.526L185.486 123.572ZM182.25 115.278L182.761 112.328L184.061 112.552L183.551 115.503L182.25 115.278ZM182.761 112.328C183.031 110.763 185.242 110.666 185.648 112.202L184.372 112.539C184.356 112.479 184.332 112.457 184.315 112.447C184.293 112.431 184.257 112.419 184.211 112.42C184.166 112.423 184.13 112.439 184.109 112.456C184.094 112.468 184.072 112.492 184.061 112.552L182.761 112.328ZM185.648 112.202C186.151 114.104 187.559 115.558 189.312 116.209L188.853 117.446C186.72 116.654 184.99 114.878 184.372 112.539L185.648 112.202ZM222.163 95.5456C206.472 95.5456 193.388 104.729 189.715 117.017L188.45 116.639C192.319 103.695 205.997 94.2256 222.163 94.2256V95.5456ZM234.801 97.6488C230.904 96.2936 226.637 95.5456 222.163 95.5456V94.2256C226.784 94.2256 231.198 94.9983 235.235 96.4019L234.801 97.6488ZM239.909 92.287C238.23 93.7821 236.774 95.4972 235.575 97.3795L234.461 96.6703C235.726 94.6859 237.262 92.8775 239.03 91.3014L239.909 92.287ZM240.4 91.8487L239.909 92.287L239.03 91.3014L239.521 90.8631L240.4 91.8487Z" fill="#4C4C4C"/>
<path d="M232.06 99.9686C228.959 99.0692 225.629 98.5808 222.163 98.5808C218.697 98.5808 215.367 99.0692 212.267 99.9686" stroke="#4C4C4C" stroke-width="1.5" stroke-linecap="round"/>
<path d="M191.32 124.04C191.32 129.056 193.067 133.735 196.084 137.68M227.4 149.187C225.684 149.432 223.921 149.56 222.12 149.56C217.74 149.56 213.573 148.802 209.8 147.437M242.8 142.952C243.734 142.251 244.616 141.503 245.44 140.712" stroke="#DDDDDD" stroke-width="1.5" stroke-linecap="round"/>
<path d="M248.885 117.385H248.885C249.705 117.385 250.369 118.049 250.369 118.869V121.838C250.369 122.658 249.705 123.322 248.885 123.322H248.885C248.065 123.322 247.4 122.658 247.4 121.838V118.869C247.4 118.049 248.065 117.385 248.885 117.385Z" fill="#4C4C4C"/>
<path d="M225.627 153.011H215.731V154.166C215.731 154.895 216.322 155.486 217.051 155.486H224.307C225.037 155.486 225.627 154.895 225.627 154.166V153.011Z" fill="#4C4C4C"/>
</g>
<path opacity="0.1" fill-rule="evenodd" clip-rule="evenodd" d="M69.1822 38.24H39.96C35.0999 38.24 31.16 42.1799 31.16 47.04V75.9675L34.3843 75.4664C35.2646 75.3296 35.9076 74.5623 35.8883 73.6716L35.8241 70.7042C37.5149 70.6861 39.2335 70.5465 40.9666 70.2771C43.634 69.8625 46.175 69.1657 48.5532 68.2293L49.5326 71.5511C49.7846 72.4056 50.6302 72.9415 51.5104 72.8047L59.8512 71.5084C60.7314 71.3716 61.3745 70.6042 61.3552 69.7135L61.1419 59.8537C61.1391 59.7289 61.1237 59.6076 61.097 59.4912C65.8043 54.0712 68.2331 47.2287 67.3152 40.2091L68.9871 38.4532C69.0537 38.3833 69.1188 38.3122 69.1822 38.24Z" fill="#4C4C4C"/>
<path opacity="0.1" fill-rule="evenodd" clip-rule="evenodd" d="M231.8 96.0648V127.12C231.8 131.98 227.861 135.92 223 135.92H190.945C189.157 132.477 188.124 128.685 188.028 124.695L185.888 123.048C183.548 121.249 182.398 118.3 182.9 115.391L183.411 112.441C183.56 111.574 184.785 111.52 185.01 112.37C185.571 114.491 187.139 116.106 189.082 116.828C192.854 104.213 206.235 94.8856 222.163 94.8856C225.51 94.8856 228.744 95.2975 231.8 96.0648Z" fill="#4C4C4C"/>
<path opacity="0.3" d="M187.096 35.1599H189.774M195.544 35.1599H223.88C229.226 35.1599 233.56 39.4938 233.56 44.8399V57.4044M233.56 61.0547V62.9125M233.56 88.0655V91.6506M63.0547 131.96H47.5973M29.4004 107.36V109.52M29.4004 102.879V97.5018M29.4004 62.1303V59.4414M29.4004 55.7747V44.8399C29.4004 39.4938 33.7343 35.1599 39.0804 35.1599H47.5973M134.56 35.1599H137.238M118.72 35.1599H130.198M68.1778 131.96H65.9204M179.214 131.96H176.8M182.578 131.96H182.08" stroke="#3785D7" stroke-width="1.5" stroke-linecap="round"/>
<g opacity="0.5">
<path opacity="0.85" d="M50.8111 9.12256H45.0613" stroke="#3785D7" stroke-width="1.25" stroke-linecap="round" stroke-linejoin="round"/>
<path opacity="0.85" d="M41.9854 1.01587V6.03285" stroke="#3785D7" stroke-width="1.25" stroke-linecap="round" stroke-linejoin="round"/>
<path opacity="0.85" d="M45.4571 5.66882L43.9163 7.17213" stroke="#3785D7" stroke-width="1.25" stroke-linecap="round" stroke-linejoin="round"/>
<path opacity="0.85" d="M46.7695 4.3623L46.5596 4.54127" stroke="#3785D7" stroke-width="1.25" stroke-linecap="round" stroke-linejoin="round"/>
<path opacity="0.85" d="M48.2507 2.88818L48.1484 2.96611" stroke="#3785D7" stroke-width="1.25" stroke-linecap="round" stroke-linejoin="round"/>
<path opacity="0.85" d="M38.3583 5.50171L40.0491 7.17204" stroke="#3785D7" stroke-width="1.25" stroke-linecap="round" stroke-linejoin="round"/>
<path opacity="0.85" d="M36.5059 3.67053L37.1353 4.29094" stroke="#3785D7" stroke-width="1.25" stroke-linecap="round" stroke-linejoin="round"/>
<path opacity="0.85" d="M43.9163 11.0734L45.8529 12.9704" stroke="#3785D7" stroke-width="1.25" stroke-linecap="round" stroke-linejoin="round"/>
<path opacity="0.85" d="M47.2559 14.3962L48.0952 15.2016" stroke="#3785D7" stroke-width="1.25" stroke-linecap="round" stroke-linejoin="round"/>
</g>
<g opacity="0.85">
<path opacity="0.85" d="M135.946 140.855H141.696" stroke="#DDDDDD" stroke-width="1.25" stroke-linecap="round" stroke-linejoin="round"/>
<path opacity="0.85" d="M144.771 148.962V143.945" stroke="#DDDDDD" stroke-width="1.25" stroke-linecap="round" stroke-linejoin="round"/>
<path opacity="0.85" d="M141.3 144.309L142.841 142.805" stroke="#DDDDDD" stroke-width="1.25" stroke-linecap="round" stroke-linejoin="round"/>
<path opacity="0.85" d="M139.987 145.615L140.198 145.436" stroke="#DDDDDD" stroke-width="1.25" stroke-linecap="round" stroke-linejoin="round"/>
<path opacity="0.85" d="M138.506 147.089L138.609 147.011" stroke="#DDDDDD" stroke-width="1.25" stroke-linecap="round" stroke-linejoin="round"/>
<path opacity="0.85" d="M148.399 144.476L146.709 142.805" stroke="#DDDDDD" stroke-width="1.25" stroke-linecap="round" stroke-linejoin="round"/>
<path opacity="0.85" d="M150.251 146.307L149.622 145.686" stroke="#DDDDDD" stroke-width="1.25" stroke-linecap="round" stroke-linejoin="round"/>
<path opacity="0.85" d="M142.841 138.904L140.904 137.007" stroke="#DDDDDD" stroke-width="1.25" stroke-linecap="round" stroke-linejoin="round"/>
<path opacity="0.85" d="M139.502 135.581L138.663 134.776" stroke="#DDDDDD" stroke-width="1.25" stroke-linecap="round" stroke-linejoin="round"/>
</g>
<g opacity="0.85">
<path opacity="0.85" d="M78.0644 141.217L73.909 142.33" stroke="#DDDDDD" stroke-width="0.935145" stroke-linecap="round" stroke-linejoin="round"/>
<path opacity="0.85" d="M70.1171 137.068L71.0886 140.692" stroke="#DDDDDD" stroke-width="0.935145" stroke-linecap="round" stroke-linejoin="round"/>
<path opacity="0.85" d="M73.5262 139.758L72.7043 141.142" stroke="#DDDDDD" stroke-width="0.935145" stroke-linecap="round" stroke-linejoin="round"/>
<path opacity="0.85" d="M74.2223 138.559L74.1052 138.729" stroke="#DDDDDD" stroke-width="0.935145" stroke-linecap="round" stroke-linejoin="round"/>
<path opacity="0.85" d="M75.0072 137.207L74.9483 137.283" stroke="#DDDDDD" stroke-width="0.935145" stroke-linecap="round" stroke-linejoin="round"/>
<path opacity="0.85" d="M68.3643 141.011L69.9097 141.891" stroke="#DDDDDD" stroke-width="0.935145" stroke-linecap="round" stroke-linejoin="round"/>
<path opacity="0.85" d="M66.6709 140.046L67.2459 140.373" stroke="#DDDDDD" stroke-width="0.935145" stroke-linecap="round" stroke-linejoin="round"/>
<path opacity="0.85" d="M73.459 143.961L75.226 144.957" stroke="#DDDDDD" stroke-width="0.935145" stroke-linecap="round" stroke-linejoin="round"/>
<path opacity="0.85" d="M76.5156 145.716L77.2785 146.135" stroke="#DDDDDD" stroke-width="0.935145" stroke-linecap="round" stroke-linejoin="round"/>
</g>
</svg>
