<svg width="169" height="170" viewBox="0 0 169 170" fill="none" xmlns="http://www.w3.org/2000/svg">
<g opacity="0.8">
<path fill-rule="evenodd" clip-rule="evenodd" d="M68.22 2.89465C113.538 -6.01564 157.498 23.5003 166.409 68.8184C175.318 114.135 145.803 158.095 100.486 167.005C55.167 175.914 11.2069 146.4 2.29772 101.083C-6.61255 55.7637 22.9035 11.805 68.22 2.89465Z" fill="#F9F9F9"/>
<path fill-rule="evenodd" clip-rule="evenodd" d="M127.133 42.4489C126.083 42.6558 124.955 42.4617 123.997 41.8175C122.078 40.53 121.569 37.9337 122.856 36.0159L126.152 31.1062C127.439 29.1884 130.036 28.6782 131.954 29.9656C133.871 31.2541 134.382 33.8505 133.094 35.7683L129.798 40.6769C129.155 41.6363 128.183 42.243 127.133 42.4489ZM87.5893 25.2354C85.4694 25.4434 84.6096 28.0719 86.1945 29.4933L92.4354 35.0944C93.5425 36.0892 93.7123 37.7637 92.827 38.9589L91.7772 40.3729C91.1427 41.2283 90.0911 41.6646 89.0395 41.5091L84.7354 40.8735C83.9795 40.7609 83.2086 40.955 82.5944 41.4106L61.228 58.6759L58.9435 67.5497C58.529 69.1609 57.2275 70.3091 55.6963 70.6091C55.1041 70.7271 54.4766 70.7163 53.851 70.5566C51.614 69.981 50.2694 67.6998 50.844 65.4625L51.5823 62.5918L49.8118 62.3303C45.0923 61.6313 40.6703 64.9234 39.9857 69.6444C39.712 71.5235 40.7786 73.3385 42.5518 74.0148L62.8041 81.7406C62.8041 81.7406 71.6419 85.3193 73.5418 87.5959L80.8203 97.3973C81.732 98.6258 83.0942 99.4415 84.6078 99.6642L85.8935 99.8543C88.1639 100.19 90.2064 101.413 91.5757 103.255L92.6502 104.702C94.4612 107.142 94.859 110.354 93.6991 113.162L90.9306 119.868C90.2926 121.411 88.6875 122.321 87.0366 122.077L85.245 121.812C83.6953 121.584 82.1746 122.371 81.468 123.767L78.5059 130.475C77.6655 132.378 76.1678 133.915 74.2872 134.803L67.8016 137.867L66.2194 148.576C65.9316 150.527 64.095 151.861 62.1511 151.53L62.1282 151.528C60.7616 151.296 59.659 150.283 59.3105 148.941L56.6687 138.755C55.6998 135.016 55.4904 131.121 56.0554 127.3L57.4713 117.709C57.8074 115.444 57.0568 113.156 55.4455 111.529L47.7693 103.779C46.158 102.152 45.4056 99.8622 45.7409 97.5988L46.803 90.4031L49.2697 85.5305L36.0926 80.5024C30.7052 78.4475 26.7566 73.7618 25.6434 68.1029L24.3164 61.3505L23.3352 61.2068C20.2386 60.7491 17.7827 58.3607 17.2371 55.2777L14.2891 39.3823C21.1766 28.8019 30.3268 20.047 40.9308 13.5916L44.391 18.1485C45.3414 19.4263 47.1462 19.6933 48.4266 18.7435L50.5316 17.1805C52.9877 15.3571 56.0677 14.5831 59.094 15.0302L59.5674 15.1009C61.2122 15.3432 62.3394 16.8825 62.0772 18.5226L61.6882 20.956C61.3591 23.0057 63.5046 24.5547 65.3473 23.5995L75.4435 18.3629C76.3376 17.8988 77.3558 17.7283 78.3519 17.8763L97.5324 20.7095L97.0018 24.307L87.5893 25.2354ZM166.336 101.448C162.777 119.13 153.837 134.323 141.623 145.8C138.89 144.598 135.901 142.135 135.223 139.561L132.294 128.475C131.496 125.454 131.321 122.303 131.777 119.212L133.192 109.632C133.891 104.905 130.625 100.507 125.898 99.8094L125.685 99.7777C122.12 99.2497 118.822 97.5821 116.286 95.0213L115.907 94.6376C112.218 90.9135 110.497 85.6695 111.264 80.4818C111.573 78.386 112.28 76.3686 113.345 74.5366L116.599 68.9505C118.379 65.8932 121.84 64.2262 125.34 64.744L131.921 65.7163C135.023 66.1752 137.943 67.469 140.367 69.4576L145.572 73.7272C148.069 75.7768 151.525 76.2035 154.447 74.8227L156.696 73.7616C158.239 73.0315 159.966 72.7753 161.655 73.0251L167.157 73.7262C168.376 82.7215 168.228 92.0478 166.336 101.448ZM164.705 61.9476L140.045 56.3959L137.438 59.0136C136.209 60.9057 133.99 61.908 131.758 61.5778L126.862 60.8542C123.711 60.389 121.535 57.4571 121.999 54.3055L122.146 53.7963C122.529 51.2043 123.468 49.4205 126.072 49.1311L132.076 48.4643C133.284 48.251 134.426 47.7578 135.412 47.0257C137.095 45.7757 138.214 43.9073 138.52 41.8319L139.416 35.772C139.557 34.8169 140.072 33.9593 140.844 33.3836L146.795 29.4602C155.073 38.7896 161.236 49.8686 164.705 61.9476Z" fill="#E8E8E8"/>
<path fill-rule="evenodd" clip-rule="evenodd" d="M127.133 42.4489C126.083 42.6557 124.955 42.4617 123.997 41.8175C122.078 40.53 121.569 37.9337 122.856 36.0159L126.152 31.1062C127.439 29.1884 130.036 28.6782 131.954 29.9656C133.871 31.2541 134.382 33.8505 133.094 35.7683L129.798 40.6769C129.155 41.6363 128.183 42.243 127.133 42.4489ZM87.5893 25.2354C85.4694 25.4434 84.6096 28.0719 86.1945 29.4933L92.4354 35.0944C93.5425 36.0892 93.7123 37.7637 92.827 38.9589L91.7772 40.3729C91.1427 41.2283 90.0911 41.6646 89.0395 41.5091L84.7354 40.8735C83.9795 40.7609 83.2086 40.955 82.5944 41.4106L61.228 58.6759L58.9435 67.5497C58.529 69.1609 57.2275 70.309 55.6963 70.6091C55.1041 70.727 54.4766 70.7163 53.851 70.5566C51.614 69.981 50.2694 67.6998 50.844 65.4625L51.5823 62.5918L49.8118 62.3303C45.0923 61.6313 40.6703 64.9234 39.9857 69.6444C39.712 71.5235 40.7786 73.3385 42.5518 74.0148L62.8041 81.7406C62.8041 81.7406 71.6419 85.3193 73.5418 87.5959L80.8203 97.3973C81.732 98.6258 83.0942 99.4415 84.6078 99.6642L85.8935 99.8543C88.1639 100.19 90.2064 101.413 91.5757 103.255L92.6502 104.702C94.4612 107.142 94.859 110.354 93.6991 113.162L90.9306 119.868C90.2926 121.411 88.6875 122.321 87.0366 122.077L85.245 121.812C83.6953 121.584 82.1746 122.371 81.468 123.767L78.5059 130.475C77.6655 132.378 76.1678 133.915 74.2872 134.803L67.8016 137.867L66.2194 148.576C65.9316 150.527 64.095 151.861 62.1511 151.53L62.1282 151.528C60.7616 151.296 59.659 150.284 59.3105 148.941L56.6687 138.755C55.6998 135.016 55.4904 131.121 56.0554 127.3L57.4713 117.709C57.8074 115.444 57.0568 113.156 55.4455 111.529L47.7693 103.779C46.158 102.152 45.4056 99.8622 45.7409 97.5988L46.803 90.4031L49.2697 85.5305L36.0926 80.5024C30.7052 78.4475 26.7566 73.7618 25.6434 68.1029L24.3164 61.3505L23.3352 61.2068C20.2386 60.7491 17.7827 58.3607 17.2371 55.2777L14.2891 39.3823C21.1766 28.8019 30.3268 20.047 40.9308 13.5916L44.391 18.1485C45.3414 19.4263 47.1462 19.6933 48.4266 18.7435L50.5316 17.1805C52.9877 15.3571 56.0677 14.5831 59.094 15.0302L59.5674 15.1009C61.2122 15.3432 62.3394 16.8825 62.0772 18.5226L61.6882 20.956C61.3591 23.0057 63.5046 24.5547 65.3473 23.5995L75.4435 18.3629C76.3376 17.8988 77.3558 17.7283 78.3519 17.8763L97.5324 20.7095L97.0018 24.307L87.5893 25.2354ZM166.336 101.448C162.777 119.13 153.837 134.323 141.623 145.8C138.89 144.598 135.901 142.135 135.223 139.561L132.294 128.475C131.496 125.454 131.321 122.303 131.778 119.212L133.192 109.632C133.891 104.905 130.625 100.507 125.898 99.8094L125.685 99.7777C122.12 99.2497 118.822 97.5821 116.286 95.0213L115.907 94.6376C112.218 90.9135 110.497 85.6687 111.264 80.4818C111.573 78.386 112.28 76.3686 113.345 74.5366L116.599 68.9505C118.379 65.8932 121.84 64.2262 125.34 64.744L131.921 65.7163C135.023 66.1752 137.943 67.469 140.367 69.4576L145.572 73.7272C148.069 75.7768 151.525 76.2035 154.447 74.8228L156.696 73.7616C158.239 73.0315 159.966 72.7753 161.655 73.0251L167.157 73.7262C168.376 82.7215 168.228 92.0478 166.336 101.448ZM164.705 61.9476L140.045 56.3959L137.438 59.0136C136.209 60.9057 133.99 61.908 131.758 61.5778L126.862 60.8542C123.711 60.389 121.535 57.4571 121.999 54.3055L122.146 53.7963C122.529 51.2043 123.468 49.4205 126.072 49.1311L132.076 48.4643C133.284 48.251 134.426 47.7578 135.412 47.0257C137.095 45.7757 138.214 43.9073 138.52 41.8319L139.416 35.772C139.557 34.8169 140.072 33.9593 140.844 33.3836L146.795 29.4602C155.073 38.7896 161.236 49.8686 164.705 61.9476Z" stroke="#D5D5D5" stroke-width="1.5"/>
<path d="M68.3898 3.06678C113.708 -5.84355 157.668 23.6724 166.578 68.9904C175.488 114.307 145.972 158.267 100.656 167.178C55.3368 176.087 11.3767 146.572 2.46746 101.255C-6.44289 55.9358 23.0734 11.977 68.3898 3.06678Z" stroke="#4C4C4C" stroke-width="1.5"/>
</g>
</svg>
