<svg width="37" height="41" viewBox="0 0 37 41" fill="none" xmlns="http://www.w3.org/2000/svg">
<path d="M35.7676 24.8001L13.2206 0.39814C13.0466 0.204187 12.8154 0.0706928 12.5604 0.0170205C12.3055 -0.0366518 12.0401 -0.00770986 11.8027 0.099647L1.39803 4.80093C1.15802 4.90571 0.957476 5.08398 0.825282 5.31005C0.693087 5.53612 0.636064 5.79832 0.662453 6.05888L4.03118 39.1065C4.05226 39.3021 4.12053 39.4897 4.23009 39.6531C4.33965 39.8165 4.48721 39.9509 4.66015 40.0446C4.82812 40.1444 5.01805 40.2015 5.21322 40.2108C5.40838 40.2201 5.60283 40.1813 5.77952 40.0979L13.0713 36.8145C13.3092 36.7048 13.5069 36.5236 13.6368 36.2962C13.7668 36.0688 13.8225 35.8065 13.7962 35.5459L13.2632 30.5887C13.2545 30.4968 13.2744 30.4045 13.3202 30.3243C13.366 30.2442 13.4355 30.1801 13.5191 30.141L22.0475 26.3032C22.1319 26.2676 22.2252 26.2587 22.3148 26.2778C22.4044 26.2968 22.486 26.3429 22.5485 26.4098L25.9599 30.077C26.1387 30.2673 26.3723 30.3973 26.6282 30.4489C26.8842 30.5004 27.1499 30.4711 27.3884 30.3649L35.3731 26.7616C35.5532 26.6818 35.7116 26.5602 35.8352 26.4068C35.9587 26.2534 36.0439 26.0727 36.0835 25.8798C36.1231 25.6869 36.1161 25.4873 36.063 25.2976C36.0099 25.108 35.9123 24.9337 35.7782 24.7894L35.7676 24.8001ZM12.3144 21.5166L11.0778 13.2441L16.4081 19.6404C16.4565 19.6903 16.4917 19.7516 16.5103 19.8187C16.5289 19.8857 16.5304 19.9564 16.5147 20.0242C16.4955 20.0892 16.4628 20.1494 16.4187 20.2008C16.3746 20.2523 16.3201 20.2938 16.2588 20.3227L12.9114 21.8365C12.8478 21.8653 12.7787 21.8802 12.7089 21.8802C12.639 21.8802 12.5699 21.8653 12.5063 21.8365C12.4448 21.8054 12.3914 21.7603 12.3507 21.7047C12.3099 21.6491 12.2829 21.5847 12.2718 21.5166H12.3144Z" fill="#FFA100"/>
<path d="M17.0157 19.1393L10.8326 11.7409L10.0544 12.0927L11.4722 21.6872C11.4967 21.879 11.5678 22.0619 11.6793 22.2199C11.7908 22.3778 11.9393 22.5061 12.1119 22.5934C12.2781 22.6736 12.4603 22.7153 12.6449 22.7153C12.8295 22.7153 13.0117 22.6736 13.1779 22.5934L16.5147 21.0902C16.6901 21.0124 16.845 20.8948 16.9671 20.7468C17.0892 20.5988 17.1752 20.4244 17.2183 20.2374C17.2722 20.0512 17.2819 19.855 17.2467 19.6644C17.2116 19.4738 17.1325 19.294 17.0157 19.1393ZM16.4933 20.0455C16.4742 20.1105 16.4415 20.1707 16.3974 20.2221C16.3533 20.2736 16.2988 20.3151 16.2375 20.344L12.8901 21.8578C12.8264 21.8866 12.7574 21.9016 12.6876 21.9016C12.6177 21.9016 12.5486 21.8866 12.485 21.8578C12.4261 21.8232 12.3762 21.7753 12.3391 21.7179C12.3021 21.6605 12.279 21.5952 12.2718 21.5273L11.0352 13.2547L16.3654 19.651C16.4194 19.6998 16.4596 19.762 16.4821 19.8312C16.5045 19.9004 16.5084 19.9743 16.4933 20.0455ZM17.0157 19.1393L10.8326 11.7409L10.0544 12.0927L11.4722 21.6872C11.4967 21.879 11.5678 22.0619 11.6793 22.2199C11.7908 22.3778 11.9393 22.5061 12.1119 22.5934C12.2781 22.6736 12.4603 22.7153 12.6449 22.7153C12.8295 22.7153 13.0117 22.6736 13.1779 22.5934L16.5147 21.0902C16.6901 21.0124 16.845 20.8948 16.9671 20.7468C17.0892 20.5988 17.1752 20.4244 17.2183 20.2374C17.2722 20.0512 17.2819 19.855 17.2467 19.6644C17.2116 19.4738 17.1325 19.294 17.0157 19.1393ZM16.4933 20.0455C16.4742 20.1105 16.4415 20.1707 16.3974 20.2221C16.3533 20.2736 16.2988 20.3151 16.2375 20.344L12.8901 21.8578C12.8264 21.8866 12.7574 21.9016 12.6876 21.9016C12.6177 21.9016 12.5486 21.8866 12.485 21.8578C12.4261 21.8232 12.3762 21.7753 12.3391 21.7179C12.3021 21.6605 12.279 21.5952 12.2718 21.5273L11.0352 13.2547L16.3654 19.651C16.4194 19.6998 16.4596 19.762 16.4821 19.8312C16.5045 19.9004 16.5084 19.9743 16.4933 20.0455ZM17.0157 19.1393L10.8326 11.7409L10.0544 12.0927L11.4722 21.6872C11.4967 21.879 11.5678 22.0619 11.6793 22.2199C11.7908 22.3778 11.9393 22.5061 12.1119 22.5934C12.2781 22.6736 12.4603 22.7153 12.6449 22.7153C12.8295 22.7153 13.0117 22.6736 13.1779 22.5934L16.5147 21.0902C16.6901 21.0124 16.845 20.8948 16.9671 20.7468C17.0892 20.5988 17.1752 20.4244 17.2183 20.2374C17.2722 20.0512 17.2819 19.855 17.2467 19.6644C17.2116 19.4738 17.1325 19.294 17.0157 19.1393ZM16.4933 20.0455C16.4742 20.1105 16.4415 20.1707 16.3974 20.2221C16.3533 20.2736 16.2988 20.3151 16.2375 20.344L12.8901 21.8578C12.8264 21.8866 12.7574 21.9016 12.6876 21.9016C12.6177 21.9016 12.5486 21.8866 12.485 21.8578C12.4261 21.8232 12.3762 21.7753 12.3391 21.7179C12.3021 21.6605 12.279 21.5952 12.2718 21.5273L11.0352 13.2547L16.3654 19.651C16.4194 19.6998 16.4596 19.762 16.4821 19.8312C16.5045 19.9004 16.5084 19.9743 16.4933 20.0455ZM17.0157 19.1393L10.8326 11.7409L10.0544 12.0927L11.4722 21.6872C11.4967 21.879 11.5678 22.0619 11.6793 22.2199C11.7908 22.3778 11.9393 22.5061 12.1119 22.5934C12.2781 22.6736 12.4603 22.7153 12.6449 22.7153C12.8295 22.7153 13.0117 22.6736 13.1779 22.5934L16.5147 21.0902C16.6901 21.0124 16.845 20.8948 16.9671 20.7468C17.0892 20.5988 17.1752 20.4244 17.2183 20.2374C17.2722 20.0512 17.2819 19.855 17.2467 19.6644C17.2116 19.4738 17.1325 19.294 17.0157 19.1393ZM16.4933 20.0455C16.4742 20.1105 16.4415 20.1707 16.3974 20.2221C16.3533 20.2736 16.2988 20.3151 16.2375 20.344L12.8901 21.8578C12.8264 21.8866 12.7574 21.9016 12.6876 21.9016C12.6177 21.9016 12.5486 21.8866 12.485 21.8578C12.4261 21.8232 12.3762 21.7753 12.3391 21.7179C12.3021 21.6605 12.279 21.5952 12.2718 21.5273L11.0352 13.2547L16.3654 19.651C16.4194 19.6998 16.4596 19.762 16.4821 19.8312C16.5045 19.9004 16.5084 19.9743 16.4933 20.0455ZM35.7676 24.8001L13.2206 0.39814C13.0466 0.204187 12.8154 0.0706928 12.5604 0.0170205C12.3055 -0.0366518 12.0401 -0.00770986 11.8027 0.099647L1.39803 4.80093C1.15802 4.90571 0.957476 5.08398 0.825282 5.31005C0.693087 5.53612 0.636064 5.79832 0.662453 6.05888L4.03118 39.1065C4.05226 39.3021 4.12053 39.4897 4.23009 39.6531C4.33965 39.8165 4.48721 39.9509 4.66015 40.0446C4.82812 40.1444 5.01805 40.2015 5.21322 40.2108C5.40838 40.2201 5.60283 40.1813 5.77952 40.0979L13.0713 36.8145C13.3092 36.7048 13.5069 36.5236 13.6368 36.2962C13.7668 36.0688 13.8225 35.8065 13.7962 35.5459L13.2632 30.5887C13.2545 30.4968 13.2744 30.4045 13.3202 30.3243C13.366 30.2442 13.4355 30.1801 13.5191 30.141L22.0475 26.3032C22.1319 26.2676 22.2252 26.2587 22.3148 26.2778C22.4044 26.2968 22.486 26.3429 22.5485 26.4098L25.9599 30.077C26.1387 30.2673 26.3723 30.3973 26.6282 30.4489C26.8842 30.5004 27.1499 30.4711 27.3884 30.3649L35.3731 26.7616C35.5532 26.6818 35.7116 26.5602 35.8352 26.4068C35.9587 26.2534 36.0439 26.0727 36.0835 25.8798C36.1231 25.6869 36.1161 25.4873 36.063 25.2976C36.0099 25.108 35.9123 24.9337 35.7782 24.7894L35.7676 24.8001ZM35.2878 25.7275C35.2729 25.797 35.242 25.8621 35.1976 25.9176C35.1532 25.9731 35.0965 26.0175 35.032 26.0474L27.0472 29.64C26.9629 29.681 26.8677 29.6938 26.7756 29.6765C26.6834 29.6592 26.5993 29.6128 26.5356 29.544L23.1242 25.8768C22.9489 25.6846 22.7171 25.5532 22.4623 25.5014C22.2074 25.4497 21.9427 25.4803 21.7063 25.589L13.1779 29.4267C12.9409 29.5345 12.7436 29.7138 12.6136 29.9394C12.4836 30.165 12.4274 30.4256 12.453 30.6847L12.9967 35.6525C13.0015 35.7451 12.9788 35.8371 12.9313 35.9168C12.8839 35.9965 12.8139 36.0603 12.7302 36.1002L5.43838 39.3837C5.37537 39.4147 5.30607 39.4309 5.23583 39.4309C5.16559 39.4309 5.09628 39.4147 5.03327 39.3837C4.9711 39.3503 4.91874 39.3013 4.88134 39.2415C4.84395 39.1816 4.82283 39.113 4.82008 39.0425L1.45135 5.99492C1.44003 5.90132 1.46003 5.80661 1.50825 5.7256C1.55648 5.64459 1.6302 5.58184 1.71787 5.54717L12.1225 0.856543C12.2052 0.816389 12.2987 0.804036 12.389 0.821326C12.4793 0.838616 12.5615 0.884618 12.6236 0.952484L35.1706 25.3544C35.2171 25.4037 35.2518 25.4629 35.2721 25.5275C35.2924 25.5921 35.2978 25.6605 35.2878 25.7275ZM10.8326 11.7409L10.0544 12.0927L11.4722 21.6872C11.4967 21.879 11.5678 22.0619 11.6793 22.2199C11.7908 22.3778 11.9393 22.5061 12.1119 22.5934C12.2781 22.6736 12.4603 22.7153 12.6449 22.7153C12.8295 22.7153 13.0117 22.6736 13.1779 22.5934L16.5147 21.0902C16.6901 21.0124 16.845 20.8948 16.9671 20.7468C17.0892 20.5988 17.1752 20.4244 17.2183 20.2374C17.2611 20.0527 17.2613 19.8608 17.2188 19.676C17.1763 19.4913 17.0923 19.3187 16.9731 19.1713L10.8326 11.7409ZM16.4933 20.0455C16.4742 20.1105 16.4415 20.1707 16.3974 20.2221C16.3533 20.2736 16.2988 20.3151 16.2375 20.344L12.8901 21.8578C12.8264 21.8866 12.7574 21.9016 12.6876 21.9016C12.6177 21.9016 12.5486 21.8866 12.485 21.8578C12.4261 21.8232 12.3762 21.7753 12.3391 21.7179C12.3021 21.6605 12.279 21.5952 12.2718 21.5273L11.0352 13.2547L16.3654 19.651C16.4194 19.6998 16.4596 19.762 16.4821 19.8312C16.5045 19.9004 16.5084 19.9743 16.4933 20.0455ZM17.0157 19.1393L10.8326 11.7409L10.0544 12.0927L11.4722 21.6872C11.4967 21.879 11.5678 22.0619 11.6793 22.2199C11.7908 22.3778 11.9393 22.5061 12.1119 22.5934C12.2781 22.6736 12.4603 22.7153 12.6449 22.7153C12.8295 22.7153 13.0117 22.6736 13.1779 22.5934L16.5147 21.0902C16.6901 21.0124 16.845 20.8948 16.9671 20.7468C17.0892 20.5988 17.1752 20.4244 17.2183 20.2374C17.2722 20.0512 17.2819 19.855 17.2467 19.6644C17.2116 19.4738 17.1325 19.294 17.0157 19.1393ZM16.4933 20.0455C16.4742 20.1105 16.4415 20.1707 16.3974 20.2221C16.3533 20.2736 16.2988 20.3151 16.2375 20.344L12.8901 21.8578C12.8264 21.8866 12.7574 21.9016 12.6876 21.9016C12.6177 21.9016 12.5486 21.8866 12.485 21.8578C12.4261 21.8232 12.3762 21.7753 12.3391 21.7179C12.3021 21.6605 12.279 21.5952 12.2718 21.5273L11.0352 13.2547L16.3654 19.651C16.4194 19.6998 16.4596 19.762 16.4821 19.8312C16.5045 19.9004 16.5084 19.9743 16.4933 20.0455ZM17.0157 19.1393L10.8326 11.7409L10.0544 12.0927L11.4722 21.6872C11.4967 21.879 11.5678 22.0619 11.6793 22.2199C11.7908 22.3778 11.9393 22.5061 12.1119 22.5934C12.2781 22.6736 12.4603 22.7153 12.6449 22.7153C12.8295 22.7153 13.0117 22.6736 13.1779 22.5934L16.5147 21.0902C16.6901 21.0124 16.845 20.8948 16.9671 20.7468C17.0892 20.5988 17.1752 20.4244 17.2183 20.2374C17.2722 20.0512 17.2819 19.855 17.2467 19.6644C17.2116 19.4738 17.1325 19.294 17.0157 19.1393ZM16.4933 20.0455C16.4742 20.1105 16.4415 20.1707 16.3974 20.2221C16.3533 20.2736 16.2988 20.3151 16.2375 20.344L12.8901 21.8578C12.8264 21.8866 12.7574 21.9016 12.6876 21.9016C12.6177 21.9016 12.5486 21.8866 12.485 21.8578C12.4261 21.8232 12.3762 21.7753 12.3391 21.7179C12.3021 21.6605 12.279 21.5952 12.2718 21.5273L11.0352 13.2547L16.3654 19.651C16.4194 19.6998 16.4596 19.762 16.4821 19.8312C16.5045 19.9004 16.5084 19.9743 16.4933 20.0455Z" fill="#3A0D1F"/>
</svg>
