<svg width="40" height="42" viewBox="0 0 40 42" fill="none" xmlns="http://www.w3.org/2000/svg">
<path d="M35.1916 12.7261L21.4822 2.0656C21.419 2.02368 21.3448 2.00143 21.269 2.00164C21.2175 1.99994 21.1665 2.01068 21.1201 2.03295C21.0737 2.05522 21.0333 2.08837 21.0025 2.12956L1.67494 27.0325C1.62284 27.1038 1.60039 27.1925 1.61231 27.28C1.62424 27.3674 1.66962 27.4469 1.7389 27.5016L15.6829 38.322C16.8747 39.2891 18.3022 39.9219 19.8191 40.1556C20.2497 40.2194 20.6844 40.2514 21.1197 40.2516C22.1655 40.251 23.2023 40.0595 24.1793 39.6866C25.5588 39.1626 26.7631 38.2612 27.6546 37.0854C30.3091 33.674 30.3411 30.4652 27.7293 27.2884L27.5267 27.0539C27.512 27.0338 27.504 27.0095 27.504 26.9846C27.504 26.9597 27.512 26.9354 27.5267 26.9153L28.0278 26.2756C28.0553 26.2659 28.0854 26.2659 28.113 26.2756L28.3902 26.3822C29.3547 26.7637 30.3807 26.966 31.4178 26.9792C31.9126 26.9799 32.4059 26.9263 32.889 26.8193C34.552 26.3278 35.9919 25.2723 36.9613 23.8344C37.7992 22.7768 38.3137 21.4996 38.4431 20.1565C38.581 18.7806 38.3606 17.3924 37.8035 16.1268C37.2256 14.7958 36.3285 13.6278 35.1916 12.7261ZM22.0472 29.9962L21.5142 30.6891C21.2816 30.998 20.9889 31.2564 20.6535 31.4488C20.3182 31.6412 19.9473 31.7636 19.5633 31.8085C19.432 31.8191 19.3001 31.8191 19.1689 31.8085C18.5256 31.8106 17.9011 31.5924 17.3992 31.1901L13.2096 27.9387C13.0473 27.8123 12.9159 27.6507 12.8254 27.466C12.7349 27.2812 12.6876 27.0783 12.6873 26.8726C12.6853 26.5739 12.787 26.2838 12.9751 26.0518L15.4377 22.8536C15.6586 22.5721 15.9813 22.3886 16.3363 22.3427C16.6912 22.2969 17.05 22.3923 17.3353 22.6084L21.5248 25.8599C21.8221 26.0989 22.0693 26.3943 22.2523 26.7291C22.4352 27.0639 22.5503 27.4314 22.5909 27.8108C22.5909 27.9387 22.5909 28.0666 22.5909 28.1945C22.6235 28.8399 22.4314 29.4766 22.0472 29.9962ZM29.3923 19.5808L28.8806 20.2311C28.6519 20.54 28.3631 20.7993 28.0314 20.9935C27.6998 21.1877 27.3323 21.3128 26.951 21.3611H26.5673C25.9165 21.3592 25.2854 21.1376 24.7763 20.7322L21.0878 17.8645C20.9268 17.7376 20.797 17.5756 20.7083 17.3908C20.6196 17.206 20.5743 17.0034 20.576 16.7984C20.5768 16.4987 20.674 16.2072 20.8532 15.9669L23.2199 12.8327C23.3462 12.6704 23.5079 12.539 23.6926 12.4485C23.8773 12.358 24.0802 12.3107 24.2859 12.3104C24.5826 12.3096 24.8713 12.407 25.1068 12.5875L28.8379 15.4872C29.1446 15.7205 29.4022 16.0119 29.5961 16.3448C29.79 16.6778 29.9163 17.0456 29.968 17.4274C29.968 17.5447 29.968 17.6619 29.968 17.7792C29.9845 18.4274 29.7817 19.0623 29.3923 19.5808Z" fill="white"/>
<path d="M21.523 25.8919L17.3334 22.6405C17.0482 22.4243 16.6894 22.3289 16.3345 22.3748C15.9795 22.4206 15.6568 22.6041 15.4359 22.8857L12.9733 26.0838C12.7852 26.3159 12.6834 26.606 12.6854 26.9047C12.6858 27.1104 12.733 27.3133 12.8235 27.498C12.9141 27.6828 13.0455 27.8444 13.2078 27.9708L17.3974 31.2222C17.8993 31.6245 18.5238 31.8427 19.167 31.8405C19.2983 31.8511 19.4302 31.8511 19.5615 31.8405C19.9455 31.7957 20.3164 31.6733 20.6517 31.4809C20.987 31.2885 21.2798 31.03 21.5124 30.7212L22.0454 30.0282C22.4492 29.5272 22.6676 28.9021 22.6637 28.2586C22.6637 28.1307 22.6637 28.0027 22.6637 27.8748C22.618 27.4842 22.4932 27.107 22.2971 26.7661C22.1011 26.4253 21.8377 26.1278 21.523 25.8919ZM19.1777 30.8171C18.7553 30.82 18.3448 30.6769 18.0157 30.412L13.8261 27.1605C13.787 27.1256 13.7554 27.0829 13.7334 27.0352C13.7114 26.9876 13.6994 26.9359 13.6982 26.8834C13.6964 26.8463 13.7022 26.8093 13.715 26.7745C13.7278 26.7397 13.7475 26.7079 13.7728 26.6808L16.2354 23.4827C16.2662 23.4415 16.3066 23.4083 16.353 23.3861C16.3994 23.3638 16.4505 23.3531 16.5019 23.3547C16.5779 23.3532 16.6525 23.3756 16.7151 23.4187L20.894 26.6702C21.0992 26.8212 21.2712 27.0126 21.3995 27.2326C21.5279 27.4526 21.6098 27.6966 21.6403 27.9494C21.6456 28.0346 21.6456 28.1201 21.6403 28.2053C21.6442 28.6246 21.5009 29.0321 21.2352 29.3566L20.7022 30.0496C20.5501 30.2527 20.3583 30.4227 20.1383 30.5492C19.9184 30.6757 19.6749 30.7559 19.4229 30.7851L19.1777 30.8171Z" fill="#3A0D1F"/>
<path d="M28.8806 20.2311L29.3924 19.5808C29.8008 19.0692 30.0226 18.4337 30.0213 17.7791C30.0213 17.6619 30.0213 17.5446 30.0213 17.4273C29.9697 17.0456 29.8433 16.6777 29.6494 16.3448C29.4555 16.0119 29.1979 15.7204 28.8913 15.4871L25.1601 12.5875C24.9246 12.407 24.636 12.3095 24.3393 12.3103C24.1336 12.3107 23.9307 12.3579 23.7459 12.4484C23.5612 12.5389 23.3996 12.6703 23.2732 12.8327L20.8426 15.9562C20.6634 16.1965 20.5662 16.488 20.5654 16.7877C20.5637 16.9927 20.609 17.1953 20.6977 17.3801C20.7864 17.5649 20.9162 17.7269 21.0771 17.8538L24.8083 20.7428C25.3174 21.1482 25.9485 21.3698 26.5993 21.3718H26.9831C27.3595 21.318 27.7214 21.1894 28.0473 20.9935C28.3732 20.7976 28.6566 20.5383 28.8806 20.2311ZM26.5353 20.3697C26.122 20.3656 25.7227 20.2187 25.4053 19.9539L21.6741 17.0649C21.6314 17.0323 21.5967 16.9904 21.5727 16.9424C21.5487 16.8943 21.536 16.8414 21.5355 16.7877C21.5378 16.7139 21.564 16.6428 21.6102 16.5852L24.0408 13.5043C24.0722 13.4629 24.1124 13.4291 24.1585 13.4051C24.2046 13.3812 24.2554 13.3677 24.3073 13.3657C24.3841 13.3692 24.4582 13.3952 24.5205 13.4403L28.2517 16.34C28.4574 16.4861 28.6288 16.6753 28.754 16.8944C28.8791 17.1135 28.9551 17.3572 28.9766 17.6086C28.9819 17.6973 28.9819 17.7863 28.9766 17.8751C28.9737 18.2901 28.831 18.6919 28.5715 19.0158L28.0598 19.6661C27.9108 19.8698 27.7211 20.0404 27.5027 20.167C27.2843 20.2937 27.042 20.3735 26.7912 20.4016L26.5353 20.3697Z" fill="#3A0D1F"/>
<path d="M38.7518 15.6365C38.0955 14.168 37.0844 12.8859 35.8095 11.9053L22.1533 1.27673C21.9141 1.09436 21.6226 0.993482 21.3218 0.988892C21.115 0.988892 20.9109 1.03707 20.7259 1.12958C20.5408 1.2221 20.3799 1.35642 20.2558 1.52192L0.832301 26.4142C0.721246 26.5518 0.640171 26.7111 0.594274 26.8818C0.548378 27.0525 0.538675 27.231 0.565787 27.4057C0.5873 27.5814 0.643632 27.7512 0.731492 27.9049C0.819352 28.0587 0.936977 28.1934 1.07749 28.3012L15.0534 39.0896C16.3936 40.1444 17.9837 40.8348 19.6694 41.0938C20.1388 41.1669 20.6124 41.2096 21.0873 41.2217C22.2559 41.2232 23.4151 41.0137 24.5093 40.6034C26.0598 40.0073 27.4168 38.9969 28.4324 37.6824C31.0869 34.2497 31.3534 30.881 29.2426 27.6509C29.94 27.8266 30.6556 27.9196 31.3747 27.928C31.9374 27.9269 32.4985 27.8661 33.0484 27.7468C34.9488 27.212 36.5989 26.0226 37.707 24.3888C38.656 23.1801 39.2436 21.7276 39.4021 20.1992C39.5922 18.6475 39.3678 17.0732 38.7518 15.6365ZM28.0913 26.1797C28.0637 26.17 28.0336 26.17 28.006 26.1797L27.5049 26.8194C27.4902 26.8395 27.4823 26.8637 27.4823 26.8886C27.4823 26.9136 27.4902 26.9378 27.5049 26.9579L27.7075 27.1925C30.3193 30.3906 30.2873 33.5888 27.6329 36.9895C26.7413 38.1653 25.537 39.0667 24.1575 39.5907C23.1805 39.9636 22.1437 40.1551 21.098 40.1557C20.6627 40.1555 20.228 40.1235 19.7974 40.0597C18.2836 39.8354 16.8564 39.2137 15.6611 38.2581L1.73844 27.5016C1.66916 27.4469 1.62378 27.3675 1.61186 27.28C1.59993 27.1925 1.62238 27.1038 1.67448 27.0326L21.002 2.14023C21.0329 2.09904 21.0732 2.06589 21.1196 2.04362C21.166 2.02135 21.2171 2.01061 21.2685 2.01231C21.3443 2.0121 21.4185 2.03435 21.4817 2.07627L35.1912 12.7368C36.3315 13.6167 37.2391 14.7623 37.835 16.0735C38.3922 17.3391 38.6125 18.7273 38.4746 20.1032C38.3453 21.4463 37.8307 22.7235 36.9928 23.7811C36.0234 25.219 34.5835 26.2745 32.9205 26.766C32.4374 26.873 31.9441 26.9267 31.4493 26.9259C30.4122 26.9127 29.3862 26.7104 28.4217 26.329L28.1446 26.2224L28.0913 26.1797Z" fill="#3A0D1F"/>
</svg>
