<svg width="380" height="300" viewBox="0 0 380 300" fill="none" xmlns="http://www.w3.org/2000/svg">
<path d="M373.583 160.671C371.174 157.867 368.658 155.17 366.302 152.323C359.33 143.923 352.337 135.533 345.514 127.005C332.167 110.257 318.745 93.4667 304.45 77.4652C290.335 61.6983 276.167 45.9634 262.181 30.0685C254.718 21.6254 247.544 12.9584 240.423 4.24872C238.642 2.11662 236.819 1.47699 234.325 2.19125C231.83 2.9055 229.549 3.58777 227.15 4.27005L157.91 23.8854C132.527 31.0813 107.091 38.0746 81.4955 44.4496C77.6861 45.3877 73.898 46.3756 70.1313 47.4132L64.4919 48.9696C57.488 50.9205 50.5053 52.946 43.512 54.9502L40.4844 55.803L36.2202 56.997C35.5765 57.1823 34.9627 57.4587 34.3973 57.8179C34.1542 57.9204 33.9407 58.0822 33.7764 58.2885C33.612 58.4948 33.502 58.7391 33.4564 58.9989C33.4108 59.2587 33.431 59.5258 33.5153 59.7757C33.5996 60.0257 33.7452 60.2505 33.9388 60.4297C35.5912 62.6684 37.137 64.9817 38.6401 67.3057C54.6878 92.1234 70.7212 116.945 86.7404 141.77C100.13 162.494 112.56 183.772 124.926 205.125C131.163 215.892 137.954 226.339 144.499 236.925C144.678 237.157 144.877 237.371 145.096 237.565C146.066 236.339 146.685 235.038 148.369 234.495L150.576 233.78L152.324 233.173C153.571 232.736 154.808 232.288 156.034 231.84L159.36 230.657C160.106 230.39 160.852 230.124 161.599 229.879C162.345 229.634 163.283 229.314 164.125 229.047C199.902 217.832 235.696 206.664 271.509 195.541C300.825 186.448 330.195 177.504 359.522 168.453C364.767 166.832 369.948 164.956 375.342 163.123C374.66 162.206 374.191 161.374 373.583 160.671Z" fill="#FFA100"/>
<path d="M377.218 174.838C377.013 175.345 376.696 175.8 376.292 176.169C375.889 176.538 375.407 176.812 374.884 176.971C370.065 178.708 365.289 180.435 360.407 182.109C330.834 192.311 300.953 201.5 271.007 210.509C257.362 214.609 243.713 218.678 230.06 222.715C214.517 227.32 198.971 231.94 183.421 236.574C175.617 238.898 167.846 241.317 160.074 243.769C159.326 244.12 158.678 244.651 158.187 245.315C154.488 249.419 153.358 254.334 153.806 259.707C153.905 261.885 154.151 264.054 154.541 266.199C155.39 269.661 157.09 272.857 159.488 275.495C160.914 277.122 162.698 278.398 164.698 279.223C166.699 280.048 168.863 280.399 171.022 280.25C174.894 280.102 178.724 279.402 182.397 278.171C204.123 271.249 225.857 264.351 247.597 257.479C280.495 247.031 313.401 236.598 346.313 226.18L372.602 217.854C373.999 217.406 375.374 216.862 376.749 216.382C378.156 219.25 377.943 222.992 375.832 224.74C374.201 225.982 372.365 226.928 370.406 227.533C363.562 229.836 356.686 231.968 349.81 234.313C334.288 239.526 318.895 244.974 303.256 249.984C266.253 261.818 229.165 273.544 192.13 285.271L184.145 287.797C175.887 290.427 167.664 293.163 159.477 296.006C158.783 296.3 158.013 296.366 157.279 296.194C156.545 296.021 155.884 295.619 155.394 295.046C148.755 288.79 144.149 280.681 142.175 271.775C139.312 260.818 140.445 249.2 145.373 239.004C145.792 238.048 146.408 237.191 147.179 236.488C147.95 235.784 148.86 235.251 149.851 234.921L155.181 233.045C185.03 222.512 215.455 213.728 245.699 204.389C283.175 192.819 320.671 181.324 358.189 169.903C363.455 168.282 368.668 166.502 373.903 164.786C374.532 164.583 375.139 164.274 376.099 163.879C376.64 165.108 377.096 166.373 377.463 167.664C377.932 170.041 378.284 172.408 377.218 174.838Z" fill="#FFA100"/>
<path d="M361.548 206.383C352.391 209.997 342.914 212.556 333.458 215.199L295.666 225.7C271.907 232.288 248.17 238.958 224.454 245.71C209.774 249.921 195.372 255.006 180.831 259.696L179.85 259.995C178.283 257.788 176.855 255.731 175.33 253.599C218.26 238.802 261.755 225.455 305.388 212.278C323.97 206.66 342.572 201.095 361.175 195.456C361.175 195.829 361.271 196.181 361.335 196.522C361.729 199.113 362.038 201.735 362.572 204.304C362.817 205.466 362.721 205.957 361.548 206.383Z" fill="white"/>
<path d="M362.219 212.502C343.244 218.707 324.289 224.954 305.292 231.084C295.875 234.132 286.459 237.167 277.042 240.188C254.74 247.366 232.431 254.522 210.115 261.658C195.563 266.317 180.959 270.805 166.407 275.367C165.341 275.708 164.275 276.071 163.102 276.337C162.921 276.378 162.733 276.382 162.55 276.349C162.367 276.316 162.192 276.247 162.036 276.146C159.392 273.874 157.417 270.926 156.322 267.617L171.769 263.182C172.419 265.922 173.016 268.513 173.699 271.38C174.441 270.777 175.153 270.136 175.831 269.461C177.323 267.894 177.59 267.83 179.498 268.864L180.127 269.227C181.428 269.888 182.131 269.515 181.929 268.044C181.604 266.165 181.184 264.304 180.671 262.468C180.498 261.917 180.295 261.376 180.063 260.848L191.48 257.095C225.594 245.784 260.188 236.211 294.792 226.659C301.039 224.939 307.282 223.212 313.522 221.478C326.898 217.783 340.277 214.059 353.659 210.306C356.463 209.517 359.16 208.355 361.91 207.364C362.347 207.204 362.795 207.065 363.307 206.895C363.731 207.621 364.088 208.385 364.373 209.176C364.467 209.896 364.302 210.626 363.907 211.235C363.513 211.844 362.915 212.293 362.219 212.502Z" fill="white"/>
<path d="M127.942 214.613C125.549 216.77 123.551 219.328 122.037 222.171C119.619 227.011 118.17 232.276 117.772 237.672C117.655 238.674 117.57 239.687 117.495 240.699C117.325 242.97 117.495 245.273 117.495 247.895C116.578 246.413 115.768 245.166 115.001 243.887C106.82 230.312 98.6473 216.738 90.4814 203.164C88.6477 200.136 86.7715 197.119 85.0445 194.028C84.7845 193.563 84.5907 193.064 84.4688 192.546C84.3642 192.106 84.3318 191.653 84.3729 191.203C85.4389 182.12 88.5518 173.954 95.0334 167.323L95.2786 167.067C96.4406 165.894 97.7945 164.935 99.2123 163.698C100.278 165.511 101.344 167.12 102.272 168.762C109.009 180.062 115.743 191.37 122.474 202.684C124.424 205.978 126.237 209.347 128.177 212.652C128.55 213.44 128.667 213.952 127.942 214.613Z" fill="#FFA100"/>
<path d="M362.263 182.525C361.964 184.785 361.751 186.874 361.356 188.921C361.282 189.348 360.61 189.827 360.12 189.987C354.065 191.97 347.914 193.686 341.933 195.85C329.684 200.296 317.307 204.379 304.877 208.313C275.88 217.427 246.564 225.529 217.557 234.58C198.037 240.689 178.571 246.914 159.297 253.769C157.996 254.227 156.664 254.622 155.193 255.091C155.155 254.696 155.177 254.297 155.257 253.908C155.979 251.738 156.844 249.619 157.847 247.565C158.309 246.699 158.944 245.937 159.712 245.327C160.481 244.716 161.366 244.269 162.314 244.015C186.911 236.73 211.498 229.417 236.074 222.075L246.01 219.112C281.349 208.59 316.593 197.791 351.623 186.256C355.163 185.062 358.659 183.772 362.263 182.525Z" fill="white"/>
<path d="M98.8603 162.771C97.3221 163.872 95.8714 165.091 94.5215 166.417C87.9119 172.909 84.6711 181.128 82.9868 190.36C82.9868 190.456 82.9868 190.552 82.9868 190.648L81.473 188.004C79.682 184.924 77.8697 181.832 76.196 178.698C70.1089 167.419 64.1603 156.055 58.0731 144.797C56.8152 142.473 56.9218 140.128 57.103 137.751C57.571 130.632 60.0969 123.803 64.3735 118.093C65.1351 117.138 65.9577 116.233 66.8361 115.385L67.6463 114.543L98.8603 162.771Z" fill="#FFA100"/>
<path d="M66.922 113.807C66.6875 114.02 66.453 114.255 66.2291 114.489C58.9906 121.685 56.1016 130.693 55.6752 140.949C55.4087 140.647 55.1596 140.33 54.929 140C49.4281 131.472 43.9237 122.943 38.4158 114.415C36.5182 111.462 34.578 108.52 32.5525 105.641C28.0324 99.1809 26.508 91.8891 26.3374 84.1815C26.079 79.6329 26.3941 75.0699 27.2756 70.6C27.8526 67.8733 29.0167 65.305 30.6869 63.0737C31.3372 62.2209 32.0408 61.4107 32.9896 60.2806L55.3767 95.4604L66.922 113.807Z" fill="#FFA100"/>
<path d="M376.377 215.348C374.671 215.935 372.987 216.542 371.281 217.075L263.13 251.434L252.043 254.963C227.545 262.745 203.026 270.488 178.485 278.192C174.435 279.441 170.114 279.515 166.023 278.405C165.225 278.136 164.442 277.823 163.678 277.467C163.678 277.339 163.71 277.222 163.774 277.115C168.219 275.804 172.686 274.589 177.099 273.192C209.081 263.065 241.063 252.991 273.044 242.746L280.869 240.23C302.787 233.173 324.577 225.721 346.431 218.493C351.165 216.926 355.951 215.561 360.706 214.09C361.486 213.852 362.251 213.567 362.998 213.237C365.407 212.171 365.855 211.105 365.13 208.579C364.348 205.828 363.602 203.071 362.891 200.306C362.733 199.489 362.622 198.663 362.561 197.833C364.458 198.824 374.671 211.777 376.377 215.348Z" fill="#FFA100"/>
<path d="M155.789 296.998C152.495 298.927 150.597 298.533 148.049 295.079C139.02 282.915 131.27 269.909 123.317 257.042C122.644 255.827 121.885 254.662 121.046 253.556C119.053 251.168 118.573 248.364 118.509 245.433C118.444 243.225 118.498 241.015 118.669 238.812C119.039 233.458 120.36 228.213 122.571 223.323L122.933 222.544C124.552 219.492 126.754 216.786 129.415 214.581C132.869 220.114 136.205 225.476 139.531 230.838C141.003 233.205 142.463 235.55 143.796 237.97C143.933 238.24 144.014 238.536 144.034 238.838C144.054 239.14 144.013 239.443 143.913 239.729C136.578 257.276 138.583 273.843 149.03 289.567C150.65 292.008 152.953 294.002 154.947 296.198C155.202 296.443 155.512 296.688 155.789 296.998Z" fill="#FFA100"/>
<path d="M361.303 191.128C361.303 194.145 361.367 194.198 358.499 195.062C340.817 200.477 323.156 205.836 305.516 211.138C305.463 211.165 305.405 211.183 305.346 211.191C264.569 223.579 223.825 236.094 183.464 249.771C174.307 252.874 165.266 256.37 156.184 259.675C155.789 259.824 155.395 259.931 154.776 260.134C154.84 258.844 154.776 257.756 154.947 256.69C155.006 256.482 155.113 256.291 155.259 256.132C155.406 255.973 155.587 255.85 155.789 255.773C198.175 240.849 241.361 228.461 284.323 215.327C291.274 213.195 298.214 211.035 305.143 208.846C315.15 205.676 325.149 202.478 335.142 199.251C343.393 196.607 351.602 193.825 359.842 191.107C360.279 190.957 360.738 190.872 361.239 190.744C361.271 191.032 361.313 191.085 361.303 191.128Z" fill="white"/>
<path d="M180.862 268.011C180.862 268.075 180.777 268.15 180.617 268.438C178.858 267.041 177.195 266.722 175.724 268.001C175.692 268.022 175.664 268.047 175.638 268.075C175.318 268.373 175.032 268.706 174.786 269.067C174.619 269.303 174.466 269.549 174.327 269.802C174.021 267.937 173.561 266.101 172.952 264.312C171.93 261.298 170.218 258.564 167.952 256.328C168.347 256.189 168.72 256.04 169.103 255.88C170.48 255.28 171.907 254.802 173.368 254.451C174.029 254.323 175.105 255.219 175.649 255.912C178.501 259.367 180.31 263.565 180.862 268.011Z" fill="#BCD2EC"/>
<path d="M171.342 262.33L155.82 266.796C155.49 265.091 155.127 263.481 154.936 261.861C154.936 261.551 155.469 261.008 155.874 260.858C159.477 259.441 163.112 258.097 167.035 256.594L171.342 262.33Z" fill="white"/>
<path d="M249.016 55.8566C240.285 60.8777 231.671 66.0267 222.855 70.7813C221.789 71.3676 220.723 71.9113 219.657 72.423C212.35 75.6789 204.659 77.993 196.769 79.3097C194.541 79.7255 194.381 80.1626 195.756 81.9535C202.223 90.3967 208.701 98.8256 215.19 107.24C215.297 107.39 215.371 107.56 215.606 107.955C213.069 108.338 210.691 108.754 208.293 109.021C204.679 109.468 201.065 109.873 197.451 110.204C197.144 110.224 196.836 110.177 196.549 110.066C196.262 109.956 196.003 109.785 195.788 109.564C191.47 103.584 187.26 97.5392 182.995 91.5587C181.823 89.9276 180.501 88.3605 179.189 86.9C179.039 86.7552 178.856 86.6493 178.655 86.5917C178.454 86.5341 178.242 86.5265 178.038 86.5695C174.382 87.8062 170.81 89.3946 167.079 90.3434C158.306 92.5927 149.447 94.4157 140.684 96.6651C129.238 99.6043 118.459 104.703 108.926 111.686C108.745 111.814 108.532 111.92 108.212 112.123C107.306 110.844 106.41 109.596 105.547 108.349C103.486 105.343 101.446 102.329 99.4274 99.3089C99.1855 98.9067 98.9684 98.4902 98.7772 98.0616C99.4255 97.9044 100.052 97.6681 100.643 97.358C110.489 90.3261 121.495 85.0795 133.157 81.8576C140.62 79.7255 148.274 78.3929 155.8 76.5273C159.233 75.6851 162.591 74.5018 165.96 73.4145C167.58 72.9028 167.889 71.6874 166.759 70.1417C164.894 67.5831 162.975 65.0673 161.077 62.562C157.932 58.3938 154.766 54.2468 151.483 49.9293C151.879 49.8304 152.281 49.7592 152.687 49.7161C157.655 49.4069 162.623 49.0765 167.612 48.8419C167.949 48.8434 168.282 48.9142 168.59 49.0499C168.898 49.1857 169.175 49.3834 169.403 49.6308C173.124 54.5027 176.866 59.3959 180.394 64.3637C181.46 65.8668 182.707 66.6663 184.498 66.2506C189.21 65.1845 193.901 64.0332 198.602 62.9032C205.093 61.1864 211.278 58.4749 216.938 54.8651C219.156 53.5326 221.331 52.1254 223.484 50.6969C227.565 47.8249 232.077 45.6225 236.852 44.1726C237.464 43.9221 238.144 43.8914 238.775 44.0858C239.407 44.2802 239.952 44.6876 240.317 45.2387C242.961 48.5754 245.786 51.7736 248.526 55.0357C248.675 55.3875 248.888 55.6967 249.016 55.8566Z" fill="#F02143"/>
<path d="M98.7009 98.1042L97.1764 96.196C100.577 93.8613 103.775 91.5266 107.112 89.4052C117.954 82.5078 130.096 79.0538 142.473 76.2608C143.125 76.0595 143.763 75.8137 144.381 75.5252C144.381 75.3333 144.296 75.1414 144.264 74.9602C143.696 74.9179 143.126 74.9179 142.558 74.9602C133.519 75.9976 124.43 76.5456 115.331 76.6019C107.059 76.8045 98.8075 77.5933 90.5562 78.2117C88.9253 78.4439 87.3144 78.8003 85.7377 79.2777C84.6183 77.5827 83.3284 75.7491 82.1877 73.8302C82.0738 73.5639 82.0278 73.2736 82.0539 72.9852C82.0799 72.6967 82.1772 72.4193 82.337 72.1778C85.2473 70.099 88.0297 67.6258 91.2705 66.2719C94.5113 64.918 98.2212 64.6088 101.75 64.0012C110.577 62.498 119.308 63.6174 128.039 65.0033C135.309 66.1546 142.548 67.6684 149.957 67.743C152.686 67.743 155.415 67.743 158.144 67.743C158.728 67.6503 159.298 67.4819 159.839 67.242C159.702 66.6563 159.483 66.0928 159.189 65.5683C155.479 60.6324 151.726 55.7286 147.984 50.8248C147.899 50.7075 147.835 50.5796 147.697 50.3557C148.912 49.9506 149.957 49.7694 150.831 50.974C152.099 52.7117 153.453 54.396 154.754 56.1124C158.357 60.8883 161.964 65.6607 165.574 70.4295C166.715 71.9433 166.555 72.2631 164.807 72.9134C154.69 76.6126 143.997 78.0517 133.667 80.8874C121.522 84.1659 110.072 89.62 99.8736 96.9848C99.4433 97.3566 99.0407 97.7592 98.6689 98.1895L98.7009 98.1042Z" fill="white"/>
<path d="M123.221 134.691C122.325 133.231 121.579 131.813 120.641 130.565C120.229 130.078 119.961 129.486 119.867 128.856C119.773 128.225 119.856 127.58 120.108 126.994C121.197 124.018 122.803 121.257 124.852 118.839C129.013 113.795 134.128 109.622 139.905 106.558C144.744 103.935 149.744 101.622 154.691 99.2128C156.36 98.6035 157.775 97.4508 158.71 95.9401C140.939 98.7011 124.596 104.33 110.055 114.905L108.68 113.018C109.49 112.411 110.215 111.814 110.983 111.291C120.645 104.661 131.441 99.8588 142.836 97.1234C151.589 94.9913 160.383 93.0617 169.114 90.9083C171.88 90.131 174.599 89.1985 177.259 88.1152C177.584 87.9186 177.971 87.8522 178.343 87.9293C178.715 88.0064 179.043 88.2214 179.263 88.531C179.882 89.3305 180.585 90.0448 181.172 90.8657C185.585 97.1269 189.991 103.392 194.391 109.66C194.54 109.884 194.668 110.14 194.913 110.556C193.602 110.726 192.45 110.929 191.278 111.003C191.098 110.975 190.925 110.911 190.771 110.814C190.617 110.716 190.485 110.589 190.382 110.438C187.035 105.652 183.719 100.844 180.383 96.036C179.583 94.8847 178.975 94.7568 177.973 95.7375C174.189 99.4474 169.552 101.899 164.957 104.362C157.311 108.517 150.664 114.291 145.48 121.28C145.2 121.664 144.836 121.978 144.414 122.197C136.969 125.679 129.872 129.863 123.221 134.691Z" fill="white"/>
<path d="M267.853 77.3906C267.584 78.0564 267.189 78.6644 266.691 79.1816C264.985 81.2178 263.152 83.158 261.552 85.2688C260.578 86.6167 259.132 87.549 257.501 87.8806C248.148 89.8485 238.495 89.921 229.112 88.0938C226.298 87.5928 223.462 87.1024 220.584 86.7293C215.886 86.0238 211.13 85.781 206.384 86.0043C205.393 86.0043 204.391 86.1323 203.079 86.2282C208.612 93.3175 213.879 100.087 219.283 106.984C218.058 107.464 217.151 108.05 216.277 106.931C209.465 98.2107 202.653 89.5223 195.606 80.5142L200.617 79.4481C207.166 78.1389 213.553 76.1229 219.667 73.4356C222.506 72.1967 225.268 70.7906 227.94 69.2247C233.089 66.1971 238.195 63.0736 243.376 60.0673C245.423 58.884 247.64 57.8819 249.773 56.7732L251.713 59.0439C250.572 59.6409 249.506 60.1099 248.515 60.7176C241.415 64.9818 234.325 69.246 227.194 73.5102C226.298 74.0432 225.221 74.3097 224.198 75.0027C224.642 75.1675 225.103 75.2819 225.573 75.3438C236.298 75.9088 247.001 76.1434 257.555 73.265C259.175 72.8279 260.849 72.6254 262.491 72.3056C262.682 72.2946 262.875 72.2946 263.066 72.3056C264.26 72.167 268.205 76.3246 267.853 77.3906Z" fill="white"/>
<path d="M237.811 42.9359C230.999 44.4071 225.242 48.085 219.688 51.9547C218.696 52.637 217.694 53.298 216.671 53.9163C209.28 58.373 201.221 61.6125 192.802 63.5107C190.094 64.161 187.376 64.7154 184.668 65.3017C183.997 65.4741 183.288 65.4177 182.653 65.1416C182.017 64.8655 181.492 64.3854 181.161 63.7773C177.547 58.8095 173.773 53.9269 169.882 48.7672C170.976 48.6462 172.075 48.5822 173.176 48.5754C173.538 48.5754 173.965 49.0338 174.242 49.3749C176.193 52.04 178.101 54.7052 180.063 57.4023C180.672 58.2002 181.323 58.9653 182.014 59.6943C182.526 60.3435 183.239 60.8053 184.041 61.0077C184.843 61.2102 185.689 61.1419 186.448 60.8136C195.307 57.349 202.855 52.2852 207.076 43.3517C207.924 41.7441 208.456 39.989 208.644 38.1813C208.695 36.5093 209.204 34.8834 210.115 33.4801C211.468 31.5916 213.28 30.0798 215.381 29.0879C217.79 27.8087 220.402 26.9558 222.95 25.8258L225.924 29.024C225.88 29.2136 225.819 29.3991 225.743 29.5783C223.515 33.3734 221.18 37.1153 219.091 40.9851C216.295 46.2077 212.112 50.5571 207.002 53.5538C205.776 54.2894 204.507 54.9823 203.281 55.6859C202.844 55.9418 202.45 56.2723 202.034 56.5708C202.034 56.7413 202.034 56.9225 202.119 57.1038C202.878 57.1603 203.64 57.1245 204.39 56.9972C208.545 55.594 212.49 53.6323 216.117 51.1659C216.479 50.9526 216.82 50.7181 217.183 50.5049C220.956 48.1276 224.645 45.6331 228.483 43.3837C230.264 42.367 232.161 41.5688 234.133 41.0064C236.062 40.4414 236.681 40.8891 237.811 42.9359Z" fill="white"/>
<path d="M258.462 88.8508C257.289 89.9169 256.415 90.759 255.455 91.5053C247.027 98.0354 237.34 102.754 227.002 105.364C225.062 105.865 223.111 106.345 221.139 106.771C220.831 106.829 220.512 106.772 220.244 106.611C220.176 106.58 220.118 106.532 220.073 106.473C218.303 104.223 216.608 101.921 214.86 99.6392C211.662 95.5136 208.464 91.388 205.138 87.0278L206.673 86.9106C211.347 86.7094 216.029 86.9808 220.649 87.7208C222.472 87.966 224.284 88.2858 226.096 88.6163C233.84 90.2232 241.768 90.7505 249.656 90.1834C252.449 89.8955 255.221 89.3519 258.462 88.8508Z" fill="#00559D"/>
<path d="M158.399 66.8368C154.828 66.7728 151.225 66.9967 147.686 66.6022C139.413 65.6641 131.172 64.4701 122.943 63.3081C113.787 61.8894 104.447 62.2004 95.4064 64.2249C95.1593 64.2626 94.91 64.284 94.6602 64.2889C95.2145 63.9584 95.4917 63.7559 95.8008 63.6066C111.211 56.3331 127.782 51.833 144.754 50.313C145.208 50.2112 145.682 50.2494 146.114 50.4225C146.546 50.5957 146.916 50.8957 147.174 51.2831C149.7 54.8224 152.323 58.2977 154.945 61.773C156.118 63.3295 157.365 64.8326 158.581 66.357C158.527 66.5169 158.485 66.7302 158.399 66.8368Z" fill="#00559D"/>
<path d="M189.593 111.046C182.322 112.251 175.244 113.349 168.197 114.585C161.043 115.943 154.056 118.066 147.356 120.918C147.473 120.63 147.612 120.352 147.771 120.086C152.491 114.082 158.358 109.078 165.031 105.364C169.892 102.603 174.945 100.13 179.092 95.8547L189.593 111.046Z" fill="#00559D"/>
<path d="M86.2178 79.8958C88.9548 79.3208 91.7195 78.8867 94.501 78.5952C102.763 78.1261 111.025 77.849 119.297 77.5291C124.127 77.3159 128.956 77.0707 133.774 76.8362C134.343 76.7786 134.917 76.8001 135.48 76.9002C121.291 80.3755 108.264 86.2068 96.9103 95.6094L86.2178 79.8958Z" fill="#00559D"/>
<path d="M174.626 48.4048C181.022 47.7331 186.992 46.8377 192.642 44.5137C198.126 42.1305 203.221 38.9396 207.759 35.0471L208.111 35.239C207.807 37.3482 207.337 39.43 206.704 41.4648C205.006 45.8633 202.196 49.746 198.548 52.7329C195.052 55.5761 191.145 57.8729 186.96 59.545C184.626 60.4938 183.762 60.3872 182.184 58.4043C179.658 55.2488 177.291 51.9547 174.626 48.4048Z" fill="#00559D"/>
<path d="M155.48 97.7524C154.99 97.987 154.499 98.2428 153.998 98.456C146.152 101.835 138.53 105.641 131.76 110.908C126.728 114.82 122.422 119.436 119.842 125.385C119.522 126.12 119.277 126.888 118.925 127.847C116.068 123.647 113.328 119.638 110.535 115.545C124.063 105.822 139.212 100.311 155.48 97.7524Z" fill="#00559D"/>
<path d="M262.778 70.9091C251.509 74.2508 239.692 75.3375 228.003 74.1073C229.837 73.1052 231.702 72.1777 233.482 71.101C238.631 67.9668 243.738 64.7793 248.866 61.6131L249.345 61.304C252.213 59.5237 252.202 59.5556 254.484 62.0502C256.765 64.5448 259.398 67.2525 261.861 69.8644C262.181 70.2375 262.49 70.5893 262.778 70.9091Z" fill="#00559D"/>
<path d="M235.306 39.8122C229.88 40.5691 225.872 43.8205 221.565 46.411C219.614 47.5943 217.674 48.8096 215.755 50.0356C213.836 51.2616 211.619 52.6794 209.529 53.9587C208.399 54.5769 207.235 55.1321 206.043 55.6217L205.947 55.4618C207.866 54.1292 209.86 52.8926 211.693 51.4428C212.986 50.414 214.185 49.2724 215.275 48.0314C217.855 45.0338 220.007 41.6938 221.672 38.1065C223.047 35.2921 224.752 32.6376 226.447 29.6633C229.55 33.2026 232.396 36.4541 235.306 39.8122Z" fill="#00559D"/>
<path d="M364.862 181.565C368.135 180.499 371.408 179.433 374.638 178.186C375.772 177.838 376.787 177.181 377.57 176.288C378.203 175.469 378.653 174.524 378.89 173.516C379.127 172.509 379.146 171.462 378.945 170.446C379.009 166.001 376.578 162.494 373.817 159.2C371.579 156.513 369.031 154.093 366.813 151.407C359.891 143.013 353.033 134.577 346.238 126.099C333.233 109.777 320.269 93.3814 306.251 77.8917C288.416 58.1697 270.357 38.661 253.417 18.1928C249.622 13.6194 245.688 9.17395 241.861 4.62191C241.211 3.85435 240.987 2.61772 240.22 2.06337C239.548 1.51359 238.761 1.12413 237.917 0.924622C237.072 0.72511 236.194 0.720798 235.348 0.912032C232.715 1.62629 230.081 2.34054 227.47 3.04414C204.752 9.44045 182.066 15.986 159.338 22.3717C140.234 27.7801 121.088 33.0819 101.899 38.2772C85.0023 42.8612 68.0201 47.2107 51.0699 51.6881C46.6884 52.8395 42.2963 54.0121 37.9361 55.302C35.9426 55.8884 33.8318 56.432 32.6058 58.3616C31.9244 59.5444 31.1807 60.6903 30.3778 61.7943C28.227 64.4469 26.7625 67.5883 26.1136 70.941C24.8023 77.2094 25.0475 83.5098 25.6658 89.8102C25.9506 94.1246 27.1113 98.3359 29.0772 102.187C29.8554 103.626 30.9641 104.895 31.8809 106.27C34.3542 110.012 36.87 113.732 39.2687 117.538C45.665 127.708 52.2745 137.793 58.2764 148.155C68.5851 166.033 78.3608 184.198 88.6482 202.097C95.4923 214.005 102.805 225.636 109.969 237.352C114.639 244.995 119.468 252.543 124.105 260.187C131.567 272.521 139.03 284.866 147.771 296.368C150.127 299.46 152.494 299.823 155.884 298.298C156.349 298.059 156.83 297.853 157.323 297.68C177.109 291.34 196.902 285.008 216.702 278.683L291.241 254.792C298.341 252.511 305.718 251.083 312.477 247.757C313.43 247.311 314.413 246.934 315.419 246.626L373.881 227.171C375.365 226.756 376.658 225.837 377.539 224.573C378.42 223.309 378.834 221.778 378.71 220.242C378.809 217.725 378.037 215.252 376.525 213.238C372.261 207.854 367.997 202.513 363.807 197.14C363.295 196.479 362.57 195.722 362.56 195.008C362.506 191.042 362.336 187.077 363.413 183.175C363.473 182.796 363.643 182.442 363.9 182.156C364.157 181.87 364.491 181.665 364.862 181.565ZM34.3861 57.8179C34.9516 57.4588 35.5654 57.1824 36.2091 56.9971L40.4733 55.8031L43.5009 54.9502C50.4942 52.9461 57.4768 50.9206 64.4808 48.9697L70.1202 47.4133C73.894 46.3827 77.6821 45.3949 81.4843 44.4496C107.07 38.0533 132.516 31.0813 157.899 23.8855L227.139 4.27011C229.538 3.58783 231.926 2.87358 234.314 2.19131C236.702 1.50903 238.631 2.06337 240.411 4.24878C247.533 12.9584 254.739 21.6254 262.17 30.0686C276.156 45.9634 290.324 61.6984 304.439 77.4653C318.766 93.4561 332.156 110.257 345.535 127.005C352.358 135.533 359.394 143.923 366.323 152.323C368.679 155.17 371.195 157.867 373.604 160.671C374.212 161.374 374.67 162.206 375.342 163.144C369.947 164.956 364.766 166.832 359.521 168.474C330.194 177.525 300.825 186.469 271.508 195.563C235.703 206.671 199.909 217.84 164.125 229.069C163.283 229.335 162.44 229.602 161.598 229.9L159.37 230.668L156.044 231.851C154.818 232.299 153.581 232.747 152.334 233.184L150.586 233.791L148.379 234.505C146.695 235.049 146.076 236.35 145.106 237.576C144.888 237.382 144.688 237.168 144.509 236.936C137.964 226.35 131.173 215.903 124.937 205.136C112.57 183.815 100.14 162.494 86.7506 141.78C70.7172 116.963 54.6838 92.1413 38.6503 67.3165C37.1366 64.9925 35.6014 62.6791 33.9491 60.4404C33.7521 60.2638 33.6027 60.0404 33.5146 59.7909C33.4265 59.5414 33.4026 59.2737 33.4451 59.0126C33.4876 58.7514 33.595 58.5051 33.7576 58.2963C33.9202 58.0876 34.1327 57.9231 34.3755 57.8179H34.3861ZM56.027 136.706C55.8671 138.102 55.7498 139.52 55.6859 140.97C55.4194 140.668 55.1703 140.351 54.9396 140.021C49.4388 131.493 43.9344 122.964 38.4265 114.436C36.5289 111.483 34.5887 108.541 32.5632 105.662C28.0431 99.2021 26.5187 91.9103 26.3481 84.2027C26.0843 79.6475 26.3959 75.0772 27.2756 70.5999C27.8526 67.8731 29.0167 65.3048 30.6869 63.0736C31.3372 62.2207 32.0408 61.4105 32.9896 60.2805L55.3767 95.4602L66.9967 113.775C66.7622 113.988 66.5276 114.223 66.3037 114.457C65.6215 115.129 64.9818 115.822 64.3849 116.525L63.7879 117.24C63.3295 117.794 62.903 118.37 62.5086 118.945C62.338 119.169 62.1888 119.382 62.0395 119.606C61.4959 120.417 60.9735 121.237 60.5471 122.069C60.4085 122.303 60.2806 122.549 60.1526 122.794C60.0582 122.954 59.9763 123.122 59.9074 123.295C59.759 123.553 59.6273 123.82 59.513 124.094L59.1399 124.894C58.9586 125.331 58.7774 125.757 58.6068 126.195C58.4363 126.632 58.2018 127.261 58.0099 127.847C57.818 128.433 57.6261 129.02 57.4662 129.606C57.3063 130.192 57.1357 130.789 56.9971 131.408C56.8585 132.026 56.7306 132.623 56.6133 133.241C56.4961 133.859 56.3788 134.488 56.2935 135.107C56.2082 135.725 56.059 136.173 56.059 136.684L56.027 136.706ZM83.2753 188.942C83.1794 189.401 83.0941 189.849 83.0088 190.318L82.9448 190.637C80.6741 186.661 78.3182 182.717 76.1541 178.687C70.0669 167.408 64.1183 156.044 58.0312 144.786C56.7732 142.462 56.8799 140.117 57.0611 137.74C57.5291 130.621 60.0549 123.792 64.3316 118.082C65.0932 117.127 65.9157 116.223 66.7941 115.374L67.6043 114.532L98.9143 162.76C97.7323 163.607 96.6004 164.522 95.5242 165.5L94.5755 166.406C94.1704 166.811 93.7653 167.227 93.3708 167.653L93.3069 167.717C92.9444 168.122 92.5926 168.517 92.2408 168.922C91.889 169.327 91.5372 169.785 91.1748 170.222V170.276C90.8869 170.66 90.5991 171.065 90.3219 171.47C90.2591 171.543 90.2021 171.622 90.1513 171.704C89.2405 173.033 88.4213 174.422 87.6994 175.862C87.4436 176.352 87.209 176.843 86.9745 177.354C86.74 177.866 86.5587 178.271 86.3668 178.74C86.3365 178.798 86.3115 178.859 86.2922 178.921C86.0897 179.423 85.8871 179.924 85.7059 180.425C85.5247 180.926 85.3221 181.491 85.1515 182.013C84.981 182.535 84.8104 183.015 84.6612 183.527V183.633C84.4906 184.177 84.3413 184.699 84.2028 185.265C84.1716 185.348 84.1466 185.433 84.1281 185.52C83.883 186.48 83.6484 187.45 83.4459 188.441C83.3286 188.612 83.286 188.793 83.2646 188.953L83.2753 188.942ZM117.453 247.884C116.536 246.403 115.726 245.155 114.958 243.876C106.778 230.302 98.6051 216.727 90.4392 203.153C88.6056 200.125 86.7293 197.108 85.0023 194.017C84.5039 193.162 84.2702 192.179 84.3307 191.192C85.3968 181.992 88.5949 173.74 95.2258 167.056C96.3877 165.884 97.7416 164.924 99.1595 163.688C100.226 165.5 101.292 167.11 102.219 168.751C108.957 180.052 115.69 191.359 122.421 202.673C124.372 205.967 126.184 209.336 128.124 212.641C128.583 213.43 128.657 213.941 127.932 214.602C120.214 221.596 118.199 230.892 117.485 240.689C117.325 242.97 117.453 245.273 117.442 247.895L117.453 247.884ZM148.059 295.047C139.03 282.883 131.28 269.877 123.327 257.01C122.654 255.795 121.895 254.63 121.056 253.524C119.063 251.136 118.583 248.332 118.519 245.401C118.327 237.448 119.425 229.74 122.943 222.512C124.562 219.46 126.764 216.754 129.425 214.549C132.879 220.082 136.215 225.444 139.542 230.806C141.013 233.173 142.473 235.518 143.806 237.938C143.943 238.208 144.024 238.503 144.044 238.806C144.064 239.108 144.023 239.411 143.923 239.697C136.589 257.244 138.593 273.811 149.04 289.535C150.66 291.976 152.963 293.97 154.957 296.166C155.202 296.432 155.479 296.678 155.756 296.965C152.494 298.906 150.596 298.511 148.049 295.057L148.059 295.047ZM376.76 216.319C378.167 219.186 377.954 222.928 375.843 224.676C374.212 225.918 372.375 226.864 370.417 227.47C363.562 229.836 356.686 231.968 349.81 234.314C334.288 239.527 318.894 244.974 303.255 249.985C263.587 262.703 223.845 275.186 184.145 287.797C175.887 290.427 167.664 293.163 159.477 296.006C158.782 296.301 158.012 296.366 157.278 296.194C156.544 296.021 155.884 295.619 155.394 295.047C148.754 288.79 144.149 280.682 142.175 271.775C139.311 260.818 140.445 249.2 145.373 239.004C145.792 238.048 146.407 237.191 147.178 236.488C147.95 235.785 148.86 235.251 149.85 234.921C181.416 223.557 213.632 214.282 245.667 204.389C283.142 192.819 320.639 181.324 358.157 169.903C363.423 168.282 368.636 166.502 373.87 164.786C374.499 164.583 375.107 164.274 376.067 163.88C376.608 165.108 377.064 166.373 377.431 167.664C377.975 170.041 378.327 172.408 377.261 174.839C377.055 175.346 376.739 175.8 376.335 176.169C375.931 176.538 375.449 176.812 374.926 176.971C370.107 178.708 365.331 180.435 360.449 182.109C330.877 192.311 300.995 201.5 271.05 210.509C241.883 219.293 212.651 227.853 183.463 236.542C175.659 238.866 167.888 241.286 160.116 243.737C159.369 244.088 158.72 244.619 158.229 245.283C154.53 249.388 153.4 254.302 153.848 259.675C153.948 261.853 154.194 264.022 154.584 266.167C155.432 269.63 157.133 272.825 159.53 275.463C160.957 277.09 162.74 278.366 164.741 279.191C166.742 280.016 168.906 280.367 171.065 280.218C174.936 280.071 178.766 279.371 182.439 278.139C237.064 260.777 291.703 243.446 346.356 226.148L372.645 217.822C373.998 217.353 375.374 216.809 376.749 216.329L376.76 216.319ZM171.353 262.34L155.81 266.796C155.49 265.091 155.127 263.481 154.935 261.86C154.935 261.562 155.479 261.018 155.873 260.858C159.477 259.44 163.101 258.097 167.035 256.594L171.353 262.34ZM167.994 256.349C169.76 255.585 171.581 254.958 173.442 254.473C174.103 254.345 175.18 255.24 175.723 255.933C178.561 259.387 180.357 263.576 180.904 268.012C180.904 268.075 180.819 268.15 180.659 268.438C178.303 266.572 176.128 266.626 174.369 269.824C173.421 264.494 171.715 260.059 167.994 256.349ZM171.726 263.161C172.376 265.901 172.973 268.491 173.655 271.359C174.398 270.756 175.109 270.115 175.787 269.44C177.28 267.873 177.546 267.809 179.455 268.843L180.084 269.205C181.384 269.866 182.088 269.493 181.885 268.022C181.561 266.144 181.141 264.283 180.627 262.447C180.455 261.896 180.252 261.355 180.02 260.826L191.437 257.074C231.68 243.716 272.649 232.789 313.479 221.457C326.854 217.761 340.233 214.037 353.616 210.285C356.419 209.496 359.116 208.334 361.867 207.342C362.304 207.183 362.752 207.044 363.263 206.873C363.687 207.6 364.044 208.363 364.329 209.155C364.435 209.863 364.289 210.585 363.917 211.197C363.545 211.809 362.971 212.271 362.293 212.502C343.317 218.707 324.363 224.954 305.366 231.083C273.654 241.318 241.929 251.509 210.189 261.658C195.637 266.316 181.032 270.805 166.481 275.367C165.415 275.708 164.349 276.071 163.176 276.337C162.994 276.378 162.807 276.382 162.624 276.349C162.44 276.316 162.266 276.247 162.11 276.145C159.466 273.874 157.491 270.926 156.396 267.617L171.726 263.161ZM361.547 206.383C352.39 209.997 342.912 212.555 333.456 215.199C297.104 225.348 260.741 235.337 224.495 245.742C209.816 249.953 195.413 255.038 180.872 259.728L179.892 260.027C178.325 257.82 176.896 255.763 175.372 253.63C236.595 232.533 298.948 214.368 361.227 195.488C361.227 195.861 361.323 196.213 361.387 196.554C361.781 199.145 362.091 201.767 362.624 204.336C362.816 205.466 362.72 205.957 361.547 206.383ZM358.498 195.03C340.773 200.424 323.038 205.8 305.291 211.159C264.515 223.546 223.77 236.062 183.41 249.739C174.252 252.842 165.212 256.338 156.129 259.643C155.735 259.792 155.34 259.899 154.722 260.101C154.786 258.811 154.722 257.724 154.893 256.658C154.952 256.45 155.059 256.259 155.205 256.1C155.351 255.941 155.533 255.818 155.735 255.741C198.121 240.816 241.307 228.429 284.269 215.295C301.262 210.104 318.169 204.635 335.088 199.304C343.339 196.661 351.547 193.878 359.788 191.16C360.225 191.011 360.683 190.925 361.184 190.797C361.27 191.043 361.312 191.096 361.302 191.138C361.334 194.145 361.366 194.198 358.498 195.062V195.03ZM376.376 215.285C374.67 215.871 372.986 216.479 371.28 217.012L263.129 251.434C234.932 260.389 206.745 269.376 178.495 278.192C174.445 279.442 170.123 279.516 166.033 278.406C165.234 278.136 164.452 277.823 163.688 277.467C163.688 277.339 163.72 277.222 163.784 277.116C168.229 275.804 172.696 274.589 177.109 273.193C211.703 262.234 246.317 251.349 280.868 240.23C302.786 233.173 324.576 225.721 346.43 218.493C351.164 216.926 355.95 215.562 360.705 214.091C361.485 213.852 362.25 213.567 362.997 213.238C365.406 212.172 365.854 211.106 365.129 208.579C364.347 205.829 363.601 203.071 362.89 200.306C362.732 199.489 362.622 198.663 362.56 197.833C364.457 198.825 374.67 211.777 376.376 215.349V215.285ZM361.355 188.857C361.28 189.284 360.609 189.763 360.118 189.923C354.063 191.906 347.912 193.622 341.932 195.786C301.059 210.605 259.003 221.585 217.555 234.516C198.036 240.625 178.57 246.85 159.295 253.705C157.995 254.163 156.662 254.558 155.191 255.027C155.154 254.632 155.175 254.233 155.255 253.844C155.977 251.674 156.843 249.555 157.846 247.501C158.308 246.635 158.943 245.873 159.711 245.263C160.479 244.652 161.365 244.205 162.312 243.951C190.222 235.692 218.12 227.391 246.008 219.048C281.348 208.526 316.592 197.727 351.622 186.192C355.161 185.03 358.658 183.74 362.283 182.493C362.016 184.785 361.749 186.874 361.355 188.921V188.857Z" fill="#3A0D1F"/>
<path d="M261.86 69.8964C259.397 67.2846 256.903 64.7154 254.483 62.0822L254.439 62.034C252.212 59.5873 252.193 59.567 249.344 61.304L248.865 61.6132C243.737 64.7793 238.63 67.9669 233.481 71.101C231.701 72.1778 229.836 73.1052 228.002 74.1073C239.691 75.3376 251.508 74.2508 262.777 70.9091C262.489 70.5893 262.18 70.2375 261.86 69.8964Z" fill="#3A0D1F"/>
<path d="M221.552 46.4113C225.859 43.8208 229.868 40.5693 235.294 39.8124H235.304C232.394 36.4543 229.548 33.2029 226.382 29.6956C224.686 32.6698 222.981 35.3243 221.606 38.1387C221.446 38.4798 221.275 38.7997 221.115 39.1195L220.646 40.0256C220.486 40.3454 220.348 40.58 220.145 40.9637C219.943 41.3475 219.719 41.7206 219.505 42.0938C219.196 42.6055 218.919 43.0958 218.546 43.6715C218.173 44.2472 217.778 44.8228 217.384 45.3878L217.267 45.5478L216.819 46.1448C216.322 46.8105 215.792 47.451 215.231 48.0637C215.177 48.1383 215.113 48.1916 215.06 48.2662C214.921 48.4154 214.826 48.522 214.634 48.7246C214.442 48.9271 214.25 49.1297 214.047 49.3216C213.808 49.5767 213.556 49.8187 213.29 50.0465C212.747 50.5369 212.235 50.9953 211.681 51.443C209.847 52.8929 207.854 54.1295 205.935 55.462L206.031 55.622C207.222 55.1324 208.386 54.5772 209.517 53.9589C211.542 52.7223 213.525 51.443 215.529 50.1638C215.604 50.1275 215.675 50.0847 215.742 50.0358L218.631 48.2022L219.26 47.8184C220.017 47.3494 220.785 46.8697 221.552 46.4113Z" fill="#3A0D1F"/>
<path d="M207.768 35.0471C203.231 38.9381 198.135 42.1256 192.652 44.503H192.641C186.991 46.8483 181.053 47.7332 174.635 48.4048C177.311 51.9441 179.667 55.1955 182.194 58.3937C183.771 60.3872 184.624 60.4832 186.97 59.545C191.156 57.8771 195.064 55.5799 198.558 52.733C202.208 49.7441 205.018 45.8573 206.713 41.4541C207.348 39.42 207.819 37.338 208.12 35.2284L207.768 35.0471Z" fill="#3A0D1F"/>
<path d="M177.719 163.858C176.269 164.317 175.075 164.732 173.849 165.052C173.669 165.075 173.485 165.057 173.313 164.997C173.141 164.938 172.985 164.84 172.857 164.711C167.989 158.315 163.131 151.918 158.285 145.522C158.249 145.428 158.22 145.332 158.199 145.234C159.139 144.69 160.198 144.384 161.283 144.343C162.368 144.302 163.447 144.528 164.425 145C170.395 147.771 176.514 150.213 182.548 152.782C182.999 153.001 183.496 153.11 183.998 153.102L174.211 140.17C175.576 139.733 176.791 139.296 178.038 138.976C178.229 138.939 178.425 138.949 178.611 139.005C178.797 139.06 178.966 139.16 179.105 139.296C184.001 145.735 188.873 152.185 193.72 158.645C193.72 158.645 193.72 158.73 193.72 158.848C191.854 159.594 190.138 160.223 187.963 159.221C181.855 156.438 175.619 153.891 169.435 151.289C168.995 151.049 168.498 150.931 167.996 150.948L177.719 163.858Z" fill="#00559D"/>
<path d="M159.467 158.741L148.572 162.153C149.925 163.944 151.162 165.649 152.505 167.27C152.729 167.536 153.486 167.547 153.923 167.419C157.441 166.353 160.959 165.287 164.445 164.136C164.622 164.044 164.815 163.99 165.014 163.976C165.212 163.962 165.411 163.989 165.599 164.055C165.787 164.121 165.959 164.225 166.105 164.359C166.251 164.494 166.368 164.657 166.449 164.839C166.876 165.511 167.398 166.129 167.963 166.886C162.718 168.517 157.633 170.031 152.601 171.704C152.035 171.983 151.382 172.028 150.783 171.828C150.185 171.629 149.689 171.201 149.403 170.638C145.139 164.828 140.725 159.114 136.365 153.358C136.088 152.995 135.832 152.633 135.459 152.121C138.188 151.258 140.789 150.426 143.433 149.616C146.077 148.806 148.476 148.123 150.96 147.26C151.153 147.15 151.367 147.082 151.589 147.061C151.81 147.039 152.034 147.065 152.245 147.135C152.456 147.205 152.65 147.319 152.814 147.469C152.978 147.619 153.109 147.802 153.198 148.006C153.642 148.679 154.122 149.327 154.637 149.946L142.303 153.816C143.561 155.469 144.67 157.014 145.885 158.475C146.076 158.63 146.302 158.738 146.542 158.79C146.783 158.842 147.033 158.836 147.271 158.773C150.053 157.974 152.836 157.132 155.576 156.183C156.759 155.778 157.612 155.778 158.241 157.004C158.601 157.615 159.011 158.197 159.467 158.741Z" fill="#00559D"/>
<path d="M299.835 125.917C298.342 126.408 297.106 126.856 295.848 127.154C295.517 127.229 294.963 126.856 294.707 126.536C292.916 124.233 291.2 121.898 289.377 119.617C289.223 119.432 289.028 119.284 288.808 119.186C288.588 119.088 288.349 119.042 288.108 119.052C284.547 120.118 280.987 121.184 277.224 122.368L283.695 130.896C282.245 131.365 280.934 131.823 279.59 132.186C279.425 132.19 279.261 132.156 279.111 132.085C278.961 132.015 278.829 131.911 278.727 131.781C273.851 125.384 268.997 118.988 264.165 112.592C264.126 112.475 264.105 112.353 264.101 112.229C265.316 111.846 266.531 111.366 267.8 111.099C268.044 111.098 268.285 111.151 268.506 111.254C268.728 111.358 268.923 111.509 269.079 111.696C270.806 113.828 272.426 116.12 274.164 118.285C274.343 118.474 274.563 118.619 274.807 118.71C275.051 118.801 275.312 118.834 275.571 118.807C279.047 117.741 282.511 116.675 286.232 115.502L280.081 107.24C281.509 106.782 282.767 106.345 284.057 105.993C284.224 105.975 284.393 105.994 284.552 106.049C284.71 106.105 284.854 106.195 284.974 106.313C289.899 112.794 294.856 119.276 299.835 125.917Z" fill="#00559D"/>
<path d="M218.196 149.488C216.41 151.696 213.944 153.251 211.182 153.912C210.904 153.997 210.638 154.061 210.35 154.136C206.741 154.913 202.983 154.621 199.537 153.296C196.091 151.97 193.106 149.669 190.948 146.673C190.218 145.634 189.646 144.491 189.253 143.283C188.744 141.906 188.676 140.406 189.058 138.988C189.44 137.571 190.253 136.308 191.385 135.373C195.127 132.015 202.952 131.056 207.536 133.401C207.216 134.36 206.907 135.341 206.672 136.013C204.21 136.013 201.928 135.874 199.658 136.013C198.712 136.137 197.804 136.46 196.992 136.962C195.835 137.482 194.929 138.437 194.47 139.62C194.012 140.803 194.037 142.119 194.541 143.283C196.673 149.445 205.414 152.878 211.118 149.68C211.448 149.487 211.765 149.274 212.066 149.04C212.482 148.72 212.909 148.368 213.378 148.027L212.674 147.089C211.363 145.362 210.105 143.688 208.794 141.94C210.062 141.535 211.16 141.119 212.301 140.874C212.506 140.878 212.708 140.927 212.892 141.017C213.076 141.107 213.238 141.237 213.367 141.396L214.081 142.303C215.51 144.157 216.885 146.055 218.346 147.878C218.879 148.518 218.601 148.965 218.196 149.488Z" fill="#00559D"/>
<path d="M269.046 135.277C266.863 136.463 264.512 137.308 262.074 137.783C260.08 138.209 257.938 137.9 255.859 137.974C254.793 138.028 254.43 137.441 254.302 136.535C254.206 135.906 254.068 135.288 253.929 134.51C254.636 134.602 255.348 134.648 256.061 134.648C258.321 134.488 260.571 134.275 262.809 134.051C263.26 133.981 263.693 133.83 264.089 133.604C265.208 133.028 266.509 132.538 266.381 130.939C266.245 130.261 265.885 129.648 265.359 129.2C264.833 128.751 264.172 128.492 263.481 128.465C261.992 128.341 260.496 128.312 259.004 128.38C256.605 128.38 254.206 128.657 251.808 128.551C250.483 128.495 249.191 128.118 248.044 127.454C246.896 126.789 245.927 125.856 245.22 124.734C243.439 122.122 243.876 119.521 246.531 117.805C247.768 116.968 249.149 116.365 250.603 116.024C252.948 115.545 255.358 115.427 257.724 115.182C258.737 115.076 259.355 115.459 259.43 116.568C259.522 117.135 259.654 117.694 259.824 118.242C257.223 118.583 254.771 118.892 252.362 119.308C251.863 119.36 251.392 119.56 251.008 119.884C250.284 120.438 249.718 121.174 249.366 122.016C249.286 122.57 249.418 123.134 249.737 123.595C250.055 124.056 250.536 124.379 251.083 124.5C252.431 124.868 253.822 125.05 255.219 125.043C258.151 125.043 261.104 124.702 264.035 124.809C265.27 124.85 266.478 125.181 267.562 125.776C268.645 126.37 269.574 127.211 270.272 128.231C272.169 130.779 271.86 133.678 269.046 135.277Z" fill="#00559D"/>
<path d="M242.62 143.689C239.549 144.637 236.639 145.554 233.718 146.482C231.511 147.164 229.305 147.857 227.087 148.486C226.871 148.526 226.649 148.515 226.438 148.454C226.227 148.393 226.033 148.283 225.872 148.134C222.517 143.77 219.181 139.389 215.862 134.99L211.47 129.18C211.358 129.005 211.265 128.819 211.192 128.625C212.461 128.22 213.666 127.879 214.86 127.453C215.67 127.154 216 127.677 216.384 128.199L217.13 129.18C220.638 133.806 224.166 138.422 227.62 143.038C227.821 143.428 228.167 143.725 228.583 143.864C228.999 144.003 229.453 143.975 229.848 143.785C232.94 142.719 236.085 141.844 239.187 140.832C239.954 140.576 240.434 140.618 240.893 141.333C241.351 142.047 242.012 142.814 242.62 143.689Z" fill="#00559D"/>
<path d="M251.009 141.087C249.794 141.482 248.643 141.897 247.459 142.153C247.26 142.199 247.053 142.198 246.853 142.152C246.654 142.106 246.467 142.015 246.308 141.887C241.362 135.49 236.479 128.966 231.437 122.325C232.887 121.856 234.198 121.408 235.53 121.045C235.696 121.037 235.861 121.067 236.013 121.134C236.165 121.201 236.299 121.302 236.405 121.429C241.266 127.826 246.113 134.222 250.945 140.618C250.999 140.746 250.977 140.853 251.009 141.087Z" fill="#00559D"/>
<path d="M195.338 159.274C195.19 159.361 195.037 159.439 194.88 159.509C191.874 160.991 189.07 160.724 186.01 159.221C181.011 156.78 175.776 154.797 170.467 152.825L179.198 164.391C177.183 165.02 175.318 165.628 173.431 166.161C173.267 166.172 173.103 166.145 172.951 166.082C172.8 166.019 172.665 165.922 172.557 165.798C167.227 158.826 161.95 151.844 156.513 144.669C158.25 144.126 159.849 143.603 161.481 143.166C161.854 143.07 162.344 143.358 162.76 143.529L180.062 150.852C180.456 151.012 180.872 151.151 181.661 151.449L172.738 139.638C174.721 139.009 176.554 138.369 178.431 137.878C178.772 137.793 179.39 138.241 179.667 138.603C184.223 144.552 188.757 150.518 193.27 156.502C193.942 157.345 194.645 158.283 195.338 159.274ZM177.716 163.858L167.994 150.948C168.492 150.906 168.993 150.998 169.444 151.215C175.627 153.837 181.863 156.364 187.972 159.146C190.104 160.148 191.863 159.519 193.729 158.773C193.729 158.656 193.729 158.592 193.729 158.571C188.846 152.139 183.964 145.689 179.081 139.222C178.943 139.086 178.773 138.986 178.588 138.93C178.402 138.874 178.205 138.865 178.015 138.902C176.768 139.222 175.552 139.659 174.188 140.096L183.985 153.08C183.483 153.089 182.987 152.979 182.535 152.761C176.48 150.191 170.361 147.75 164.412 144.978C163.434 144.506 162.355 144.281 161.27 144.322C160.185 144.363 159.126 144.669 158.186 145.213C158.207 145.311 158.236 145.407 158.272 145.501C163.126 151.897 167.983 158.293 172.845 164.69C172.973 164.819 173.129 164.917 173.3 164.976C173.472 165.035 173.656 165.054 173.836 165.031C175.073 164.732 176.267 164.317 177.716 163.858Z" fill="#3A0D1F"/>
<path d="M156.151 150.501L143.795 154.36C144.702 155.554 145.49 156.695 146.407 157.707C146.61 157.942 147.335 157.835 147.761 157.707C150.586 156.865 153.401 155.991 156.204 155.063C157.132 154.754 157.761 154.776 158.336 155.714C159.083 156.897 160.01 157.963 160.991 159.242L150.085 162.675C151.087 163.986 151.983 165.223 152.953 166.385C153.113 166.566 153.688 166.513 154.019 166.385C157.665 165.319 161.321 164.2 164.946 163.016C165.092 162.94 165.251 162.894 165.415 162.88C165.579 162.867 165.744 162.887 165.9 162.938C166.057 162.99 166.201 163.073 166.324 163.181C166.448 163.29 166.548 163.422 166.62 163.571C167.504 164.829 168.464 166.033 169.477 167.376L159.466 170.511C156.791 171.353 154.136 172.216 151.407 172.984C151.173 173.051 150.926 173.062 150.687 173.015C150.449 172.969 150.224 172.867 150.032 172.717C144.702 165.777 139.425 158.805 134.041 151.652C135.832 151.076 137.484 150.533 139.137 150.021C143.262 148.742 147.388 147.495 151.492 146.173C151.648 146.088 151.818 146.036 151.994 146.017C152.17 145.999 152.347 146.016 152.517 146.066C152.686 146.117 152.844 146.2 152.981 146.312C153.118 146.423 153.231 146.561 153.315 146.716C154.136 147.974 155.138 149.168 156.151 150.501ZM159.498 158.741C159.037 158.211 158.62 157.644 158.251 157.046C157.622 155.82 156.769 155.82 155.586 156.226C152.846 157.174 150.064 158.016 147.281 158.816C147.043 158.879 146.794 158.884 146.553 158.832C146.312 158.781 146.087 158.673 145.896 158.518C144.68 157.068 143.572 155.511 142.314 153.859L154.648 149.989C154.133 149.369 153.652 148.722 153.209 148.049C153.12 147.845 152.989 147.662 152.824 147.512C152.66 147.362 152.466 147.248 152.255 147.178C152.044 147.107 151.821 147.082 151.599 147.104C151.378 147.125 151.163 147.193 150.97 147.303C148.486 148.166 145.949 148.87 143.444 149.659C140.938 150.448 138.199 151.3 135.47 152.164C135.843 152.676 136.098 153.038 136.376 153.4C140.736 159.157 145.149 164.871 149.414 170.681C149.699 171.244 150.195 171.671 150.794 171.871C151.392 172.07 152.046 172.026 152.612 171.747C157.643 170.074 162.728 168.549 167.973 166.929C167.408 166.172 166.907 165.553 166.46 164.882C166.379 164.7 166.262 164.537 166.115 164.402C165.969 164.267 165.797 164.164 165.609 164.098C165.422 164.032 165.223 164.005 165.024 164.019C164.826 164.033 164.632 164.087 164.455 164.178C160.969 165.351 157.452 166.406 153.934 167.462C153.496 167.59 152.74 167.579 152.516 167.312C151.172 165.692 149.936 163.986 148.582 162.195L159.498 158.741Z" fill="#3A0D1F"/>
<path d="M278.757 122.901L285.207 131.429C283.139 132.079 281.23 132.708 279.29 133.263C279.125 133.263 278.961 133.224 278.813 133.15C278.665 133.076 278.537 132.969 278.437 132.836C273.107 125.875 267.841 118.892 262.447 111.75C264.504 111.099 266.423 110.46 268.363 109.927C268.63 109.852 269.152 110.247 269.429 110.545C271.135 112.677 272.777 114.969 274.482 117.144C274.738 117.474 275.335 117.858 275.634 117.773C278.682 116.899 281.689 115.939 284.855 114.958L278.65 106.739C280.655 106.1 282.52 105.481 284.407 104.938C284.57 104.93 284.733 104.959 284.882 105.024C285.032 105.088 285.165 105.187 285.271 105.311C290.551 112.233 295.81 119.169 301.048 126.12C301.095 126.247 301.123 126.38 301.134 126.514L295.089 128.412C293.49 126.28 291.891 124.148 290.27 122.08C288.65 120.012 288.565 119.83 286.006 120.641L278.757 122.901ZM299.844 125.928C294.801 119.276 289.897 112.805 284.972 106.345C284.857 106.224 284.715 106.133 284.557 106.077C284.4 106.021 284.232 106.004 284.066 106.025C282.776 106.366 281.508 106.803 280.079 107.262L286.283 115.481C282.531 116.653 279.077 117.762 275.623 118.775C275.363 118.805 275.1 118.774 274.854 118.685C274.608 118.597 274.386 118.452 274.205 118.263C272.478 116.131 270.858 113.85 269.131 111.686C268.978 111.493 268.784 111.338 268.562 111.233C268.34 111.127 268.097 111.074 267.851 111.078C266.593 111.355 265.367 111.824 264.152 112.208C264.156 112.331 264.178 112.453 264.216 112.571C269.063 118.967 273.917 125.363 278.778 131.759C278.881 131.889 279.012 131.994 279.162 132.064C279.312 132.134 279.476 132.169 279.642 132.165C280.985 131.802 282.296 131.344 283.746 130.875L277.286 122.346C281.049 121.184 284.599 120.065 288.17 119.031C288.408 119.023 288.644 119.07 288.86 119.168C289.076 119.266 289.267 119.412 289.418 119.596C291.219 121.877 292.946 124.222 294.748 126.504C295.004 126.834 295.558 127.207 295.878 127.133C297.115 126.866 298.34 126.429 299.844 125.928Z" fill="#3A0D1F"/>
<path d="M208.847 132.91C208.335 134.488 207.845 135.981 207.472 137.111C204.988 136.961 202.707 136.716 200.436 136.738C199.444 136.832 198.487 137.157 197.643 137.686C197.137 137.926 196.683 138.264 196.307 138.679C195.931 139.095 195.641 139.58 195.453 140.108C195.265 140.635 195.183 141.195 195.211 141.754C195.239 142.314 195.377 142.862 195.617 143.368C197.643 148.699 204.871 151.588 209.967 149.125C210.706 148.713 211.418 148.254 212.099 147.75L207.312 141.354C209.22 140.746 210.979 140.16 212.749 139.659C212.973 139.595 213.41 139.893 213.602 140.128C215.595 142.718 217.589 145.309 219.508 147.963C219.626 148.2 219.688 148.461 219.688 148.725C219.688 148.99 219.626 149.251 219.508 149.488C217.961 151.755 215.679 153.42 213.047 154.2C209.03 155.581 204.68 155.665 200.613 154.438C196.546 153.212 192.967 150.738 190.383 147.366C189.484 146.163 188.765 144.834 188.251 143.422C187.561 141.71 187.513 139.807 188.117 138.063C188.72 136.319 189.934 134.853 191.535 133.934C197.057 130.597 202.856 130.491 208.847 132.91ZM207.525 133.38C202.941 131.045 195.116 132.015 191.375 135.362C190.242 136.299 189.429 137.564 189.047 138.983C188.665 140.402 188.733 141.905 189.242 143.283C189.638 144.487 190.209 145.626 190.938 146.663C193.179 149.784 196.317 152.149 199.935 153.443C203.553 154.738 207.48 154.902 211.192 153.912C213.956 153.248 216.425 151.693 218.218 149.488C218.612 148.965 218.889 148.507 218.346 147.825C216.651 145.692 215.052 143.486 213.367 141.343C213.24 141.182 213.078 141.052 212.894 140.963C212.709 140.875 212.506 140.83 212.301 140.831C211.161 141.087 210.062 141.503 208.794 141.897L213.378 147.974C212.66 148.58 211.902 149.136 211.107 149.637C205.415 152.835 196.673 149.381 194.541 143.241C194.042 142.075 194.017 140.761 194.474 139.578C194.93 138.395 195.83 137.437 196.982 136.908C197.799 136.415 198.711 136.099 199.658 135.981C201.929 135.874 204.21 135.981 206.672 135.981L207.525 133.38Z" fill="#3A0D1F"/>
<path d="M252.596 133.348C255.69 134.116 258.926 134.116 262.02 133.348C262.813 133.156 263.569 132.836 264.259 132.399C264.738 132.047 265.325 131.28 265.229 130.832C265.114 130.508 264.928 130.215 264.685 129.973C264.441 129.731 264.146 129.547 263.822 129.435C262.771 129.213 261.696 129.13 260.623 129.19C257.681 129.244 254.717 129.553 251.786 129.382C250.255 129.301 248.766 128.847 247.451 128.059C246.135 127.271 245.032 126.174 244.238 124.862C242.33 121.93 242.831 118.903 245.848 117.123C247.713 116.021 249.754 115.249 251.882 114.841C254.307 114.544 256.754 114.455 259.195 114.575C259.396 114.609 259.586 114.692 259.748 114.816C259.909 114.941 260.038 115.103 260.122 115.289C260.559 116.653 260.869 118.071 261.188 119.393C258.971 119.478 256.85 119.457 254.792 119.67C253.67 119.827 252.586 120.188 251.594 120.736C251.05 121.024 250.336 121.909 250.443 122.336C250.565 122.702 250.767 123.036 251.034 123.315C251.301 123.593 251.627 123.808 251.988 123.945C253.091 124.183 254.223 124.254 255.346 124.158C258.257 124.158 261.167 123.807 264.045 123.977C265.528 124.046 266.973 124.469 268.258 125.211C269.543 125.953 270.632 126.992 271.433 128.241C273.331 131.077 272.947 134.211 269.994 135.917C267.726 137.216 265.253 138.117 262.681 138.582C260.229 139.041 257.628 138.71 255.101 138.678C254.888 138.701 254.672 138.678 254.468 138.61C254.264 138.542 254.077 138.431 253.92 138.284C253.764 138.138 253.64 137.959 253.559 137.76C253.477 137.561 253.44 137.347 253.449 137.132C253.233 135.856 252.948 134.593 252.596 133.348ZM259.824 118.242C259.647 117.696 259.519 117.136 259.44 116.568C259.455 116.353 259.418 116.138 259.332 115.94C259.246 115.742 259.114 115.568 258.947 115.432C258.78 115.296 258.582 115.203 258.371 115.159C258.16 115.116 257.942 115.124 257.734 115.182C255.357 115.428 252.948 115.545 250.602 116.014C249.149 116.363 247.77 116.969 246.53 117.805C243.876 119.51 243.449 122.133 245.208 124.734C245.921 125.853 246.893 126.785 248.041 127.449C249.19 128.113 250.482 128.491 251.807 128.551C254.195 128.668 256.604 128.423 259.014 128.391C260.503 128.314 261.995 128.339 263.48 128.465C264.171 128.491 264.833 128.748 265.36 129.195C265.888 129.641 266.251 130.251 266.391 130.928C266.508 132.548 265.218 133.06 264.088 133.604C263.694 133.831 263.26 133.979 262.809 134.041C260.559 134.275 258.31 134.489 256.061 134.648C255.348 134.647 254.636 134.601 253.929 134.51C254.078 135.288 254.216 135.906 254.312 136.535C254.44 137.441 254.803 138.017 255.869 137.985C257.948 137.9 260.133 138.198 262.095 137.783C264.531 137.313 266.879 136.468 269.056 135.277C271.881 133.678 272.179 130.779 270.25 128.146C269.55 127.128 268.622 126.289 267.538 125.696C266.455 125.104 265.248 124.774 264.013 124.734C261.071 124.628 258.129 124.958 255.176 124.958C253.783 124.974 252.394 124.794 251.05 124.425C250.503 124.304 250.022 123.981 249.704 123.52C249.386 123.059 249.253 122.495 249.334 121.941C249.504 121.152 250.336 120.47 250.976 119.809C251.359 119.486 251.831 119.285 252.329 119.233C254.771 118.892 257.223 118.583 259.824 118.242Z" fill="#3A0D1F"/>
<path d="M209.741 128.113C211.66 127.516 213.494 126.866 215.381 126.397C215.754 126.301 216.447 126.781 216.724 127.175C220.541 132.15 224.329 137.143 228.088 142.153C228.251 142.488 228.54 142.744 228.892 142.866C229.244 142.988 229.629 142.965 229.964 142.804C233.163 141.738 236.361 140.831 239.559 139.776C239.705 139.701 239.864 139.656 240.028 139.643C240.192 139.631 240.356 139.651 240.512 139.703C240.668 139.754 240.812 139.836 240.935 139.944C241.059 140.052 241.16 140.183 241.233 140.33C242.128 141.588 243.088 142.804 244.143 144.189L237.843 146.172L227.182 149.488C226.521 149.69 225.999 149.85 225.434 149.093C220.295 142.228 215.093 135.395 209.901 128.55C209.836 128.409 209.783 128.263 209.741 128.113ZM211.234 128.636C211.313 128.82 211.405 128.998 211.511 129.169C216.301 135.501 221.102 141.823 225.913 148.134C226.072 148.283 226.264 148.393 226.474 148.454C226.683 148.515 226.904 148.526 227.118 148.486C229.346 147.857 231.553 147.164 233.76 146.471L242.661 143.688C242 142.814 241.414 142.132 240.934 141.364C240.454 140.597 239.996 140.608 239.228 140.863C236.126 141.876 232.981 142.772 229.89 143.816C229.495 144.01 229.04 144.04 228.623 143.9C228.206 143.76 227.861 143.462 227.662 143.07C223.952 138.081 220.199 133.156 216.426 128.145C216.031 127.623 215.711 127.079 214.901 127.399C213.718 127.879 212.502 128.231 211.234 128.636Z" fill="#3A0D1F"/>
<path d="M252.746 141.546C250.881 142.122 249.207 142.559 247.597 143.166C247.424 143.26 247.233 143.318 247.037 143.336C246.84 143.354 246.642 143.333 246.454 143.273C246.266 143.214 246.092 143.117 245.943 142.989C245.793 142.86 245.67 142.703 245.583 142.527C241.201 136.674 236.766 130.864 232.353 125.033L229.965 121.835C232.001 121.184 233.877 120.577 235.775 120.033C235.937 120.015 236.101 120.035 236.254 120.09C236.408 120.145 236.546 120.235 236.66 120.353C242.001 127.357 247.31 134.382 252.746 141.546ZM251.009 141.098C251.009 140.853 251.009 140.746 250.955 140.682C246.116 134.286 241.265 127.89 236.404 121.493C236.299 121.364 236.165 121.261 236.014 121.192C235.862 121.124 235.696 121.092 235.53 121.099C234.197 121.461 232.896 121.92 231.436 122.389C236.468 129.02 241.372 135.491 246.307 141.94C246.467 142.068 246.653 142.159 246.853 142.205C247.052 142.251 247.259 142.252 247.459 142.207C248.642 141.898 249.793 141.482 251.009 141.098Z" fill="#3A0D1F"/>
</svg>
