<svg width="118" height="101" viewBox="0 0 118 101" fill="none" xmlns="http://www.w3.org/2000/svg">
<path d="M115.654 50.9663C115.24 50.5793 114.798 50.223 114.332 49.9003C113.869 49.5666 113.389 49.257 112.893 48.9728C111.912 48.3971 110.889 47.9068 109.908 47.2991L106.71 45.4015L93.9815 37.9392L77.0952 27.9716L60.9339 18.4304L50.5505 12.3006L48.6316 11.1599L40.1032 5.9576L39.7514 5.73374L38.9838 5.254C37.6833 4.4438 36.372 3.62296 34.9861 2.94068C34.179 2.5354 33.3369 2.20359 32.4703 1.94926L31.8946 1.81067C31.471 1.70956 31.0394 1.64536 30.6047 1.61879C29.9677 1.57077 29.3271 1.62474 28.7071 1.77869C27.2952 2.2071 26.0319 3.0234 25.0612 4.13466C22.9294 6.35313 20.9559 8.71849 19.1553 11.2133C18.5796 12.0021 18.0892 12.823 17.4816 13.6439C24.3683 17.6949 31.255 22.1723 38.0457 26.3619C44.1009 30.1215 50.1632 33.874 56.2326 37.6194C62.302 41.3648 68.3429 45.1208 74.3555 48.8875L96.4121 62.469C99.9514 64.6864 103.48 66.8932 106.955 69.0892L110.729 71.4559L111.188 71.7543C111.934 70.3045 112.424 68.7481 113.106 67.2663C113.412 66.5982 113.732 65.9266 114.066 65.2514C115.098 63.2809 115.934 61.2135 116.56 59.079C116.754 58.3602 116.903 57.6304 117.008 56.8936C117.117 56.156 117.167 55.411 117.157 54.6655C117.178 53.6291 116.885 52.6107 116.315 51.7446C116.118 51.4666 115.897 51.2062 115.654 50.9663ZM36.1055 14.8591C35.6791 15.6693 35.242 16.5542 34.176 16.4689C33.0645 16.2241 32.0224 15.7323 31.127 15.0297C29.965 14.3261 28.8137 13.6012 27.6944 12.8336C27.0121 12.3859 25.6262 11.8209 26.1166 10.8082C26.7447 9.68927 27.4574 8.6201 28.2487 7.61C28.6218 7.07697 29.432 5.37128 30.2316 6.2028C31.5281 6.77995 32.7759 7.46089 33.9627 8.23897C35.1385 8.94226 36.2739 9.71104 37.3634 10.5416C37.4864 10.6109 37.5934 10.7054 37.6773 10.8189C37.7612 10.9324 37.8202 11.0624 37.8503 11.2003C37.8805 11.3382 37.8813 11.4809 37.8525 11.619C37.8237 11.7572 37.766 11.8878 37.6833 12.0021C37.3981 12.3961 37.1348 12.8054 36.8944 13.2281C36.6172 13.7824 36.3827 14.3261 36.1055 14.8591ZM47.0432 21.6606C46.6168 22.4708 46.1797 23.3556 45.1243 23.2703C44.0089 23.0278 42.9628 22.5357 42.0647 21.8311C40.9027 21.1275 39.7621 20.4026 38.632 19.6457C37.9498 19.1873 36.5639 18.5797 37.065 17.6096C37.6853 16.486 38.3985 15.4162 39.1971 14.4114C39.5595 13.8784 40.3804 12.1727 41.1693 13.0042C42.4658 13.5814 43.7136 14.2623 44.9004 15.0404C46.0762 15.7437 47.2116 16.5125 48.3011 17.3431C48.4241 17.4124 48.5311 17.5068 48.615 17.6203C48.6989 17.7338 48.7578 17.8638 48.788 18.0017C48.8182 18.1396 48.819 18.2823 48.7902 18.4205C48.7614 18.5587 48.7037 18.6892 48.621 18.8035C48.3544 19.2086 48.0666 19.5924 47.8321 20.0295C47.5975 20.4666 47.3204 21.1275 47.0432 21.6606ZM57.9809 28.462C57.5545 29.2722 57.1174 30.157 56.062 30.0717C54.9466 29.8292 53.9005 29.3372 53.0024 28.6326C51.8404 27.929 50.6998 27.204 49.5697 26.4471C48.8875 25.9887 47.5016 25.3811 48.0026 24.411C48.6256 23.2889 49.3386 22.2194 50.1348 21.2128C50.4972 20.6904 51.3181 18.9741 52.107 19.8056C53.4014 20.387 54.6488 21.0678 55.8381 21.8418C57.0164 22.545 58.152 23.3175 59.2388 24.1551C59.3615 24.2233 59.4683 24.3168 59.5521 24.4293C59.636 24.5419 59.6949 24.671 59.7252 24.808C59.7554 24.9451 59.7562 25.087 59.7275 25.2244C59.6988 25.3617 59.6412 25.4915 59.5587 25.605C59.2921 26.0101 59.0043 26.3938 58.7698 26.8309C58.5353 27.268 58.2581 27.929 57.9809 28.462ZM68.9186 35.2634C68.4922 36.0843 68.0551 36.9584 66.9997 36.8731C65.8857 36.6264 64.8405 36.1348 63.9401 35.434C62.7781 34.7304 61.6375 34.0054 60.5074 33.2485C59.8252 32.7901 58.4393 32.2358 58.9403 31.2124C59.5672 30.0927 60.28 29.0235 61.0725 28.0142C61.4349 27.4919 62.2558 25.7862 63.0446 26.607C64.3391 27.1884 65.5865 27.8692 66.7758 28.6432C67.9534 29.3476 69.0889 30.12 70.1765 30.9565C70.2992 31.0247 70.406 31.1182 70.4898 31.2308C70.5737 31.3433 70.6326 31.4724 70.6629 31.6094C70.6931 31.7465 70.6939 31.8884 70.6652 32.0258C70.6365 32.1632 70.5789 32.2929 70.4964 32.4064C70.2298 32.8115 69.942 33.1953 69.7075 33.6323C69.4729 34.0694 69.1958 34.7517 68.9186 35.2634ZM79.8563 42.0648C79.4299 42.8856 78.9928 43.7598 77.9374 43.6745C76.8234 43.4279 75.7782 42.9362 74.8778 42.2354C73.7158 41.5424 72.5752 40.8068 71.4451 40.1033C70.7629 39.6448 69.377 39.0372 69.878 38.0778C70.5027 36.9568 71.2156 35.8873 72.0101 34.8796C72.3726 34.3572 73.1935 32.6515 73.9823 33.4724C75.2786 34.0459 76.5264 34.7233 77.7135 35.4979C78.8911 36.2023 80.0266 36.9748 81.1142 37.8112C81.2369 37.8795 81.3437 37.9729 81.4275 38.0855C81.5114 38.198 81.5703 38.3271 81.6006 38.4642C81.6308 38.6012 81.6316 38.7431 81.6029 38.8805C81.5742 39.0179 81.5166 39.1476 81.4341 39.2611C81.1675 39.6769 80.8797 40.05 80.6452 40.487C80.4106 40.9241 80.1335 41.5424 79.8563 42.0648ZM88.8751 50.476C87.7633 50.2285 86.7191 49.7409 85.8155 49.0474C84.6535 48.3439 83.5129 47.6083 82.3828 46.8514C81.7006 46.393 80.3147 45.7853 80.8157 44.8259C81.4404 43.7049 82.1533 42.6355 82.9479 41.6277C83.3103 41.1054 84.1312 39.3997 84.92 40.2312C86.2163 40.8047 87.4641 41.482 88.6512 42.2567C89.8264 42.9648 90.9617 43.7371 92.0519 44.57C92.1746 44.6382 92.2814 44.7317 92.3652 44.8443C92.4491 44.9568 92.508 45.0859 92.5383 45.2229C92.5685 45.36 92.5693 45.5019 92.5406 45.6393C92.5119 45.7767 92.4543 45.9064 92.3717 46.0199C92.1052 46.4356 91.8174 46.8194 91.5829 47.2565C91.3483 47.6936 91.0605 48.3225 90.7833 48.8449C90.3676 49.6764 89.9412 50.5612 88.8751 50.476ZM99.6422 57.1708C98.529 56.9276 97.4838 56.4396 96.5827 55.7423C95.4207 55.0387 94.28 54.3031 93.15 53.5462C92.4677 53.0878 91.0818 52.5334 91.5829 51.5207C92.2062 50.3989 92.9192 49.3294 93.715 48.3225C94.0774 47.8002 94.8983 46.0945 95.6872 46.926C96.9835 47.4995 98.2313 48.1768 99.4184 48.9515C100.592 49.6622 101.727 50.4343 102.819 51.2648C102.942 51.333 103.049 51.4265 103.132 51.5391C103.216 51.6516 103.275 51.7807 103.305 51.9177C103.336 52.0548 103.336 52.1967 103.308 52.3341C103.279 52.4715 103.221 52.6012 103.139 52.7147C102.872 53.1304 102.585 53.5142 102.35 53.9513C102.115 54.3884 101.828 55.0173 101.55 55.5397C101.135 56.3819 100.698 57.256 99.6422 57.1388V57.1708ZM113.917 59.4308C113.63 59.8275 113.367 60.2404 113.128 60.6674C112.84 61.1898 112.605 61.7335 112.328 62.2558C111.902 63.0767 111.465 63.9509 110.399 63.8762C109.29 63.6222 108.25 63.1312 107.35 62.4371C106.188 61.7335 105.036 60.9979 103.917 60.241C103.235 59.7826 101.849 59.1749 102.339 58.2155C102.97 57.0984 103.683 56.0295 104.471 55.0173C104.845 54.495 105.655 52.7893 106.454 53.6208C107.751 54.1943 108.998 54.8717 110.185 55.6463C111.359 56.357 112.494 57.1291 113.586 57.9596C113.713 58.0266 113.824 58.1202 113.911 58.234C113.998 58.3479 114.059 58.4792 114.091 58.619C114.122 58.7589 114.123 58.9039 114.093 59.044C114.063 59.1841 114.003 59.3161 113.917 59.4308Z" fill="#F02143"/>
<path d="M60.3894 43.4615L29.6658 24.5604C24.8259 21.6394 20.0713 18.7611 15.8071 16.032C14.6344 17.8336 13.5151 19.6779 12.4064 21.5221C11.3403 23.3664 10.2743 25.2213 9.13359 27.0763C8.35538 28.4088 7.6198 29.7734 6.85224 31.1166C6.30729 32.2836 5.43272 33.2657 4.33636 33.9417C3.66852 34.212 3.076 34.64 2.60935 35.1889C2.28421 35.7325 1.99918 36.299 1.75651 36.884C1.37273 37.5982 0.850367 38.3125 1.35141 39.112C1.78848 39.6789 2.3271 40.1597 2.93983 40.5299C4.17645 41.436 5.4344 42.2995 6.71366 43.1417C10.5514 45.6682 14.5491 47.9496 18.4402 50.3695V50.3162C18.7252 49.0121 19.3547 47.8083 20.2632 46.8302C20.7102 46.3465 21.2277 45.9332 21.7983 45.6043C22.0864 45.4442 22.3856 45.3053 22.6938 45.1885C23.0041 45.0709 23.3256 44.9852 23.6532 44.9326C24.2433 44.7837 24.8469 44.6945 25.4549 44.6661C26.4596 44.6072 27.464 44.7862 28.3865 45.1885C29.8026 45.7931 30.9846 46.8404 31.7552 48.1735C32.5114 49.6143 32.7758 51.2628 32.5083 52.8679C32.2408 54.473 31.456 55.9466 30.2734 57.0643C30.1242 57.1923 29.9536 57.2989 29.8043 57.4268C33.6208 59.6975 37.3946 62.0855 41.1791 64.4094C48.2257 68.727 55.2297 73.0978 62.3083 77.362C65.8049 79.4941 69.3656 81.4663 72.7876 83.7583C76.2096 86.0503 79.5997 88.2677 82.979 90.549C83.2173 89.4112 83.7305 88.349 84.4738 87.4552C85.2171 86.5613 86.1679 85.8631 87.2433 85.4213C87.5554 85.3122 87.8764 85.2301 88.2027 85.1761C89.1531 84.9157 90.1439 84.8362 91.1237 84.9416L91.7633 85.0376C92.1641 85.1331 92.5563 85.2615 92.936 85.4213C94.3541 86.0226 95.5371 87.0708 96.3047 88.4063C96.7037 89.1079 96.9676 89.8781 97.0829 90.677C97.2687 91.8855 97.1628 93.121 96.7738 94.2802C96.3963 95.4356 95.7282 96.4745 94.8335 97.2972C94.6159 97.4804 94.3881 97.6512 94.1513 97.8089C94.6736 98.15 95.2173 98.4592 95.7397 98.811C96.3135 99.2154 96.9197 99.572 97.552 99.877C98.078 100.164 98.6598 100.335 99.2577 100.378C99.448 100.381 99.6357 100.333 99.8014 100.239C100.238 99.9184 100.602 99.5077 100.867 99.0348L101.166 98.5978C102.051 97.3398 102.861 96.0179 103.628 94.6747C104.363 93.5955 104.854 92.3697 105.068 91.0821C105.096 90.6726 105.011 90.2633 104.822 89.8988C104.622 89.546 104.398 89.2076 104.151 88.886C103.895 88.5662 103.628 88.2464 103.394 87.9266L102.029 86.1036C101.134 84.9203 100.142 83.8116 99.311 82.5856C98.5301 81.5472 98.1108 80.2816 98.117 78.9824C98.1698 78.3 98.3317 77.6306 98.5967 76.9995C98.8712 76.3705 99.1956 75.7645 99.5668 75.1872C99.8783 74.6622 100.216 74.1534 100.58 73.6628C100.767 73.4188 100.977 73.1939 101.209 72.9912C101.439 72.7933 101.697 72.6316 101.976 72.5115C102.584 72.3205 103.227 72.2683 103.858 72.3587C104.489 72.4491 105.092 72.6798 105.622 73.0338C106.323 73.4438 107.053 73.8002 107.807 74.0999C108.26 74.2566 108.752 74.2566 109.204 74.0999C109.347 74.0362 109.483 73.9576 109.609 73.8653C102.904 70.0702 94.9508 65.0491 88.4372 60.9981C79.0986 55.1703 69.7493 49.3248 60.3894 43.4615ZM101.496 91.7644C102.051 91.0394 103.255 89.8881 104.076 90.9222C104.663 91.6577 104.13 92.6385 103.767 93.3528C103.425 94.1276 102.928 94.8242 102.307 95.3996C102.184 95.5244 102.032 95.6169 101.864 95.669C101.697 95.721 101.519 95.731 101.347 95.6981C101.126 95.632 100.929 95.5031 100.779 95.3271C100.63 95.1512 100.534 94.9356 100.505 94.7066C100.447 93.6297 100.815 92.5731 101.528 91.7644H101.496ZM22.1927 29.4216C21.6597 30.3597 21.1267 31.4578 19.8687 31.3618C18.6347 31.0887 17.479 30.5382 16.4894 29.7521C15.2847 29.0165 14.1121 28.2383 12.9607 27.4281C12.5769 27.1616 11.8947 26.8631 11.8947 26.362C11.8947 25.861 12.2358 25.296 12.481 24.9335C13.2486 23.6862 14.1227 22.4816 14.9436 21.2663C15.3487 20.68 16.1269 18.889 17.0757 19.5819C18.4789 20.1515 19.8187 20.8661 21.0734 21.714C21.6917 22.1191 22.2993 22.5456 22.907 22.972C23.4597 23.2803 23.9718 23.6563 24.4314 24.0913C24.9538 24.7416 24.5381 25.3173 24.133 25.893C23.4244 27.0341 22.7768 28.212 22.1927 29.4216ZM30.8064 38.1632C29.5724 37.8901 28.4167 37.3396 27.4271 36.5535C26.2224 35.8179 25.0498 35.0503 23.8984 34.2401C23.5146 33.963 22.8324 33.6645 22.8324 33.1741C22.8324 32.6837 23.1735 32.108 23.4187 31.7456C24.1863 30.4983 25.0604 29.2937 25.8813 28.0784C26.2864 27.492 27.0646 25.7011 28.0134 26.394C29.4198 26.9567 30.7603 27.6717 32.0111 28.5261C32.6294 28.9312 33.237 29.3576 33.8447 29.7841C34.42 30.1213 34.9532 30.5257 35.4331 30.9887C35.9555 31.639 35.5397 32.2147 35.1346 32.7903C34.4277 33.9142 33.7801 35.0742 33.1944 36.2657C32.5974 37.1185 32.0537 38.2165 30.8064 38.1206V38.1632ZM41.7441 44.9753C40.5051 44.6702 39.3502 44.091 38.3647 43.2803C37.1601 42.5447 35.9875 41.7771 34.8361 40.9669C34.4523 40.7004 33.7701 40.3913 33.7701 39.9009C33.7701 39.4105 34.1112 38.8348 34.3564 38.4724C35.1346 37.2251 35.9981 36.0205 36.819 34.8052C37.2241 34.2188 38.0023 32.4385 38.9511 33.1208C40.3575 33.6835 41.698 34.3985 42.9488 35.2529C43.5671 35.6687 44.1747 36.0951 44.7824 36.5215C45.3598 36.8514 45.8934 37.2526 46.3708 37.7155C46.8932 38.3658 46.4774 38.9414 46.0723 39.5171C45.3677 40.6423 44.7201 41.8022 44.1321 42.9925C43.5351 43.9199 42.9914 45.0179 41.7441 44.9326V44.9753ZM52.6818 51.7767C51.448 51.4973 50.2929 50.9434 49.3024 50.1563C48.0978 49.4208 46.9252 48.6532 45.7738 47.843C45.39 47.5765 44.7078 47.2673 44.7078 46.7769C44.7078 46.2865 45.0489 45.7109 45.2941 45.3484C46.0723 44.1011 46.9358 42.8965 47.7567 41.6812C48.1618 41.0949 48.9506 39.3146 49.8355 39.9969C51.2418 40.5596 52.5824 41.2745 53.8332 42.129C54.4515 42.5447 55.0591 42.9711 55.6668 43.3975C56.2485 43.725 56.7829 44.1303 57.2552 44.6022C57.7776 45.2418 57.3618 45.8282 56.9567 46.3932C56.1891 47.4592 55.6668 48.7171 55.0165 49.8685C54.4728 50.7426 53.9291 51.8087 52.6818 51.7341V51.7767ZM63.5876 58.5355C62.3521 58.2606 61.196 57.7063 60.2082 56.9151C59.0035 56.1795 57.8309 55.412 56.6795 54.6018C56.3064 54.3352 55.6135 54.0367 55.6135 53.5357C55.6135 53.0347 55.9546 52.4697 56.1998 52.1072C56.978 50.8599 57.8415 49.6553 58.6624 48.44C59.0675 47.8536 59.8564 46.0733 60.7945 46.7556C62.2026 47.3146 63.5436 48.0298 64.7922 48.8877C65.4105 49.2928 66.0182 49.7192 66.6258 50.1457C67.2076 50.4732 67.742 50.8784 68.2142 51.3503C68.7366 51.9899 68.3208 52.5763 67.9157 53.1413C67.1482 54.2073 66.6258 55.4653 65.9755 56.6166C65.4212 57.5334 64.8668 58.6208 63.5876 58.5355ZM66.5192 60.3158C66.4339 59.8254 66.8603 59.2497 67.1055 58.8979C67.8838 57.64 68.7472 56.446 69.5681 55.2201C69.9732 54.6338 70.7621 52.8534 71.7002 53.5357C73.1064 54.0987 74.447 54.8136 75.6979 55.6678C76.3162 56.0729 76.9239 56.4993 77.5315 56.9257C78.1133 57.2532 78.6477 57.6585 79.1199 58.1304C79.6423 58.77 79.2265 59.3563 78.8214 59.932C78.0645 60.9981 77.5315 62.2453 76.8812 63.3967C76.3589 64.3455 75.8152 65.4329 74.5572 65.3476C73.3218 65.0727 72.1657 64.5184 71.1778 63.7272C69.9732 63.0022 68.8005 62.224 67.6492 61.4138C67.2761 61.1367 66.6365 60.8382 66.5512 60.3371L66.5192 60.3158ZM95.4092 67.8528C95.4607 67.8682 95.5078 67.8955 95.5467 67.9326C95.5856 67.9696 95.6152 68.0153 95.6331 68.066C97.0403 68.5137 99.0338 69.26 99.4069 70.8058C99.5004 71.6172 99.3163 72.4364 98.8846 73.1297C98.3738 74.056 97.8115 74.9529 97.2002 75.8162C96.9337 76.2106 96.6885 76.6051 96.4539 77.0208C96.3768 77.2091 96.2565 77.3766 96.1028 77.5099C95.9492 77.6432 95.7664 77.7386 95.5691 77.7884C95.0302 77.7924 94.4963 77.6835 94.002 77.4686C93.4381 77.2953 92.8861 77.0852 92.3496 76.8396C91.4755 76.4558 90.2175 76.0294 90.2175 74.9101C90.2469 73.7707 90.531 72.6524 91.0491 71.6373C91.5149 70.5506 92.109 69.5234 92.8187 68.5777C93.1029 68.1703 93.5205 67.8749 93.9993 67.7426C94.4781 67.6102 94.9881 67.6492 95.4412 67.8528H95.4092ZM92.1151 65.113C92.4776 66.2644 91.177 67.7142 90.644 68.631C89.8124 70.0524 88.9987 71.5022 88.2027 72.9805C86.6143 75.8801 85.0046 78.8118 83.4481 81.7221C82.6379 83.172 81.849 84.6431 80.9749 86.0503C80.2819 87.1697 79.5677 86.6153 78.5762 86.0503C75.7299 84.5045 72.9688 82.8521 70.2824 80.9972C70.2249 80.9609 70.1804 80.9072 70.1555 80.844C70.1306 80.7807 70.1265 80.7112 70.1438 80.6454C71.0738 78.6404 72.1425 76.7026 73.3419 74.8461C74.5146 72.714 75.7512 70.5819 77.0091 68.5351C78.2671 66.4882 79.6636 64.2069 81.0175 62.0534C81.9023 60.6569 82.8511 59.2498 84.6208 60.2199C84.6208 60.2199 84.6208 60.2732 84.6954 60.3051C86.2179 60.9482 87.699 61.6852 89.1302 62.5119C90.1216 63.1089 91.7846 63.9937 92.1471 65.113H92.1151Z" fill="#F02143"/>
<path d="M110.941 72.298L110.675 72.7351L110.941 72.298Z" fill="white"/>
<path d="M35.5838 25.2212C29.5926 21.4793 23.3562 17.7588 17.4609 13.8571C23.4095 17.7801 29.5393 21.4474 35.5838 25.2212Z" fill="white"/>
<path d="M110.548 72.9164C110.486 73.0133 110.419 73.1061 110.345 73.1942C110.419 73.1061 110.486 73.0133 110.548 72.9164Z" fill="white"/>
<path d="M111.028 72.1383L110.942 72.2986L111.028 72.1383Z" fill="white"/>
<path d="M110.186 73.3855C110.075 73.5171 109.954 73.6386 109.822 73.7488C109.954 73.6386 110.075 73.5171 110.186 73.3855Z" fill="white"/>
<path d="M35.5822 25.2212C29.5377 21.4474 23.4079 17.7589 17.4593 13.8678L17.3633 13.8038C16.9263 14.4435 16.5105 15.0938 16.0947 15.7441C22.7149 19.7737 32.3414 25.4345 38.8443 29.5494C50.4003 36.8625 62.1908 43.7919 73.8002 51.0197L91.1342 61.8188C96.9122 65.4221 104.193 69.9102 109.843 73.7586C109.975 73.6487 110.096 73.5274 110.206 73.3962L110.366 73.2043C110.439 73.1164 110.507 73.0238 110.568 72.9271L110.696 72.7459L110.963 72.3088L111.048 72.1489C104.289 68.0232 96.7736 63.3433 90.0681 59.1857C77.9577 51.6594 65.8154 44.1757 53.737 36.5854C47.689 32.7831 41.6374 28.9951 35.5822 25.2212Z" fill="white"/>
<path d="M53.7057 39.2293C46.4992 34.6453 37.9068 29.5282 29.6662 24.5604L60.3898 43.4615C58.1831 42.0544 55.9444 40.6578 53.7057 39.2293Z" fill="white"/>
<path d="M30.3691 47.8002C29.5618 46.8874 28.5392 46.1909 27.3942 45.7739C26.2492 45.3568 25.0182 45.2325 23.8129 45.4122C22.5528 45.818 21.4377 46.5811 20.603 47.6087C19.7684 48.6364 19.2503 49.8843 19.1116 51.2009C18.8878 53.8767 20.796 56.222 23.1093 57.3733C24.3353 57.936 25.7144 58.0717 27.0265 57.7586C28.3386 57.4456 29.508 56.7019 30.3478 55.6463C31.2222 54.5266 31.699 53.1476 31.7029 51.7269C31.7067 50.3062 31.2375 48.9247 30.3691 47.8002ZM28.4076 54.9321C27.7094 55.5581 26.8209 55.9311 25.885 55.991C24.9491 56.051 24.0203 55.7944 23.2479 55.2626C22.4915 54.8062 21.8954 54.1262 21.5421 53.3165C21.1888 52.5068 21.0957 51.6074 21.2757 50.7425C21.4384 49.9846 21.8184 49.2905 22.3694 48.7452C22.9204 48.1999 23.6184 47.827 24.3779 47.6723C24.6231 47.6083 24.8363 47.5017 25.0922 47.4591C25.3369 47.4379 25.583 47.4379 25.8278 47.4591C26.3048 47.4842 26.7738 47.5924 27.2136 47.7789C28.0907 48.149 28.8188 48.802 29.2818 49.6338C29.7267 50.4931 29.882 51.4733 29.7245 52.4281C29.567 53.3829 29.1051 54.2612 28.4076 54.9321Z" fill="#00559D"/>
<path d="M36.1052 10.3284L35.0391 9.5502C33.4912 8.44438 31.8463 7.48102 30.1246 6.67188C29.5809 6.81046 29.3251 7.36482 29.0586 7.81256L27.9605 9.16643C27.6407 9.62484 27.3103 10.0726 27.0118 10.5417C26.8199 10.8508 26.532 11.128 26.8412 11.4691C27.0407 11.6529 27.2628 11.8105 27.5021 11.9382C29.1758 13.1002 30.8922 14.2089 32.6512 15.2216C33.0932 15.5087 33.5794 15.7212 34.0903 15.8506C34.3103 15.8818 34.5343 15.839 34.7273 15.729C34.9202 15.619 35.0712 15.4481 35.1564 15.2429C35.6255 14.4434 35.9986 13.6012 36.4463 12.8017C36.6481 12.4626 36.8687 12.1352 37.1073 11.8209C37.2352 11.629 37.3631 11.4904 37.2565 11.2666C37.1073 10.8615 36.4676 10.5843 36.1052 10.3284Z" fill="white"/>
<path d="M57.9802 23.9313L56.9141 23.1638C55.3664 22.0546 53.7215 21.0876 51.9996 20.2748C51.4559 20.4134 51.2001 20.9677 50.9336 21.4261L49.9421 22.7906C49.6223 23.2384 49.2918 23.6861 48.9934 24.1552C48.6949 24.6243 48.5136 24.7415 48.8228 25.0933C49.0255 25.27 49.2472 25.4238 49.4837 25.5517C51.1574 26.7137 52.8738 27.8224 54.6328 28.8352C55.0726 29.1333 55.5644 29.3467 56.0826 29.4641C56.3029 29.4992 56.5286 29.4581 56.7224 29.3476C56.9162 29.2371 57.0666 29.0639 57.1487 28.8565C57.6177 28.0676 57.9908 27.2148 58.4386 26.4152C58.6411 26.0741 58.865 25.7543 59.0995 25.4345C59.3341 25.1147 59.3554 25.104 59.2488 24.8801C58.9823 24.4643 58.3426 24.1872 57.9802 23.9313Z" fill="white"/>
<path d="M91.219 75.6561C92.0952 76.1932 93.033 76.6227 94.012 76.9354C94.4064 77.0633 95.2486 77.4471 95.6644 77.2659C96.0801 77.0847 96.1441 76.6263 96.304 76.3597C96.7411 75.6562 97.2208 75.0059 97.6792 74.3236C98.3935 73.2575 99.6834 71.4879 98.6813 70.2406C97.821 69.3659 96.7307 68.7524 95.5365 68.471C95.4962 68.5021 95.4491 68.5232 95.399 68.5325C95.3489 68.5418 95.2974 68.5389 95.2486 68.5243C94.9908 68.4145 94.7089 68.3736 94.4305 68.4053C94.1521 68.4371 93.8867 68.5405 93.6602 68.7055C93.3037 69.076 92.9923 69.4876 92.7327 69.9315C92.1011 70.8064 91.5784 71.7551 91.1763 72.7565C90.8778 73.5773 90.3128 75.0911 91.219 75.6561Z" fill="white"/>
<path d="M47.0437 17.1299L45.9776 16.3517C44.4297 15.2459 42.7848 14.2825 41.0631 13.4734C40.5194 13.612 40.2636 14.1663 39.997 14.614L39.0056 15.9893C38.6858 16.437 38.3553 16.8847 38.0568 17.3538C37.7583 17.8229 37.5771 17.9401 37.8863 18.2919C38.089 18.4686 38.3107 18.6224 38.5472 18.7503C40.2209 19.9123 41.9373 21.021 43.6962 22.0338C44.1336 22.3295 44.6214 22.5426 45.1354 22.6628C45.3553 22.6939 45.5794 22.6512 45.7723 22.5412C45.9653 22.4312 46.1162 22.2602 46.2015 22.0551C46.6705 21.2556 47.0437 20.4134 47.4914 19.6138C47.6931 19.2748 47.9138 18.9473 48.1523 18.6331C48.2803 18.4412 48.4082 18.3026 48.3016 18.0787C48.0457 17.6949 47.4061 17.3858 47.0437 17.1299Z" fill="white"/>
<path d="M67.2557 51.2116L65.9977 50.3161C64.3552 49.0583 62.5652 48.0058 60.6675 47.1819C60.0705 47.3205 59.6014 48.2479 59.2923 48.7703L58.2262 50.3694C57.8744 50.8811 57.512 51.4354 57.1602 51.8938C56.9256 52.235 56.1581 53.1305 56.4139 53.5569C56.5312 53.7701 57.0749 54.0366 57.2668 54.1859L57.8957 54.6123C58.3435 54.9214 58.7912 55.2306 59.239 55.5184C60.1451 56.1154 61.0726 56.6804 62 57.2241C62.9275 57.7678 64.1321 58.4287 64.9637 57.2241C65.518 56.3712 65.9658 55.4438 66.4455 54.5483C66.7015 54.0546 66.9826 53.5742 67.2877 53.1091C67.4941 52.8484 67.6828 52.5742 67.8527 52.2883C68.0659 51.8086 67.6608 51.5101 67.2557 51.2116Z" fill="white"/>
<path d="M75.8371 64.0256C76.3915 63.1728 76.8392 62.2453 77.319 61.3498C77.5727 60.8582 77.8538 60.3813 78.1611 59.9213C78.3652 59.6551 78.5538 59.3775 78.7261 59.0898C79.0033 58.5887 78.5982 58.3115 78.1931 58.0237L76.9352 57.1176C75.2926 55.8598 73.5026 54.8073 71.6049 53.9834C71.0079 54.122 70.5389 55.0494 70.2297 55.5718L69.1637 57.1709C68.8119 57.6826 68.4601 58.2369 68.0976 58.6953C67.8631 59.0365 67.0955 59.932 67.3514 60.3584C67.4686 60.5716 68.0123 60.8488 68.2149 60.9873L68.8332 61.4244L70.1764 62.3199C71.0825 62.9169 72.01 63.4819 72.9375 64.0256C73.8649 64.5693 75.0483 65.2302 75.8371 64.0256Z" fill="white"/>
<path d="M34.4417 30.8071L33.1837 29.9117C31.5448 28.6484 29.7541 27.5955 27.8534 26.7775C27.2565 26.9267 26.7874 27.8968 26.4782 28.3765L25.4122 29.9756C25.0604 30.4767 24.6979 30.9777 24.3461 31.4894C24.1223 31.8306 23.344 32.7261 23.5999 33.1631C23.8559 33.4104 24.1468 33.6187 24.4634 33.7814L25.0924 34.2185C25.5294 34.5277 25.9879 34.8262 26.4356 35.1247C27.3417 35.711 28.2585 36.2867 29.1967 36.8304C30.1348 37.3741 31.3288 38.0243 32.1496 36.8304C32.704 35.9669 33.1517 35.05 33.6421 34.1546C33.8958 33.6595 34.177 33.179 34.4843 32.7154C34.6655 32.4382 34.9001 32.1824 35.0493 31.8945C35.2519 31.3722 34.8041 31.095 34.4417 30.8071Z" fill="white"/>
<path d="M23.5048 24.0059C23.089 23.6967 22.6732 23.4089 22.2468 23.1104C20.6079 21.8471 18.8172 20.7942 16.9166 19.9762C16.3196 20.1254 15.8505 21.0955 15.5413 21.5646L14.422 23.1744C14.0702 23.6754 13.7077 24.1764 13.3559 24.6881C13.1321 25.0293 12.3539 25.9248 12.6097 26.3618C12.8684 26.6058 13.1589 26.8138 13.4732 26.9801L14.1022 27.4172C14.5393 27.7264 14.9977 28.0249 15.4454 28.3234C16.3515 28.9097 17.2684 29.4854 18.2065 30.0291C19.1446 30.5728 20.3386 31.223 21.1594 30.0291C21.7138 29.1762 22.1615 28.2594 22.6413 27.3533C22.9078 26.8735 23.1849 26.3832 23.4941 25.9248C23.6753 25.6476 23.9099 25.3917 24.0591 25.1039C24.3043 24.5709 23.8992 24.2937 23.5048 24.0059Z" fill="white"/>
<path d="M84.4821 60.7635C84.1737 60.6013 83.8203 60.5458 83.477 60.6056C83.1338 60.6653 82.82 60.8371 82.5845 61.0939C82.2505 61.5238 81.9578 61.9842 81.7104 62.4692L80.0154 65.145C78.928 66.872 77.8619 68.6132 76.8172 70.3686C75.7725 72.124 74.7491 73.9008 73.747 75.6989C72.7129 77.3042 71.7697 78.9663 70.9219 80.6773C72.3398 81.6261 73.7683 82.5536 75.1861 83.4278C75.8968 83.8684 76.6075 84.2948 77.3182 84.707C77.734 84.9415 78.1498 85.1761 78.5762 85.4C79.0026 85.6238 79.493 86.0609 79.8341 86.0822C80.5804 86.1355 81.1667 84.5364 81.4652 84.0141L82.7338 81.7647C83.6399 80.155 84.5141 78.5665 85.3989 76.9142C87.1046 73.78 88.8103 70.6458 90.6226 67.5756C90.9043 67.1825 91.1505 66.765 91.3582 66.3283C91.7846 65.2622 91.4861 65.0064 90.8251 64.4414C90.1792 63.8895 89.4873 63.3937 88.757 62.9595C87.4031 62.1387 85.9746 61.4671 84.5461 60.8274C84.5187 60.8132 84.4963 60.7909 84.4821 60.7635Z" fill="white"/>
<path d="M26.5857 48.4823C26.2681 48.3647 25.9396 48.279 25.605 48.2265C25.2543 48.1561 24.8955 48.1345 24.5389 48.1625C23.8592 48.4082 23.2606 48.8368 22.8092 49.4012C22.3577 49.9655 22.0709 50.6436 21.9804 51.3606C21.9751 52.084 22.1852 52.7927 22.5838 53.3964C22.9825 54 23.5517 54.4715 24.2191 54.7507C24.8885 55.0542 25.6405 55.1235 26.3541 54.9475C27.0677 54.7715 27.7013 54.3605 28.1528 53.7806C28.6197 53.1678 28.8725 52.4188 28.8725 51.6485C28.8725 50.8781 28.6197 50.1291 28.1528 49.5164C27.7262 49.0448 27.1871 48.6891 26.5857 48.4823Z" fill="#FFA100"/>
<path d="M45.38 37.6088L44.1221 36.7133C42.4806 35.4539 40.6904 34.4013 38.7918 33.5791C38.1949 33.7177 37.7258 34.6985 37.4166 35.1675L36.3506 36.7666C35.9988 37.2677 35.6363 37.7687 35.2845 38.2804C35.05 38.6215 34.2185 39.517 34.5383 39.9541C34.6556 40.1673 35.1993 40.4338 35.3911 40.5831L36.0201 41.0095C36.4572 41.3186 36.9156 41.6171 37.3633 41.9156C38.2695 42.502 39.1969 43.0776 40.1244 43.6213C41.0519 44.165 42.2565 44.8153 43.0774 43.6213C43.6424 42.7685 44.1434 41.841 44.5699 40.9455C44.8235 40.4505 45.1047 39.97 45.412 39.5064C45.5933 39.2292 45.8278 38.9733 45.977 38.6855C46.1903 38.1738 45.7745 37.9499 45.38 37.6088Z" fill="white"/>
<path d="M91.9983 45.2844C91.7957 44.8793 91.1561 44.5914 90.7937 44.3462L89.6743 43.568C88.1278 42.46 86.4827 41.4965 84.7598 40.6897C84.2268 40.8283 83.9603 41.3826 83.6404 41.8304C83.3206 42.2781 82.9795 42.7365 82.6597 43.1949C82.3399 43.6533 81.9987 44.0904 81.7002 44.5701C81.5083 44.8686 81.2205 45.1564 81.5297 45.4976C81.7331 45.6813 81.9588 45.8388 82.2013 45.9666C83.875 47.118 85.5807 48.2267 87.3503 49.2501C87.7894 49.5402 88.2768 49.7495 88.7895 49.8684C89.0098 49.9034 89.2355 49.8624 89.4293 49.7519C89.6231 49.6414 89.7734 49.4682 89.8555 49.2607C90.3246 48.4719 90.6977 47.6297 91.1561 46.8195C91.348 46.4784 91.5825 46.1692 91.8064 45.8387C92.0303 45.5082 92.1049 45.5083 91.9983 45.2844Z" fill="white"/>
<path d="M94.8979 95.8153C95.7693 94.6932 96.2423 93.3129 96.2423 91.8922C96.2423 90.4715 95.7693 89.0912 94.8979 87.9691C94.0925 87.0544 93.0697 86.3571 91.924 85.9416C90.7782 85.5262 89.5462 85.4059 88.3417 85.5918C87.0816 85.9976 85.9664 86.7607 85.1318 87.7883C84.2972 88.8159 83.7791 90.0639 83.6404 91.3805C83.4272 94.0563 85.3248 96.4122 87.6488 97.5529C88.8761 98.1229 90.2599 98.2614 91.5758 97.946C92.8917 97.6305 94.0624 96.8797 94.8979 95.8153ZM87.7767 95.4208C87.032 94.9577 86.4481 94.2763 86.1047 93.4693C85.7614 92.6624 85.6751 91.7691 85.8578 90.9114C86.0159 90.1531 86.3931 89.458 86.9427 88.9122C87.4923 88.3664 88.19 87.994 88.9493 87.8412C89.183 87.7589 89.4216 87.6913 89.6636 87.6386C89.9081 87.6122 90.1547 87.6122 90.3992 87.6386C90.8776 87.6623 91.3474 87.7744 91.785 87.9691C92.6655 88.3286 93.3957 88.9797 93.8532 89.8134C94.2951 90.6844 94.4415 91.6756 94.2704 92.6372C94.0992 93.5988 93.6197 94.4786 92.9044 95.1436C92.2033 95.7556 91.3176 96.1154 90.3883 96.1656C89.459 96.2159 88.5397 95.9537 87.7767 95.4208Z" fill="#00559D"/>
<path d="M56.3178 44.41L55.0599 43.5146C53.4184 42.2552 51.6282 41.2025 49.7296 40.3804C49.1326 40.519 48.6635 41.4997 48.3544 41.9688L47.235 43.5679C46.8832 44.0689 46.5208 44.57 46.169 45.0923C45.9344 45.4335 45.1669 46.329 45.4227 46.7554C45.54 46.9686 46.0837 47.2351 46.2756 47.3843L46.9045 47.8108L48.2478 48.7169C49.1539 49.3139 50.0814 49.8789 51.0089 50.4226C51.9363 50.9663 53.141 51.6166 53.9618 50.4226C54.5268 49.5698 55.0279 48.6423 55.4543 47.7468C55.7103 47.253 55.9914 46.7727 56.2965 46.3076C56.5005 46.0451 56.6891 45.7711 56.8615 45.4868C57.128 44.9751 56.7229 44.7085 56.3178 44.41Z" fill="white"/>
<path d="M102.765 51.9792C102.563 51.5741 101.923 51.2863 101.56 51.0411L100.441 50.2628C98.8931 49.157 97.2483 48.1937 95.5266 47.3845C94.9829 47.5231 94.727 48.0775 94.4072 48.5252L93.4371 49.8898C93.1173 50.3375 92.7868 50.7852 92.4883 51.2649C92.2964 51.5634 92.0086 51.8513 92.3177 52.1924C92.5173 52.3761 92.7394 52.5338 92.9787 52.6615C94.6524 53.8128 96.3687 54.9215 98.1277 55.9449C98.5679 56.233 99.0549 56.4422 99.5669 56.5632C99.7951 56.6095 100.032 56.574 100.237 56.4629C100.442 56.3518 100.601 56.1722 100.686 55.9556C101.155 55.1667 101.528 54.3245 101.976 53.5143C102.179 53.1732 102.403 52.864 102.637 52.5335C102.872 52.2031 102.872 52.2137 102.765 51.9792Z" fill="white"/>
<path d="M112.317 57.7357L111.25 56.9574C109.703 55.8516 108.058 54.8882 106.336 54.0791C105.792 54.2177 105.536 54.772 105.217 55.2198L104.225 56.5843C103.905 57.0427 103.564 57.4798 103.276 57.9595C103.085 58.2687 102.797 58.5459 103.106 58.887C103.305 59.0708 103.527 59.2283 103.767 59.356C105.44 60.5074 107.157 61.6161 108.916 62.6395C109.356 62.9276 109.843 63.1368 110.355 63.2578C110.575 63.2909 110.8 63.249 110.993 63.1387C111.187 63.0285 111.337 62.8564 111.421 62.6502C111.89 61.8613 112.253 61.0191 112.711 60.2089C112.914 59.8678 113.137 59.5586 113.372 59.2281C113.606 58.8976 113.628 58.9083 113.521 58.6738C113.319 58.2687 112.69 57.9808 112.317 57.7357Z" fill="white"/>
<path d="M91.1563 88.6406C90.8399 88.5215 90.5108 88.4392 90.1756 88.3954C89.8261 88.3163 89.4666 88.2911 89.1095 88.3208C88.4298 88.5665 87.8312 88.9952 87.3798 89.5595C86.9283 90.1239 86.6415 90.8019 86.551 91.519C86.5457 92.2424 86.7557 92.951 87.1544 93.5547C87.5531 94.1584 88.1223 94.6298 88.7897 94.909C89.4591 95.2125 90.2111 95.2818 90.9247 95.1059C91.6383 94.9299 92.2719 94.5188 92.7234 93.9389C93.192 93.3269 93.4459 92.5776 93.4459 91.8068C93.4459 91.036 93.192 90.2867 92.7234 89.6747C92.299 89.2006 91.7591 88.8444 91.1563 88.6406Z" fill="#FFA100"/>
<path d="M79.8561 37.5447L78.7901 36.7665C77.2439 35.655 75.5988 34.6879 73.8756 33.8774C73.3319 34.0267 73.0761 34.5811 72.8095 35.0288L71.8181 36.3933C71.4983 36.8411 71.1678 37.2888 70.8693 37.7579C70.5708 38.227 70.3896 38.3442 70.6988 38.696C70.9031 38.8786 71.1286 39.0361 71.3704 39.1651C73.0441 40.3164 74.7498 41.4251 76.5194 42.4485C76.9585 42.7386 77.4459 42.9479 77.9586 43.0668C78.1789 43.1019 78.4046 43.0608 78.5984 42.9503C78.7922 42.8398 78.9425 42.6666 79.0246 42.4592C79.4937 41.6703 79.8668 40.8175 80.3252 40.0179C80.5246 39.6798 80.7416 39.3524 80.9755 39.0371C81.1141 38.8559 81.2314 38.7067 81.1248 38.4828C80.8582 38.0777 80.2186 37.7899 79.8561 37.5447Z" fill="white"/>
<path d="M101.732 95.2076C101.974 95.1317 102.186 94.9827 102.34 94.7812C102.792 94.2667 103.173 93.6928 103.47 93.0755C103.747 92.5318 104.269 91.6576 103.779 91.1139C103.289 90.5703 102.297 91.4977 101.956 91.9561C101.642 92.3688 101.397 92.8297 101.231 93.3207C101.072 93.7121 101.017 94.1382 101.071 94.5573C101.125 94.8984 101.37 95.2929 101.732 95.2076Z" fill="#FFA100"/>
<path d="M68.9177 30.7328L67.8516 29.9652C66.3054 28.8537 64.6603 27.8866 62.9371 27.0762C62.3934 27.2148 62.1376 27.7798 61.8711 28.2275L60.8796 29.5921C60.5598 30.0398 60.2293 30.4876 59.9309 30.9566C59.6324 31.4257 59.4511 31.543 59.7603 31.8947C59.9654 32.0715 60.1867 32.2285 60.4212 32.3638C62.1056 33.5152 63.8113 34.6238 65.5809 35.6472C66.0201 35.9373 66.5074 36.1467 67.0201 36.2656C67.2404 36.3006 67.4661 36.2595 67.6599 36.149C67.8537 36.0386 68.0041 35.8653 68.0862 35.6579C68.5552 34.869 68.9283 34.0162 69.3761 33.2166C69.5786 32.8755 69.8025 32.5557 70.037 32.2359C70.2716 31.9161 70.2929 31.9054 70.1863 31.6815C69.9198 31.2764 69.2801 30.9886 68.9177 30.7328Z" fill="white"/>
<path d="M93.8868 89.7387C93.4293 88.905 92.6991 88.2539 91.8186 87.8945C91.381 87.6997 90.9112 87.5877 90.4328 87.564C90.1883 87.5376 89.9417 87.5376 89.6972 87.564C89.4552 87.6167 89.2166 87.6843 88.9829 87.7666C88.2236 87.9194 87.5258 88.2918 86.9763 88.8376C86.4267 89.3834 86.0494 90.0785 85.8914 90.8368C85.7087 91.6945 85.7949 92.5877 86.1383 93.3947C86.4817 94.2016 87.0656 94.8831 87.8103 95.3462C88.5808 95.8813 89.5094 96.1408 90.4457 96.0828C91.382 96.0247 92.2714 95.6525 92.97 95.0264C93.6705 94.3605 94.138 93.4866 94.3031 92.5342C94.4683 91.5819 94.3223 90.6016 93.8868 89.7387ZM92.7141 94.0029C92.2626 94.5829 91.629 94.9939 90.9154 95.1699C90.2018 95.3459 89.4498 95.2765 88.7804 94.9731C88.113 94.6939 87.5438 94.2224 87.1451 93.6188C86.7465 93.0151 86.5364 92.3064 86.5417 91.583C86.6322 90.866 86.919 90.1879 87.3705 89.6236C87.8219 89.0592 88.4205 88.6305 89.1002 88.3849C89.4573 88.3551 89.8168 88.3803 90.1663 88.4595C90.5015 88.5033 90.8306 88.5855 91.147 88.7047C91.7572 88.9158 92.3012 89.2834 92.7248 89.7707C93.1766 90.3782 93.4197 91.1156 93.4177 91.8726C93.4158 92.6297 93.169 93.3658 92.7141 93.971V94.0029Z" fill="#3A0D1F"/>
<path d="M27.2458 47.7256C26.806 47.5392 26.337 47.4309 25.8599 47.4058C25.6152 47.3846 25.3691 47.3846 25.1243 47.4058C24.8685 47.4058 24.6553 47.555 24.4101 47.619C23.6376 47.7719 22.9277 48.1502 22.3699 48.7061C21.8121 49.262 21.4314 49.9706 21.2759 50.7425C21.0942 51.6014 21.1821 52.4954 21.5274 53.3024C21.8728 54.1095 22.4588 54.7903 23.2054 55.2519C23.9778 55.7838 24.9067 56.0404 25.8425 55.9804C26.7784 55.9205 27.6669 55.5475 28.3651 54.9215C29.082 54.2574 29.5625 53.3775 29.7338 52.4155C29.905 51.4535 29.7576 50.4618 29.3139 49.5912C28.8528 48.7554 28.1246 48.0985 27.2458 47.7256ZM28.1413 53.8128C27.6897 54.3927 27.0562 54.8037 26.3426 54.9797C25.629 55.1557 24.8769 55.0864 24.2075 54.7829C23.5401 54.5037 22.9709 54.0322 22.5723 53.4285C22.1736 52.8249 21.9635 52.1162 21.9688 51.3928C22.0593 50.6758 22.3461 49.9977 22.7976 49.4334C23.2491 48.869 23.8477 48.4403 24.5274 48.1947C24.884 48.1667 25.2427 48.1883 25.5934 48.2586C25.928 48.3112 26.2565 48.3969 26.5742 48.5145C27.1828 48.7287 27.7261 49.0958 28.1519 49.5805C28.6096 50.1916 28.8561 50.935 28.8542 51.6984C28.8523 52.4619 28.602 53.204 28.1413 53.8128Z" fill="#3A0D1F"/>
<path d="M117.381 51.9792C116.763 50.9121 115.905 50.0033 114.876 49.3247C113.765 48.5224 112.592 47.8095 111.368 47.1926C110.686 46.8408 110.025 46.4463 109.364 46.0519L98.501 39.6556L81.7107 29.752L64.398 19.5392L52.1597 12.3646C47.1813 9.42234 42.3307 6.28814 37.3416 3.36716C35.2095 2.09856 32.7149 0.797978 30.1351 0.84062C27.2248 0.84062 25.2739 2.78084 23.4296 4.80634C19.3538 9.44328 15.7505 14.4751 12.6731 19.827C10.9035 22.7693 9.17293 25.7294 7.48146 28.7072C6.81941 30.0931 6.01177 31.4046 5.07218 32.6196C4.59598 33.0638 4.04812 33.4242 3.45178 33.6857C2.89716 33.9658 2.41816 34.3753 2.05525 34.8797C1.713 35.4075 1.40327 35.9558 1.12778 36.5214C0.788135 37.0264 0.54589 37.5904 0.413531 38.1844C0.285605 39.4744 1.47958 40.3165 2.36441 40.9668C4.96557 42.8857 7.69467 44.634 10.4664 46.2971C13.2381 47.9601 15.722 49.4952 18.3339 51.0623C18.2639 52.3669 18.5467 53.6663 19.1527 54.8238C19.7586 55.9812 20.6652 56.954 21.7772 57.6399C22.89 58.3925 24.1988 58.8026 25.542 58.8196C26.8852 58.8367 28.204 58.4599 29.3355 57.7358C32.7576 59.9639 36.2542 62.0853 39.7082 64.2707C43.1622 66.4561 46.6376 68.5989 50.1129 70.763C57.1275 75.1338 63.9716 79.7711 70.9969 84.1313C72.9584 85.3466 74.9946 86.4233 76.9668 87.6173C78.939 88.8113 80.9325 89.9306 82.926 91.0606C82.8205 92.3899 83.0842 93.7225 83.688 94.9114C84.2919 96.1002 85.2124 97.0992 86.348 97.7981C87.4065 98.5103 88.6424 98.9135 89.9172 98.9624C91.192 99.0114 92.4553 98.7042 93.5652 98.0753C94.7688 99.0016 96.0573 99.8118 97.4137 100.495C98.4797 100.986 99.7057 101.369 100.686 100.431C101.682 99.3307 102.542 98.1137 103.245 96.8067C104.075 95.549 104.789 94.218 105.377 92.8303C105.711 92.2017 105.866 91.4933 105.825 90.7826C105.784 90.0718 105.548 89.3862 105.143 88.8006C104.162 87.4467 103.138 86.1035 102.115 84.7709C101.175 83.694 100.32 82.5464 99.5564 81.3383C99.1607 80.6237 98.9531 79.8204 98.9531 79.0036C98.9531 78.1868 99.1607 77.3834 99.5564 76.6689C99.8745 76.0471 100.231 75.4455 100.622 74.8673C100.999 74.1405 101.576 73.5373 102.286 73.1296C103.789 72.4474 105.377 73.6946 106.667 74.3236C107.098 74.5971 107.582 74.7766 108.087 74.85C108.592 74.9235 109.108 74.8894 109.599 74.75C110.306 74.3969 110.895 73.8448 111.294 73.1616C112.258 71.5267 113.061 69.8024 113.692 68.0126C114.215 66.776 114.886 65.614 115.451 64.4093C116.108 63.0273 116.67 61.6027 117.136 60.1451C117.564 58.7258 117.836 57.2636 117.946 55.785C118.098 54.4887 117.903 53.1753 117.381 51.9792ZM109.823 73.7479C104.172 69.8995 96.8913 65.4114 91.1133 61.8082L73.7793 51.009C62.17 43.7812 50.3261 36.8519 38.8234 29.5387C32.3205 25.4238 22.694 19.7631 16.0738 15.7334C16.4896 15.0831 16.9054 14.4328 17.3424 13.7932L17.4384 13.8571C23.355 17.7375 29.5914 21.4794 35.5613 25.2212C41.5312 28.9631 47.661 32.7795 53.6842 36.5747C65.7626 44.165 77.9049 51.6487 90.0152 59.175C96.7207 63.3326 104.236 68.0126 110.995 72.1382L110.91 72.2981L110.643 72.7352L110.515 72.9164C110.454 73.0131 110.386 73.1057 110.313 73.1936L110.153 73.3855C110.043 73.5167 109.922 73.638 109.791 73.7479H109.823ZM23.0778 57.3841C20.7645 56.2327 18.8136 53.8874 19.0801 51.2116C19.2177 49.8918 19.7365 48.6407 20.5732 47.6108C21.4099 46.581 22.5284 45.8171 23.7921 45.4123C24.9964 45.2313 26.2269 45.3539 27.3718 45.7691C28.5167 46.1842 29.5398 46.8787 30.3483 47.7896C31.2223 48.9126 31.6968 50.295 31.6968 51.718C31.6968 53.141 31.2223 54.5234 30.3483 55.6464C29.508 56.711 28.3336 57.4614 27.0145 57.7767C25.6955 58.092 24.3086 57.9537 23.0778 57.3841ZM87.6593 97.5422C85.3353 96.4016 83.3951 94.0456 83.6509 91.3698C83.7896 90.0532 84.3077 88.8053 85.1423 87.7776C85.9769 86.75 87.0921 85.9869 88.3522 85.5811C89.5567 85.3952 90.7887 85.5155 91.9345 85.931C93.0803 86.3465 94.103 87.0437 94.9084 87.9584C95.7798 89.0805 96.2528 90.4608 96.2528 91.8815C96.2528 93.3022 95.7798 94.6825 94.9084 95.8046C94.0735 96.8666 92.9047 97.6158 91.5911 97.9312C90.2775 98.2465 88.896 98.1095 87.6699 97.5422H87.6593ZM109.247 74.0891C108.795 74.2459 108.303 74.2459 107.85 74.0891C107.095 73.7916 106.364 73.4351 105.665 73.023C105.135 72.669 104.532 72.4383 103.901 72.3479C103.27 72.2575 102.627 72.3097 102.019 72.5007C101.74 72.6208 101.482 72.7825 101.251 72.9804C101.02 73.1831 100.81 73.4081 100.622 73.652C100.259 74.1426 99.9212 74.6515 99.6097 75.1765C99.2385 75.7537 98.9141 76.3597 98.6396 76.9887C98.3747 77.6198 98.2127 78.2893 98.1599 78.9716C98.1537 80.2709 98.5731 81.5364 99.3539 82.5748C100.185 83.8008 101.177 84.9095 102.072 86.0928L103.437 87.9158C103.671 88.2356 103.938 88.5554 104.194 88.8752L104.556 89.3763C104.663 89.5468 104.769 89.7174 104.865 89.888C104.958 90.0664 105.026 90.2564 105.068 90.453C105.095 90.6582 105.095 90.8661 105.068 91.0713C104.854 92.3589 104.363 93.5848 103.629 94.6639C102.861 96.0071 102.051 97.329 101.166 98.587L100.868 99.0241C100.602 99.497 100.239 99.9077 99.8016 100.229C99.636 100.323 99.4483 100.37 99.2579 100.367C99.1126 100.383 98.9661 100.383 98.8208 100.367C98.3824 100.257 97.9571 100.1 97.5522 99.8982C96.9199 99.5932 96.3138 99.2366 95.74 98.8321C95.2176 98.4803 94.6739 98.1712 94.1515 97.8301C94.3884 97.6724 94.6161 97.5016 94.8338 97.3184C95.7285 96.4957 96.3966 95.4568 96.774 94.3014C97.163 93.1422 97.269 91.9067 97.0832 90.6982C96.9679 89.8993 96.7039 89.1291 96.305 88.4275C95.5373 87.092 94.3544 86.0438 92.9362 85.4425C92.5565 85.2827 92.1643 85.1543 91.7636 85.0588L91.1239 84.9628C90.1442 84.8574 89.1533 84.9369 88.203 85.1974C87.8767 85.2514 87.5557 85.3334 87.2435 85.4425C86.9766 85.5423 86.7166 85.6599 86.4653 85.7943C85.5845 86.3035 84.8202 86.9915 84.2216 87.8141C83.623 88.6367 83.2034 89.5756 82.99 90.5702C79.607 88.2889 76.2099 86.0253 72.7985 83.7795C69.3765 81.5408 65.8158 79.5153 62.3192 77.3832C55.2406 73.119 48.2366 68.7482 41.19 64.4306C37.4056 62.1066 33.6317 59.7187 29.8046 57.448C29.9645 57.3201 30.1351 57.2135 30.2843 57.0856C31.4669 55.9678 32.2517 54.4942 32.5192 52.8891C32.7867 51.284 32.5223 49.6355 31.7661 48.1947C30.9955 46.8616 29.8135 45.8143 28.3974 45.2097C27.4749 44.8074 26.4705 44.6284 25.4658 44.6874C24.8578 44.7157 24.2543 44.805 23.6641 44.9539C23.3365 45.0064 23.015 45.0921 22.7047 45.2097C22.3965 45.3265 22.0973 45.4655 21.8092 45.6255C21.2386 45.9545 20.7211 46.3678 20.2741 46.8514C19.3656 47.8295 18.7361 49.0333 18.4511 50.3374V50.3908C15.5195 48.5785 12.5345 46.8408 9.61357 45.0605C8.6328 44.4493 7.66269 43.831 6.70324 43.2055C5.42398 42.3634 4.16603 41.4999 2.92941 40.5937C2.31668 40.2236 1.77807 39.7428 1.341 39.1759C0.839951 38.3763 1.341 37.6621 1.7461 36.9478C2.01516 36.3789 2.32512 35.8302 2.67356 35.3061C3.14021 34.7571 3.73273 34.3292 4.40057 34.0588C5.49693 33.3829 6.37149 32.4008 6.91645 31.2338C7.684 29.8906 8.41959 28.526 9.19781 27.1934C10.2639 25.3385 11.3299 23.4836 12.4706 21.6393C13.5722 19.7844 14.7057 17.9543 15.8713 16.1491C20.1355 18.8356 24.8475 21.7139 29.73 24.6775C37.9706 29.6453 46.5629 34.7624 53.7695 39.3464C56.0082 40.7749 58.2469 42.1715 60.4856 43.6106C69.8242 49.4952 79.1806 55.3372 88.5548 61.1365C95.0683 65.1875 103.021 70.2087 109.727 74.0038C109.574 74.049 109.416 74.0776 109.257 74.0891H109.247ZM117.018 56.9363C116.913 57.6731 116.764 58.4029 116.571 59.1217C115.944 61.2561 115.108 63.3236 114.076 65.2941C113.742 65.9622 113.422 66.6338 113.117 67.309C112.616 68.375 112.221 69.5051 111.752 70.5924V70.699C111.656 70.9229 111.539 71.1574 111.432 71.3813C111.326 71.6052 111.304 71.6585 111.23 71.7864L110.782 71.4986L106.987 69.1106C103.511 66.9146 99.9828 64.7078 96.4436 62.4904L74.4615 48.8023C68.4206 45.0356 62.3796 41.2795 56.3386 37.5341C50.2977 33.7887 44.207 30.0362 38.0665 26.2766C31.2757 22.0657 24.389 17.6096 17.5023 13.5586C18.0567 12.7378 18.5684 11.9169 19.1761 11.128C20.9767 8.63324 22.9502 6.26792 25.082 4.04945C26.054 2.94211 27.3172 2.12956 28.7279 1.70412C29.3479 1.55017 29.9885 1.4962 30.6255 1.54422C31.0602 1.57079 31.4918 1.63499 31.9154 1.7361L32.4911 1.87469C33.3577 2.12902 34.1998 2.46083 35.0069 2.86611C36.3928 3.54839 37.7041 4.36926 39.0046 5.17946L39.7722 5.65917L40.124 5.88306L48.6524 11.0854L50.5713 12.2261L60.9547 18.3559L77.116 27.897L94.0023 37.8646L106.731 45.327L109.929 47.2246C110.91 47.8109 111.933 48.2906 112.914 48.8983C113.409 49.1824 113.89 49.492 114.353 49.8257C114.819 50.1484 115.261 50.5047 115.675 50.8918C115.927 51.1443 116.155 51.4191 116.357 51.7126C116.927 52.5788 117.221 53.5972 117.2 54.6336C117.206 55.4045 117.149 56.1747 117.029 56.9363H117.018Z" fill="#3A0D1F"/>
<path d="M95.6643 68.0658C95.6464 68.0151 95.6168 67.9694 95.5779 67.9324C95.539 67.8953 95.4919 67.868 95.4405 67.8526C94.9873 67.649 94.4774 67.61 93.9986 67.7424C93.5198 67.8747 93.1022 68.1701 92.818 68.5775C92.1083 69.5232 91.5142 70.5504 91.0483 71.6371C90.5303 72.6523 90.2462 73.7705 90.2168 74.9099C90.2168 76.0292 91.5067 76.4556 92.3489 76.8394C92.8853 77.085 93.4373 77.2951 94.0013 77.4684C94.4956 77.6833 95.0294 77.7922 95.5684 77.7882C95.7656 77.7384 95.9484 77.643 96.1021 77.5097C96.2558 77.3764 96.376 77.2089 96.4532 77.0206C96.6877 76.6049 96.9329 76.2104 97.1994 75.816C97.8107 74.9527 98.3731 74.0558 98.8838 73.1296C99.3156 72.4362 99.4997 71.617 99.4062 70.8056C99.065 69.2598 97.0715 68.5135 95.6643 68.0658ZM97.6792 74.3235C97.2208 75.0058 96.741 75.6561 96.304 76.3597C96.1441 76.6262 95.9628 77.1273 95.6643 77.2658C95.3658 77.4044 94.4064 77.0633 94.0119 76.9354C93.0329 76.6227 92.0951 76.1932 91.2189 75.6561C90.3127 75.0911 90.8778 73.5773 91.2189 72.7564C91.621 71.755 92.1437 70.8064 92.7753 69.9314C93.0349 69.4875 93.3463 69.076 93.7028 68.7054C93.9293 68.5405 94.1947 68.4371 94.4731 68.4053C94.7515 68.3735 95.0334 68.4145 95.2912 68.5242C95.34 68.5389 95.3915 68.5417 95.4416 68.5324C95.4916 68.5232 95.5388 68.5021 95.579 68.4709C96.7733 68.7523 97.8636 69.3658 98.7239 70.2406C99.6834 71.4878 98.3934 73.2468 97.7005 74.3235H97.6792Z" fill="#3A0D1F"/>
<path d="M92.1492 65.113C91.7867 63.9937 90.1237 63.1088 89.2069 62.5438C87.7757 61.7172 86.2946 60.9802 84.7721 60.3371C84.7721 60.3371 84.7721 60.2731 84.6975 60.2518C82.9278 59.2817 81.979 60.6889 81.0942 62.0854C79.7439 64.2175 78.4078 66.3781 77.0859 68.567C75.8279 70.6458 74.5913 72.746 73.4186 74.8781C72.2192 76.7345 71.1505 78.6723 70.2205 80.6774C70.2032 80.7431 70.2073 80.8127 70.2322 80.8759C70.2571 80.9392 70.3016 80.9929 70.3591 81.0292C73.0455 82.8415 75.8066 84.5365 78.653 86.0822C79.6444 86.6153 80.3586 87.1483 81.0516 86.0822C81.9257 84.6751 82.7146 83.2039 83.5248 81.7541C85.1346 78.8438 86.723 75.9121 88.2794 73.0125C89.0825 71.5484 89.8963 70.0986 90.7207 68.663C91.2111 67.7142 92.5116 66.2644 92.1492 65.113ZM85.4331 76.8396C84.5482 78.46 83.6741 80.0377 82.7679 81.6901L81.4993 83.9395C81.2008 84.4619 80.6145 86.0716 79.8683 86.0076C79.5271 86.0076 78.9195 85.4959 78.6103 85.3254C78.3012 85.1548 77.7681 84.867 77.3524 84.6324C76.6417 84.2202 75.931 83.7938 75.2203 83.3532C73.7598 82.479 72.3313 81.5515 70.9561 80.6028C71.8038 78.8917 72.747 77.2296 73.7811 75.6243C74.7761 73.8262 75.7995 72.0494 76.8513 70.294C77.9032 68.5386 78.9692 66.7974 80.0495 65.0704L81.7125 62.4692C81.9724 61.9977 82.2758 61.5516 82.6187 61.1366C82.8541 60.8797 83.1679 60.708 83.5112 60.6482C83.8545 60.5885 84.2079 60.644 84.5162 60.8062C84.5474 60.8167 84.5811 60.8167 84.6122 60.8062C86.0407 61.4884 87.4692 62.16 88.8231 62.9383C89.5534 63.3724 90.2453 63.8682 90.8912 64.4201C91.5522 64.9851 91.8507 65.2303 91.4243 66.307C91.2166 66.7438 90.9704 67.1612 90.6887 67.5543C88.8444 70.6138 87.1387 73.748 85.4331 76.8822V76.8396Z" fill="#3A0D1F"/>
<path d="M74.5569 65.3368C75.8042 65.4221 76.3586 64.3347 76.8809 63.3859C77.5312 62.2346 78.0643 61.0086 78.8211 59.9212C79.2262 59.3456 79.642 58.7593 79.1197 58.1196C78.6474 57.6478 78.113 57.2425 77.5312 56.915C76.9236 56.4886 76.3159 56.0621 75.6976 55.657C74.4467 54.8029 73.1062 54.0879 71.6999 53.5249C70.8151 52.8426 70.0262 54.591 69.5678 55.2093C68.747 56.4353 67.8835 57.6293 67.1052 58.8872C66.8601 59.271 66.4336 59.8146 66.5189 60.305C66.6042 60.7954 67.2438 61.1259 67.585 61.3711C68.7363 62.1813 69.909 62.9595 71.1136 63.6844C72.117 64.4959 73.2961 65.0618 74.5569 65.3368ZM68.7683 61.4031L68.15 60.966C67.9474 60.8274 67.4037 60.5502 67.2865 60.337C67.0306 59.9106 67.7982 59.0151 68.0327 58.674C68.3738 58.1623 68.7256 57.6612 69.0988 57.1495L70.1648 55.5504C70.4953 55.0814 70.943 54.1006 71.54 53.962C73.4377 54.7859 75.2277 55.8384 76.8703 57.0962L78.1282 58.0024C78.5333 58.2902 78.9384 58.5674 78.6612 59.0684C78.489 59.3561 78.3003 59.6338 78.0962 59.8999C77.789 60.3599 77.5078 60.8368 77.2541 61.3284C76.7743 62.2239 76.3266 63.1514 75.7722 64.0042C74.9834 65.2089 73.7894 64.5799 72.8086 64.0042C71.8278 63.4286 70.9537 62.9382 70.0475 62.2985L68.7683 61.4031Z" fill="#3A0D1F"/>
<path d="M68.1829 51.3182C67.7106 50.8463 67.1763 50.4411 66.5945 50.1136C65.9868 49.6871 65.3792 49.2607 64.7609 48.8556C63.5123 47.9977 62.1713 47.2825 60.7632 46.7235C59.8784 46.0413 59.0895 47.7896 58.6311 48.4079C57.8102 49.6232 56.9467 50.8278 56.1685 52.0751C55.9233 52.4695 55.4969 53.0026 55.5822 53.5036C55.6675 54.0047 56.3071 54.3245 56.6482 54.5697C57.7996 55.3799 58.9722 56.1474 60.1769 56.883C61.1647 57.6742 62.3208 58.2285 63.5563 58.5034C64.8035 58.5887 65.3579 57.5013 65.8802 56.5525C66.5305 55.4012 67.0529 54.1752 67.8205 53.0772C68.2895 52.5442 68.7053 51.9578 68.1829 51.3182ZM67.7885 52.2883C67.6186 52.5742 67.4299 52.8484 67.2235 53.1092C66.9184 53.5742 66.6373 54.0546 66.3813 54.5484C65.9016 55.4438 65.4538 56.3713 64.8995 57.2241C64.1106 58.4288 62.9166 57.7998 61.9358 57.2241C60.9551 56.6485 60.0809 56.1581 59.1748 55.5185C58.727 55.2306 58.2793 54.9215 57.8315 54.6123L57.2026 54.1859C57.0107 54.0366 56.467 53.7701 56.3497 53.5569C56.0939 53.1305 56.8614 52.235 57.096 51.8939C57.4265 51.3822 57.7889 50.8811 58.162 50.3694L59.2281 48.7703C59.5586 48.3013 60.0063 47.3205 60.6033 47.1819C62.501 48.0058 64.291 49.0583 65.9335 50.3161L67.1915 51.2116C67.6605 51.5101 68.0657 51.8086 67.7885 52.2883Z" fill="#3A0D1F"/>
<path d="M57.2441 44.5167C56.7718 44.0449 56.2374 43.6396 55.6557 43.3121C55.048 42.8857 54.4404 42.4593 53.8221 42.0435C52.5713 41.1891 51.2307 40.4741 49.8244 39.9114C48.9395 39.2291 48.1507 40.9775 47.7456 41.5958C46.9247 42.8111 46.0612 44.0157 45.283 45.263C45.0378 45.6574 44.6114 46.1905 44.6966 46.6915C44.7819 47.1925 45.4109 47.5124 45.7627 47.7576C46.914 48.5678 48.0867 49.3353 49.2913 50.0709C50.2818 50.858 51.4369 51.4118 52.6707 51.6913C53.918 51.7766 54.4617 50.6785 54.9947 49.7404C55.645 48.5891 56.1674 47.3631 56.9349 46.2651C57.3507 45.7427 57.7665 45.1564 57.2441 44.5167ZM56.8496 45.4869C56.6773 45.7711 56.4886 46.0452 56.2846 46.3077C55.9796 46.7728 55.6985 47.2531 55.4425 47.7469C54.9627 48.6424 54.515 49.5698 53.95 50.4227C53.1718 51.6167 51.9778 50.9984 50.997 50.4227C50.0163 49.847 49.1421 49.3566 48.2359 48.717L46.8927 47.8108L46.2637 47.3844C46.0719 47.2352 45.5282 46.9687 45.4109 46.7555C45.155 46.329 45.9226 45.4336 46.1571 45.0924C46.4876 44.5701 46.8501 44.0263 47.2232 43.5679L48.3425 41.9689C48.673 41.4998 49.1208 40.519 49.7178 40.3805C51.6163 41.2026 53.4065 42.2553 55.048 43.5147L56.306 44.4101C56.7217 44.7086 57.1268 44.9752 56.8496 45.4869Z" fill="#3A0D1F"/>
<path d="M46.3072 37.7047C45.8298 37.2418 45.2961 36.8406 44.7187 36.5107C44.1111 36.0843 43.5034 35.6579 42.8851 35.2421C41.6344 34.3877 40.2938 33.6727 38.8874 33.11C37.9919 32.4277 37.2137 34.1761 36.7553 34.7944C35.9345 36.0097 35.071 37.2143 34.2927 38.4616C34.0475 38.856 33.6211 39.3891 33.7064 39.8901C33.7917 40.3912 34.4207 40.711 34.7725 40.9562C35.9238 41.7664 37.0965 42.5339 38.3011 43.2695C39.2935 44.0535 40.4478 44.607 41.6805 44.8899C42.9278 44.9752 43.4714 43.8771 44.0045 42.939C44.5925 41.7487 45.24 40.5889 45.9447 39.4637C46.4138 38.9307 46.8295 38.355 46.3072 37.7047ZM45.9127 38.6855C45.7635 38.9733 45.5289 39.2291 45.3477 39.5063C45.0404 39.97 44.7592 40.4505 44.5055 40.9455C44.0258 41.841 43.5781 42.7685 43.013 43.6213C42.2348 44.8153 41.0409 44.1863 40.0601 43.6213C39.0793 43.0563 38.2051 42.5019 37.299 41.9156C36.8513 41.6171 36.3929 41.3186 35.9558 41.0095L35.3268 40.583C35.1349 40.4338 34.5912 40.1673 34.474 39.9541C34.2075 39.517 34.9857 38.6215 35.2202 38.2804C35.5507 37.7687 35.9131 37.2676 36.2863 36.7666L37.3523 35.1675C37.6828 34.6984 38.1305 33.7177 38.7275 33.5791C40.6261 34.4012 42.4163 35.4539 44.0578 36.7133L45.3157 37.6087C45.7741 37.9499 46.1899 38.1738 45.9127 38.6855Z" fill="#3A0D1F"/>
<path d="M35.3703 30.9034C34.8771 30.4376 34.3295 30.0331 33.7392 29.6987C33.1316 29.2723 32.5239 28.8459 31.9056 28.4408C30.6549 27.5863 29.3143 26.8714 27.9079 26.3087C27.0125 25.6157 26.2342 27.3747 25.7758 27.9931C24.955 29.2084 24.0808 30.413 23.3133 31.6603C23.0681 32.0547 22.6416 32.5877 22.7269 33.0888C22.8122 33.5898 23.4412 33.899 23.793 34.1548C24.9443 34.965 26.117 35.7326 27.3216 36.4682C28.3113 37.2543 29.467 37.8048 30.701 38.0779C31.9483 38.1738 32.492 37.0758 33.025 36.1377C33.6107 34.9462 34.2583 33.7862 34.9652 32.6624C35.4769 32.1293 35.8713 31.5537 35.3703 30.9034ZM34.9759 31.8841C34.8266 32.172 34.5921 32.4278 34.4109 32.705C34.1035 33.1686 33.8224 33.6491 33.5687 34.1442C33.0783 35.0396 32.6306 35.9565 32.0762 36.82C31.298 38.0139 30.104 37.385 29.1232 36.82C28.1425 36.255 27.2683 35.7006 26.3622 35.1143C25.9144 34.8158 25.456 34.5173 25.0189 34.2081L24.39 33.771C24.0734 33.6083 23.7825 33.4 23.5265 33.1527C23.2706 32.7157 24.0488 31.8202 24.2727 31.479C24.6138 30.9673 24.9763 30.4663 25.3388 29.9653L26.4048 28.3662C26.7353 27.8865 27.183 26.9163 27.78 26.7671C29.6807 27.5851 31.4714 28.6381 33.1103 29.9013L34.3682 30.7968C34.8053 31.0953 35.253 31.3724 34.9759 31.8841Z" fill="#3A0D1F"/>
<path d="M24.4332 24.0911C23.9589 23.6217 23.4248 23.2166 22.8448 22.8865C22.2372 22.46 21.6295 22.0336 21.0112 21.6285C19.7565 20.7806 18.4167 20.066 17.0135 19.4964C16.118 18.8035 15.3398 20.5625 14.8814 21.1808C14.0606 22.3961 13.1864 23.6007 12.4188 24.848C12.1737 25.2424 11.7472 25.7755 11.8325 26.2765C11.9178 26.7775 12.5468 27.0867 12.8986 27.3426C14.0499 28.1528 15.2226 28.931 16.4272 29.6666C17.4345 30.4782 18.6171 31.044 19.8812 31.3189C21.1285 31.4149 21.6722 30.3168 22.2052 29.3787C22.7909 28.1872 23.4385 27.0272 24.1454 25.9034C24.5399 25.3277 24.9556 24.7521 24.4332 24.0911ZM24.0388 25.0719C23.8896 25.3597 23.655 25.6156 23.4738 25.8927C23.1647 26.3511 22.8875 26.8415 22.621 27.3212C22.1412 28.2274 21.6935 29.1442 21.1392 29.997C20.3609 31.2017 19.167 30.5727 18.1862 29.997C17.2054 29.4214 16.3313 28.8777 15.4251 28.2914C14.9774 27.9929 14.519 27.6944 14.0819 27.3852L13.4849 26.9695C13.1706 26.8031 12.8801 26.5951 12.6214 26.3511C12.3655 25.914 13.1438 25.0186 13.3676 24.6774C13.7088 24.1657 14.0712 23.6647 14.4337 23.1636L15.553 21.5539C15.8835 21.0848 16.3313 20.1147 16.9282 19.9655C18.8289 20.7835 20.6196 21.8365 22.2585 23.0997C22.6849 23.3982 23.1007 23.686 23.5165 23.9952C23.9322 24.3043 24.3053 24.5708 24.0388 25.0825V25.0719Z" fill="#3A0D1F"/>
<path d="M92.3728 46.0412C92.4554 45.9277 92.513 45.798 92.5417 45.6606C92.5704 45.5232 92.5696 45.3813 92.5394 45.2443C92.5091 45.1072 92.4501 44.9782 92.3663 44.8656C92.2825 44.7531 92.1757 44.6596 92.053 44.5914C90.9628 43.7585 89.8275 42.9862 88.6523 42.278C87.4652 41.5034 86.2174 40.826 84.9211 40.2525C84.1322 39.421 83.3114 41.1267 82.9489 41.6491C82.1544 42.6568 81.4415 43.7262 80.8168 44.8472C80.3158 45.86 81.7017 46.4143 82.3839 46.8727C83.5139 47.6296 84.6546 48.3652 85.8166 49.0688C86.7202 49.7622 87.7644 50.2498 88.8762 50.4973C89.9422 50.5826 90.3687 49.7084 90.7951 48.8876C91.0723 48.3652 91.3174 47.8215 91.5946 47.2991C91.8718 46.7768 92.117 46.4783 92.3728 46.0412ZM89.8889 49.2394C89.8068 49.4468 89.6565 49.62 89.4627 49.7305C89.2689 49.8409 89.0432 49.8821 88.8229 49.847C88.3102 49.7281 87.8228 49.5187 87.3837 49.2287C85.6141 48.1626 83.9084 47.0966 82.2347 45.9453C81.9922 45.8175 81.7665 45.6599 81.5631 45.4762C81.2539 45.1351 81.5631 44.8472 81.7336 44.5487C82.0321 44.069 82.3626 43.6213 82.6931 43.1735C83.0236 42.7258 83.3434 42.2674 83.6738 41.809C84.0043 41.3506 84.2602 40.8069 84.7932 40.6683C86.5161 41.4751 88.1612 42.4386 89.7077 43.5466L90.8271 44.3249C91.1895 44.5701 91.8291 44.8579 92.0317 45.263C92.1383 45.4868 92.0317 45.6361 91.8824 45.8173C91.7332 45.9986 91.424 46.4569 91.2322 46.7981C90.7418 47.6296 90.3686 48.4718 89.8996 49.2607L89.8889 49.2394Z" fill="#3A0D1F"/>
<path d="M103.148 52.736C103.231 52.6225 103.288 52.4928 103.317 52.3554C103.346 52.2181 103.345 52.0762 103.315 51.9391C103.285 51.8021 103.226 51.673 103.142 51.5604C103.058 51.4479 102.951 51.3544 102.828 51.2862C101.736 50.4557 100.601 49.6835 99.4277 48.9729C98.2406 48.1982 96.9928 47.5208 95.6965 46.9474C94.9076 46.1158 94.0868 47.8215 93.7243 48.3439C92.9286 49.3507 92.2156 50.4203 91.5922 51.542C91.0912 52.5548 92.477 53.1091 93.1593 53.5675C94.2893 54.3244 95.43 55.06 96.592 55.7636C97.4932 56.461 98.5383 56.949 99.6516 57.1921C100.718 57.2774 101.144 56.4033 101.57 55.5824C101.848 55.06 102.082 54.5163 102.37 53.994C102.658 53.4716 102.882 53.1518 103.148 52.736ZM100.664 55.9342C100.579 56.1508 100.42 56.3304 100.215 56.4415C100.01 56.5526 99.7732 56.5881 99.545 56.5418C99.033 56.4209 98.546 56.2116 98.1058 55.9235C96.3468 54.8575 94.6305 53.7914 92.9568 52.6401C92.7174 52.5124 92.4953 52.3548 92.2958 52.171C91.9866 51.8299 92.2958 51.542 92.4664 51.2436C92.7649 50.7638 93.0953 50.3161 93.4152 49.8683L94.4066 48.5038C94.7264 48.056 94.9823 47.5017 95.526 47.3631C97.2476 48.1722 98.8925 49.1356 100.44 50.2415L101.56 51.0197C101.922 51.2649 102.562 51.5527 102.764 51.9578C102.871 52.1924 102.764 52.3309 102.615 52.5122C102.466 52.6934 102.157 53.1518 101.954 53.4929C101.507 54.3244 101.133 55.1666 100.664 55.9555V55.9342Z" fill="#3A0D1F"/>
<path d="M110.196 55.6677C109.009 54.893 107.761 54.2157 106.465 53.6422C105.665 52.8107 104.855 54.5163 104.482 55.0387C103.693 56.0508 102.981 57.1198 102.35 58.2369C101.859 59.2496 103.245 59.804 103.927 60.2624C104.993 61.0193 106.198 61.7548 107.36 62.4584C108.261 63.1525 109.301 63.6435 110.409 63.8976C111.475 63.9722 111.912 63.0981 112.339 62.2772C112.616 61.7549 112.85 61.2111 113.138 60.6888C113.377 60.2618 113.641 59.8489 113.927 59.4522C114.01 59.3387 114.067 59.209 114.096 59.0716C114.125 58.9342 114.124 58.7923 114.094 58.6553C114.063 58.5182 114.004 58.3891 113.92 58.2766C113.837 58.164 113.73 58.0705 113.607 58.0023C112.512 57.1643 111.374 56.3849 110.196 55.6677ZM113.394 59.2283C113.159 59.5588 112.936 59.8679 112.733 60.2091C112.275 61.0193 111.912 61.8615 111.443 62.6503C111.359 62.8566 111.209 63.0287 111.015 63.1389C110.822 63.2491 110.597 63.2911 110.377 63.258C109.865 63.137 109.378 62.9278 108.938 62.6397C107.179 61.5736 105.463 60.5076 103.789 59.3562C103.55 59.2285 103.327 59.0709 103.128 58.8872C102.819 58.546 103.128 58.2688 103.298 57.9597C103.586 57.48 103.927 57.0429 104.247 56.5845L105.239 55.22C105.559 54.7722 105.814 54.2179 106.358 54.0793C108.08 54.8884 109.725 55.8518 111.273 56.9576L112.339 57.7358C112.712 57.981 113.341 58.2689 113.554 58.674C113.692 58.9085 113.511 59.0471 113.383 59.2709L113.394 59.2283Z" fill="#3A0D1F"/>
<path d="M81.1253 37.79C80.0376 36.9535 78.9021 36.1811 77.7246 35.4767C76.5375 34.702 75.2897 34.0246 73.9934 33.4512C73.2045 32.6303 72.3837 34.336 72.0212 34.8584C71.2267 35.8661 70.5137 36.9355 69.8891 38.0565C69.3881 39.0693 70.7739 39.6236 71.4562 40.082C72.5862 40.8389 73.7269 41.5745 74.8889 42.2141C75.7893 42.915 76.8344 43.4066 77.9485 43.6533C79.0145 43.7386 79.4409 42.8644 79.8673 42.0435C80.1445 41.5212 80.3897 40.9775 80.6669 40.4445C80.9441 39.9114 81.1892 39.6343 81.4558 39.2185C81.5342 39.105 81.5882 38.9763 81.6141 38.8407C81.64 38.7052 81.6373 38.5657 81.6062 38.4312C81.5751 38.2968 81.5162 38.1703 81.4334 38.0598C81.3506 37.9494 81.2457 37.8575 81.1253 37.79ZM80.9121 39.0373C80.6782 39.3525 80.4611 39.6799 80.2618 40.0181C79.8034 40.8176 79.4303 41.6704 78.9612 42.4593C78.8791 42.6667 78.7288 42.84 78.5349 42.9504C78.3411 43.0609 78.1155 43.102 77.8951 43.0669C77.3825 42.9481 76.8951 42.7387 76.456 42.4487C74.6863 41.3826 72.9807 40.3166 71.3069 39.1652C71.0652 39.0362 70.8397 38.8788 70.6353 38.6962C70.3262 38.3444 70.6353 38.0672 70.8059 37.758C70.9765 37.4489 71.4349 36.8412 71.7547 36.3935L72.7461 35.0289C73.0659 34.5812 73.3218 34.0268 73.8122 33.8776C75.5354 34.688 77.1804 35.6551 78.7267 36.7666L79.7927 37.5448C80.1552 37.79 80.7948 38.0778 80.9974 38.4829C81.1679 38.7068 81.0507 38.8561 80.9121 39.016V39.0373Z" fill="#3A0D1F"/>
<path d="M70.1868 30.9884C69.0991 30.1519 67.9636 29.3795 66.7861 28.675C65.5968 27.901 64.3493 27.2203 63.0549 26.6389C62.266 25.8181 61.4452 27.5237 61.0827 28.0461C60.2903 29.0553 59.5774 30.1246 58.9506 31.2442C58.4496 32.3103 59.8354 32.822 60.5177 33.2804C61.6477 34.0373 62.7884 34.7622 63.9504 35.4658C64.8496 36.1577 65.8908 36.6419 66.9993 36.8837C68.0654 36.9689 68.4918 36.0948 68.9182 35.2739C69.1954 34.7515 69.4406 34.2079 69.7177 33.6748C69.9949 33.1418 70.2401 32.854 70.5066 32.4489C70.5911 32.3351 70.6502 32.2046 70.6799 32.0661C70.7096 31.9275 70.7093 31.7843 70.679 31.6459C70.6487 31.5075 70.5891 31.3772 70.5042 31.2638C70.4193 31.1503 70.3111 31.0565 70.1868 30.9884ZM69.9736 32.2357C69.7391 32.5555 69.5152 32.8753 69.3126 33.2164C68.8649 34.016 68.4918 34.8688 68.0227 35.6577C67.9406 35.8651 67.7903 36.0384 67.5965 36.1488C67.4027 36.2593 67.177 36.3004 66.9567 36.2654C66.444 36.1465 65.9566 35.9371 65.5175 35.647C63.7479 34.581 62.0422 33.5149 60.3578 32.3636C60.1233 32.2283 59.902 32.0713 59.6969 31.8945C59.3877 31.5427 59.6969 31.2656 59.8674 30.9564C60.038 30.6473 60.4964 30.0396 60.8162 29.5919L61.8076 28.2273C62.1275 27.7796 62.3833 27.2146 62.8737 27.076C64.5969 27.8864 66.242 28.8535 67.7882 29.965L68.8542 30.7326C69.2167 30.9884 69.8563 31.2762 70.0589 31.6813C70.2295 31.9052 70.1015 32.0545 69.9843 32.2357H69.9736Z" fill="#3A0D1F"/>
<path d="M59.2482 24.1871C58.1614 23.3494 57.0258 22.577 55.8475 21.8738C54.6582 21.0997 53.4107 20.419 52.1163 19.8376C51.3274 19.0061 50.5066 20.7224 50.1441 21.2448C49.348 22.2513 48.635 23.3209 48.012 24.4429C47.511 25.4557 48.8968 26.0207 49.5791 26.4791C50.7091 27.236 51.8498 27.9609 53.0118 28.6645C53.9099 29.3691 54.9559 29.8612 56.0714 30.1037C57.1374 30.189 57.5639 29.3041 57.9903 28.4939C58.2674 27.9609 58.5126 27.4279 58.7898 26.8949C59.067 26.3618 59.3122 26.074 59.5787 25.6689C59.6665 25.554 59.7282 25.4212 59.7593 25.2799C59.7904 25.1386 59.7902 24.9922 59.7587 24.851C59.7272 24.7098 59.6652 24.5772 59.577 24.4625C59.4888 24.3478 59.3766 24.2538 59.2482 24.1871ZM59.035 25.4344C58.8005 25.7542 58.5766 26.074 58.3741 26.4151C57.9263 27.2147 57.5532 28.0675 57.0841 28.8564C57.002 29.0638 56.8517 29.237 56.6579 29.3475C56.4641 29.458 56.2384 29.4991 56.0181 29.464C55.4998 29.3466 55.0081 29.1332 54.5682 28.8351C52.8093 27.8223 51.0929 26.703 49.4192 25.5516C49.1827 25.4237 48.961 25.2699 48.7583 25.0932C48.4491 24.7414 48.7583 24.4642 48.9288 24.1551C49.0994 23.8459 49.5578 23.2383 49.8776 22.7905L50.869 21.426C51.1889 20.9676 51.4447 20.4133 51.9351 20.2747C53.657 21.0875 55.3019 22.0545 56.8496 23.1637L57.9156 23.9312C58.2781 24.1871 58.9177 24.4642 59.1203 24.88C59.3228 25.1572 59.1629 25.2425 59.035 25.4344Z" fill="#3A0D1F"/>
<path d="M48.311 17.375C47.2215 16.5444 46.0861 15.7756 44.9103 15.0723C43.7235 14.2942 42.4757 13.6133 41.1792 13.0362C40.3903 12.2046 39.5694 13.9103 39.207 14.4434C38.4084 15.4481 37.6952 16.5179 37.0749 17.6415C36.5738 18.6543 37.9597 19.2192 38.642 19.6776C39.772 20.4345 40.9126 21.1595 42.0746 21.8631C42.9727 22.5677 44.0188 23.0597 45.1342 23.3022C46.2003 23.3875 46.6267 22.5027 47.0531 21.6925C47.3303 21.1595 47.5648 20.6264 47.8526 20.0934C48.1405 19.5604 48.375 19.2726 48.6415 18.8675C48.7295 18.7516 48.7912 18.618 48.8224 18.476C48.8535 18.3339 48.8534 18.1867 48.8219 18.0447C48.7905 17.9027 48.7285 17.7692 48.6403 17.6535C48.552 17.5379 48.4397 17.4429 48.311 17.375ZM48.0978 18.6329C47.8593 18.9472 47.6386 19.2746 47.4369 19.6137C46.9891 20.4132 46.616 21.2554 46.147 22.055C46.0617 22.2601 45.9108 22.431 45.7178 22.541C45.5249 22.651 45.3008 22.6938 45.0809 22.6626C44.5668 22.5425 44.0791 22.3293 43.6417 22.0336C41.8828 21.0209 40.1664 19.9015 38.4927 18.7502C38.2562 18.6222 38.0345 18.4685 37.8318 18.2918C37.5226 17.94 37.8318 17.6628 38.0023 17.3537C38.1729 17.0445 38.6313 16.4369 38.9511 15.9891L39.9425 14.6139C40.2624 14.1662 40.5182 13.6118 41.0086 13.4732C42.7303 14.2824 44.3752 15.2457 45.9231 16.3516L46.9891 17.1298C47.3516 17.3856 47.9912 17.6628 48.1938 18.0786C48.3537 18.3024 48.2258 18.441 48.0978 18.6329Z" fill="#3A0D1F"/>
<path d="M37.3731 10.5737C36.2836 9.74312 35.1482 8.97435 33.9724 8.27105C32.7855 7.49297 31.5378 6.81203 30.2412 6.23489C29.4417 5.40337 28.6315 7.10906 28.2584 7.64208C27.4671 8.65218 26.7543 9.72136 26.1263 10.8402C25.6359 11.853 27.0218 12.418 27.704 12.8657C28.7701 13.6333 29.9747 14.3582 31.1367 15.0618C32.0321 15.7643 33.0742 16.2562 34.1856 16.501C35.2517 16.5863 35.6888 15.7014 36.1152 14.8912C36.3924 14.3582 36.6269 13.8252 36.9147 13.2921C37.1551 12.8694 37.4185 12.4602 37.7036 12.0662C37.7916 11.9504 37.8533 11.8168 37.8844 11.6747C37.9156 11.5326 37.9154 11.3854 37.884 11.2434C37.8526 11.1014 37.7906 10.9679 37.7023 10.8523C37.6141 10.7366 37.5018 10.6416 37.3731 10.5737ZM37.1599 11.8317C36.9214 12.1459 36.7007 12.4734 36.499 12.8124C36.0512 13.612 35.6781 14.4541 35.209 15.2537C35.1238 15.4588 34.9729 15.6298 34.7799 15.7398C34.5869 15.8498 34.3629 15.8925 34.143 15.8613C33.632 15.732 33.1458 15.5195 32.7038 15.2324C30.9448 14.2196 29.2285 13.1002 27.5548 11.9489C27.3155 11.8212 27.0934 11.6636 26.8938 11.4799C26.5847 11.1387 26.8938 10.8615 27.0644 10.5524C27.3629 10.0833 27.6934 9.63561 28.0132 9.1772L29.0046 7.81266C29.3244 7.36491 29.5803 6.81056 30.0707 6.67197C31.7924 7.48111 33.4372 8.44448 34.9852 9.55029L36.0512 10.3285C36.4137 10.5844 37.0533 10.8616 37.2559 11.2773C37.4158 11.5012 37.2878 11.6398 37.1599 11.8317Z" fill="#3A0D1F"/>
<path d="M101.431 95.666C101.604 95.6989 101.781 95.6889 101.949 95.6368C102.116 95.5847 102.268 95.4922 102.391 95.3674C103.012 94.792 103.509 94.0954 103.851 93.3206C104.214 92.6064 104.747 91.6256 104.161 90.89C103.34 89.824 102.135 91.0073 101.581 91.7322C100.906 92.5458 100.57 93.5879 100.643 94.6425C100.662 94.8708 100.747 95.0887 100.887 95.2702C101.026 95.4517 101.216 95.5891 101.431 95.666ZM101.218 93.3633C101.385 92.8723 101.629 92.4114 101.943 91.9987C102.284 91.5403 103.19 90.5276 103.766 91.1566C104.342 91.7855 103.766 92.5744 103.457 93.1181C103.16 93.7354 102.779 94.3093 102.327 94.8238C102.173 95.0253 101.961 95.1743 101.719 95.2502C101.357 95.3355 101.112 94.941 101.048 94.6425C100.993 94.2155 101.051 93.7815 101.218 93.3846V93.3633Z" fill="#3A0D1F"/>
</svg>
