<svg width="35" height="37" viewBox="0 0 35 37" fill="none" xmlns="http://www.w3.org/2000/svg">
<path d="M31.0602 14.1215L24.6638 17.7994C24.522 17.8801 24.3975 17.9881 24.2975 18.1172C24.1976 18.2462 24.1242 18.3938 24.0816 18.5514C24.039 18.709 24.028 18.8734 24.0492 19.0353C24.0705 19.1971 24.1236 19.3532 24.2055 19.4944L24.5786 20.1447C24.9102 20.6484 25.1294 21.2176 25.2214 21.8136C25.3133 22.4096 25.2759 23.0185 25.1116 23.5987C24.7566 24.7237 23.971 25.6627 22.9262 26.2105L22.3399 26.541C21.8364 26.8382 21.2785 27.0316 20.6991 27.1098C20.1197 27.1881 19.5305 27.1496 18.9662 26.9966C18.4019 26.8436 17.8739 26.5792 17.4134 26.219C16.9529 25.8588 16.5691 25.4101 16.2847 24.8993L11.6367 16.7973C11.338 16.2942 11.1434 15.7362 11.0644 15.1565C10.9854 14.5768 11.0235 13.9871 11.1766 13.4224C11.3297 12.8577 11.5947 12.3295 11.9557 11.8691C12.3167 11.4087 12.7665 11.0255 13.2784 10.7421L13.4916 10.6142C13.9875 10.3059 14.5397 10.0991 15.1162 10.0058C15.6926 9.91245 16.2818 9.93446 16.8497 10.0705C17.4371 10.2185 17.9861 10.49 18.4604 10.8668C18.9346 11.2436 19.3232 11.7172 19.6001 12.2559L20.0265 12.9915C20.1898 13.2777 20.4597 13.4877 20.7773 13.5756C21.0949 13.6635 21.4343 13.6221 21.7215 13.4605L28.5123 9.56944C28.658 9.48404 28.785 9.37018 28.8857 9.23464C28.9864 9.09911 29.0589 8.94469 29.0986 8.78057C29.1405 8.62123 29.1497 8.45507 29.1259 8.29205C29.1021 8.12904 29.0457 7.97249 28.96 7.83177C27.6952 5.69607 25.9229 3.90549 23.8003 2.61879C21.7103 1.37955 19.2963 0.796465 16.871 0.945083C14.3329 1.13023 11.8729 1.90401 9.68583 3.20511L8.50249 3.87673C6.18542 5.18776 4.23235 7.05657 2.82044 9.3136C1.41597 11.5364 0.631942 14.0946 0.549748 16.7226C0.479018 19.4475 1.17728 22.1372 2.56457 24.4835L5.11245 28.9396C6.45232 31.3931 8.45432 33.421 10.8904 34.7922C13.1915 36.0471 15.8012 36.6238 18.4168 36.4553C21.1779 36.261 23.8564 35.429 26.2416 34.0247L27.4142 33.3531C29.61 32.1313 31.4618 30.3749 32.7978 28.2467C34.0656 26.1812 34.7097 23.7935 34.6528 21.3707C34.5806 19.0124 33.964 16.7029 32.8511 14.6225C32.7731 14.4724 32.6654 14.3397 32.5346 14.2325C32.4037 14.1254 32.2524 14.0459 32.0898 13.9991C31.9273 13.9522 31.7569 13.9389 31.5891 13.9599C31.4212 13.981 31.2594 14.0359 31.1135 14.1215H31.0602Z" fill="#F02143"/>
<path d="M31.071 14.1215L24.6747 17.7994C24.3921 17.9662 24.1866 18.2377 24.1028 18.555C24.019 18.8723 24.0636 19.2098 24.2269 19.4944L24.6 20.1447C24.9293 20.6515 25.1471 21.2224 25.239 21.8197C25.3309 22.417 25.2948 23.0271 25.1331 23.6094C24.7746 24.7299 23.9896 25.6643 22.9477 26.2106L22.3613 26.5517C21.8597 26.8515 21.3019 27.045 20.7224 27.1202C20.1429 27.1953 19.5541 27.1506 18.9926 26.9888C18.4192 26.8443 17.8831 26.5794 17.4199 26.2118C16.9568 25.8442 16.5771 25.3823 16.3062 24.8566L11.6581 16.7546C11.3624 16.2508 11.1702 15.693 11.0928 15.1139C11.0153 14.5348 11.0541 13.9461 11.207 13.3822C11.3599 12.8183 11.6238 12.2906 11.9831 11.8299C12.3425 11.3693 12.7901 10.985 13.2999 10.6995L13.5131 10.5822C14.0076 10.2705 14.5594 10.0609 15.1361 9.96565C15.7128 9.87045 16.3027 9.89159 16.8712 10.0279C17.4585 10.1834 18.0059 10.4626 18.4766 10.8469C18.9472 11.2311 19.3304 11.7115 19.6003 12.2559L20.0267 12.9915C20.192 13.2785 20.4638 13.4887 20.7831 13.5765C21.1025 13.6643 21.4436 13.6226 21.7324 13.4605L28.5124 9.56946C28.656 9.48479 28.7814 9.37267 28.8816 9.23951C28.9818 9.10635 29.0547 8.95474 29.0963 8.79338C29.1379 8.63201 29.1473 8.46406 29.1239 8.29907C29.1005 8.13407 29.0449 7.97528 28.9602 7.83179C27.6932 5.70136 25.9258 3.91202 23.8112 2.61881C21.7201 1.38202 19.3069 0.799117 16.8818 0.9451C14.3388 1.12195 11.8734 1.89626 9.68598 3.20513L8.50264 3.87674C6.18167 5.18636 4.22481 7.05528 2.80993 9.31362C1.41345 11.5394 0.633503 14.0964 0.549901 16.7227C0.478014 19.4477 1.17636 22.1376 2.56472 24.4835L5.1126 28.929C6.44713 31.3892 8.45019 33.4218 10.8906 34.7923C13.1865 36.0498 15.7946 36.6232 18.4063 36.4446C21.1713 36.2611 23.8548 35.4323 26.2418 34.0247L27.4144 33.3531C29.6141 32.1327 31.4696 30.3762 32.8087 28.2467C34.0671 26.1777 34.707 23.7917 34.6529 21.3707C34.5821 19.0109 33.9616 16.7002 32.8406 14.6225C32.7675 14.4754 32.6642 14.3452 32.5374 14.2405C32.4107 14.1358 32.2634 14.059 32.1051 14.0149C31.9355 13.9551 31.7549 13.9336 31.576 13.9521C31.3972 13.9705 31.2247 14.0284 31.071 14.1215ZM33.8001 21.392C33.848 23.6468 33.2447 25.8677 32.0624 27.7883C30.8005 29.8076 29.0426 31.4702 26.956 32.6175L25.7833 33.2891C23.5093 34.6294 20.9543 35.4214 18.321 35.6025C15.854 35.7762 13.3892 35.2358 11.2211 34.046C8.9144 32.7463 7.02218 30.8209 5.76288 28.4919L3.20436 24.0464C1.88959 21.8304 1.22807 19.2878 1.29612 16.712C1.37402 14.2264 2.10973 11.8059 3.42822 9.69738C4.7734 7.5488 6.63523 5.77128 8.84379 4.52702L10.0058 3.9407C12.0873 2.70946 14.4268 1.97951 16.8392 1.8086C19.11 1.66898 21.3708 2.21096 23.3314 3.36503C25.3315 4.59562 27.0033 6.29299 28.2033 8.31153C28.2603 8.41734 28.2754 8.54069 28.2458 8.65716C28.2162 8.77363 28.144 8.87474 28.0434 8.94049L21.2633 12.8316C21.1584 12.8897 21.0349 12.9043 20.9193 12.8724C20.8038 12.8406 20.7053 12.7647 20.645 12.661L20.2292 11.9254C19.9044 11.297 19.4523 10.743 18.9017 10.2989C18.3511 9.8547 17.714 9.53006 17.0311 9.3456C15.6786 9.0314 14.2567 9.26517 13.076 9.99588L12.8735 10.1132C12.2708 10.4486 11.7414 10.9011 11.3163 11.4442C10.8912 11.9873 10.5791 12.61 10.3983 13.2756C10.2175 13.9412 10.1717 14.6362 10.2635 15.3197C10.3554 16.0032 10.5831 16.6615 10.9332 17.2557L15.5812 25.3577C15.9179 25.9591 16.3708 26.4874 16.9138 26.9119C17.4567 27.3364 18.0788 27.6486 18.7436 27.8302C19.4085 28.0118 20.1028 28.0592 20.7862 27.9696C21.4695 27.8801 22.1282 27.6554 22.7238 27.3086L23.3208 26.9674C24.5334 26.315 25.4464 25.2186 25.8686 23.9079C26.0636 23.2197 26.1102 22.498 26.0055 21.7905C25.9007 21.083 25.647 20.4057 25.261 19.8036L24.8879 19.1639C24.8294 19.0619 24.8134 18.941 24.8433 18.8273C24.8732 18.7137 24.9467 18.6163 25.0478 18.5563L31.4441 14.8784C31.5015 14.8544 31.5631 14.842 31.6253 14.842C31.6876 14.842 31.7492 14.8544 31.8066 14.8784C31.8615 14.8913 31.9128 14.9161 31.9571 14.9511C32.0013 14.9861 32.0373 15.0305 32.0624 15.081C33.1127 17.0257 33.7069 19.1838 33.8001 21.392Z" fill="#3A0D1F"/>
</svg>
