<svg width="40" height="40" viewBox="0 0 40 40" fill="none" xmlns="http://www.w3.org/2000/svg">
<path d="M12.0832 20.7336C11.6592 20.3829 11.1066 20.1926 10.5364 20.2009C9.96616 20.2092 9.42044 20.4155 9.0087 20.7784C8.59695 21.1413 8.34963 21.634 8.31635 22.1577C8.28307 22.6813 8.46629 23.1971 8.82926 23.6017L13.8458 28.4441C14.0558 28.6467 14.3082 28.8083 14.5877 28.919C14.8673 29.0297 15.1683 29.0873 15.4727 29.0884C15.7755 29.09 16.0755 29.0356 16.355 28.9285C16.6345 28.8214 16.8877 28.6638 17.0997 28.4649L32.4203 13.9168C32.628 13.7203 32.7916 13.4881 32.9018 13.2334C33.0119 12.9788 33.0665 12.7067 33.0623 12.4326C33.0581 12.1586 32.9952 11.888 32.8773 11.6363C32.7594 11.3846 32.5888 11.1567 32.3751 10.9656C32.1615 10.7746 31.909 10.6241 31.6321 10.5228C31.3552 10.4215 31.0593 10.3713 30.7614 10.3752C30.4634 10.3791 30.1692 10.4369 29.8955 10.5453C29.6219 10.6537 29.3741 10.8107 29.1664 11.0072L15.4953 24.0173L12.0832 20.7336Z" fill="#2AB930"/>
</svg>
