<svg width="40" height="40" viewBox="0 0 40 40" fill="none" xmlns="http://www.w3.org/2000/svg">
<path fill-rule="evenodd" clip-rule="evenodd" d="M8.31623 28.3453C7.39443 29.2671 7.39443 30.7616 8.31623 31.6834C9.23804 32.6052 10.7326 32.6052 11.6544 31.6834L19.9997 23.3381L28.3454 31.6837C29.2672 32.6055 30.7617 32.6055 31.6835 31.6837C32.6053 30.7619 32.6053 29.2674 31.6835 28.3456L23.3379 20L31.6833 11.6545C32.6051 10.7327 32.6051 9.23816 31.6833 8.31635C30.7615 7.39455 29.267 7.39455 28.3452 8.31635L19.9997 16.6618L11.6546 8.31667C10.7328 7.39486 9.23822 7.39486 8.31641 8.31667C7.39461 9.23847 7.39461 10.733 8.31641 11.6548L16.6616 20L8.31623 28.3453Z" fill="#F61414"/>
</svg>
