<svg width="170" height="170" viewBox="0 0 170 170" fill="none" xmlns="http://www.w3.org/2000/svg">
<path fill-rule="evenodd" clip-rule="evenodd" d="M69.2651 3.3696C114.551 -5.53432 158.479 23.9604 167.383 69.2455C176.286 114.53 146.792 158.459 101.507 167.362C56.221 176.265 12.2931 146.772 3.39037 101.487C-5.51372 56.2006 23.9813 12.2735 69.2651 3.3696Z" fill="#F9F9F9"/>
<path fill-rule="evenodd" clip-rule="evenodd" d="M128.135 42.8953C127.087 43.102 125.959 42.9082 125.001 42.2643C123.084 40.9778 122.575 38.3833 123.861 36.4669L127.155 31.5608C128.442 29.6444 131.036 29.1345 132.952 30.421C134.869 31.7086 135.379 34.3031 134.092 36.2195L130.798 41.1246C130.156 42.0833 129.184 42.6896 128.135 42.8953ZM88.6197 25.6942C86.5018 25.9021 85.6425 28.5287 87.2257 29.9491L93.4626 35.5462C94.5689 36.5403 94.7384 38.2135 93.8535 39.4078L92.805 40.8208C92.1704 41.6756 91.12 42.1116 90.0689 41.9563L85.768 41.321C85.0131 41.2086 84.2426 41.4025 83.629 41.8577L62.2773 59.1106L59.9945 67.9783C59.5799 69.5884 58.2799 70.7355 56.7499 71.035C56.158 71.1533 55.5312 71.1428 54.9052 70.9831C52.671 70.4076 51.3262 68.1281 51.901 65.8925L52.6388 63.0237L50.869 62.7622C46.1535 62.0639 41.735 65.3538 41.0504 70.0713C40.7772 71.9488 41.8434 73.7626 43.6151 74.4386L63.852 82.1589C63.852 82.1589 72.6845 85.7346 74.5823 88.0095L81.8559 97.8038C82.7664 99.0316 84.1283 99.8468 85.6405 100.07L86.9248 100.259C89.1939 100.595 91.2356 101.816 92.6034 103.658L93.6768 105.104C95.4873 107.542 95.8848 110.751 94.7253 113.558L91.9589 120.258C91.321 121.8 89.7175 122.709 88.0679 122.466L86.2771 122.202C84.7287 121.974 83.2092 122.76 82.503 124.155L79.5435 130.858C78.7033 132.759 77.2068 134.296 75.3273 135.184L68.846 138.244L67.2647 148.947C66.9777 150.896 65.1428 152.229 63.1996 151.899L63.1773 151.896C61.8115 151.665 60.7092 150.652 60.361 149.311L57.7215 139.132C56.7531 135.396 56.5442 131.503 57.1092 127.685L58.5242 118.102C58.8593 115.839 58.1097 113.552 56.4996 111.926L48.8285 104.182C47.2184 102.555 46.4662 100.267 46.8019 98.0054L47.8635 90.8153L50.3283 85.9455L37.1601 80.9212C31.7772 78.8683 27.8303 74.1857 26.7188 68.5308L25.3924 61.7834L24.4123 61.6397C21.3174 61.1823 18.8638 58.7957 18.3185 55.7149L15.3722 39.831C22.2549 29.2581 31.3988 20.5095 41.9951 14.0587L45.4532 18.6125C46.4025 19.8893 48.2058 20.156 49.4848 19.207L51.589 17.6452C54.0433 15.823 57.121 15.0496 60.1449 15.4963L60.6179 15.567C62.2615 15.8091 63.3882 17.3473 63.1261 18.9863L62.7372 21.418C62.408 23.4661 64.5529 25.014 66.3943 24.0596L76.4828 18.8267C77.3763 18.3629 78.3939 18.1925 79.3891 18.3404L98.5565 21.1716L98.0257 24.7665L88.6197 25.6942ZM167.31 101.852C163.755 119.521 154.82 134.704 142.615 146.172C139.884 144.971 136.897 142.509 136.219 139.938L133.293 128.86C132.495 125.841 132.32 122.692 132.776 119.603L134.19 110.03C134.888 105.307 131.625 100.912 126.901 100.215L126.688 100.183C123.125 99.6557 119.831 97.989 117.296 95.4296L116.917 95.046C113.23 91.3251 111.511 86.0847 112.277 80.9009C112.586 78.8066 113.293 76.7904 114.358 74.9602L117.609 69.3776C119.387 66.3228 122.846 64.6568 126.344 65.1745L132.919 66.1461C136.02 66.6047 138.938 67.8975 141.36 69.8847L146.56 74.1509C149.056 76.1992 152.51 76.6255 155.43 75.246L157.676 74.1857C159.219 73.4558 160.944 73.1996 162.633 73.4492L168.13 74.1502C169.348 83.1384 169.201 92.4583 167.31 101.852ZM165.681 62.3799L141.038 56.8323L138.432 59.4481C137.205 61.3389 134.987 62.3405 132.757 62.0107L127.864 61.2874C124.716 60.8225 122.541 57.8928 123.005 54.7434L123.151 54.2346C123.534 51.6444 124.473 49.8619 127.075 49.5727L133.074 48.9064C134.282 48.6932 135.424 48.2004 136.408 47.4688C138.091 46.2198 139.208 44.3526 139.514 42.2788L140.409 36.2233C140.55 35.2688 141.065 34.4119 141.837 33.8366L147.783 29.916C156.055 39.2387 162.215 50.3097 165.681 62.3799Z" fill="#E8E8E8"/>
<path fill-rule="evenodd" clip-rule="evenodd" d="M128.135 42.8953C127.086 43.102 125.959 42.9082 125.001 42.2643C123.084 40.9778 122.575 38.3833 123.861 36.4669L127.155 31.5608C128.442 29.6444 131.036 29.1345 132.952 30.421C134.869 31.7086 135.379 34.3031 134.092 36.2195L130.798 41.1246C130.156 42.0833 129.184 42.6896 128.135 42.8953ZM88.6197 25.6942C86.5018 25.9021 85.6425 28.5287 87.2257 29.9491L93.4626 35.5462C94.5689 36.5403 94.7384 38.2135 93.8535 39.4078L92.805 40.8208C92.1704 41.6756 91.12 42.1116 90.0689 41.9563L85.768 41.321C85.0131 41.2086 84.2426 41.4025 83.629 41.8577L62.2773 59.1106L59.9945 67.9783C59.5799 69.5884 58.2799 70.7355 56.7499 71.035C56.158 71.1533 55.5312 71.1428 54.9052 70.9831C52.671 70.4076 51.3262 68.1281 51.901 65.8925L52.6388 63.0237L50.869 62.7622C46.1535 62.0639 41.735 65.3538 41.0504 70.0713C40.7772 71.9488 41.8434 73.7626 43.6151 74.4386L63.852 82.1589C63.852 82.1589 72.6845 85.7346 74.5823 88.0095L81.8559 97.8038C82.7664 99.0316 84.1283 99.8468 85.6405 100.07L86.9248 100.259C89.1939 100.595 91.2356 101.816 92.6034 103.658L93.6768 105.104C95.4873 107.542 95.8847 110.751 94.7253 113.558L91.9589 120.258C91.321 121.8 89.7175 122.709 88.0679 122.466L86.2771 122.202C84.7287 121.974 83.2092 122.76 82.503 124.155L79.5435 130.858C78.7033 132.759 77.2068 134.296 75.3273 135.184L68.846 138.244L67.2647 148.947C66.9777 150.896 65.1428 152.229 63.1996 151.899L63.1773 151.896C61.8115 151.665 60.7092 150.652 60.361 149.311L57.7215 139.132C56.7531 135.396 56.5442 131.503 57.1092 127.685L58.5242 118.102C58.8593 115.839 58.1097 113.552 56.4996 111.926L48.8285 104.182C47.2184 102.555 46.4662 100.267 46.8019 98.0054L47.8635 90.8153L50.3283 85.9455L37.1601 80.9212C31.7772 78.8683 27.8303 74.1857 26.7188 68.5308L25.3924 61.7834L24.4123 61.6397C21.3174 61.1823 18.8638 58.7957 18.3185 55.7149L15.3722 39.831C22.2549 29.2581 31.3988 20.5095 41.9951 14.0587L45.4532 18.6125C46.4025 19.8893 48.2058 20.156 49.4848 19.207L51.589 17.6452C54.0433 15.823 57.121 15.0496 60.1449 15.4963L60.6179 15.567C62.2615 15.8091 63.3882 17.3473 63.1261 18.9863L62.7372 21.418C62.408 23.4661 64.5529 25.014 66.3943 24.0596L76.4828 18.8267C77.3763 18.3629 78.3939 18.1925 79.3891 18.3403L98.5565 21.1716L98.0257 24.7665L88.6197 25.6942ZM167.31 101.852C163.755 119.521 154.82 134.704 142.615 146.172C139.884 144.971 136.897 142.509 136.219 139.938L133.293 128.86C132.495 125.841 132.32 122.692 132.776 119.603L134.19 110.03C134.888 105.307 131.625 100.912 126.901 100.215L126.688 100.183C123.125 99.6557 119.831 97.989 117.296 95.4296L116.917 95.046C113.23 91.3251 111.511 86.0847 112.277 80.9009C112.586 78.8066 113.293 76.7904 114.358 74.9602L117.609 69.3776C119.387 66.3228 122.846 64.6568 126.344 65.1745L132.919 66.1461C136.02 66.6047 138.938 67.8975 141.36 69.8847L146.56 74.1509C149.056 76.1992 152.51 76.6255 155.43 75.246L157.676 74.1857C159.219 73.4558 160.944 73.1996 162.633 73.4492L168.13 74.1502C169.348 83.1384 169.201 92.4583 167.31 101.852ZM165.681 62.3799L141.038 56.8323L138.432 59.4481C137.205 61.3389 134.987 62.3405 132.757 62.0107L127.864 61.2874C124.716 60.8225 122.541 57.8928 123.005 54.7434L123.151 54.2346C123.534 51.6444 124.473 49.8619 127.075 49.5727L133.074 48.9064C134.282 48.6932 135.424 48.2004 136.408 47.4688C138.091 46.2198 139.208 44.3526 139.514 42.2788L140.409 36.2233C140.55 35.2688 141.065 34.4119 141.837 33.8366L147.783 29.916C156.055 39.2387 162.215 50.3097 165.681 62.3799Z" stroke="#D5D5D5" stroke-width="2"/>
<path d="M69.2651 3.3696C114.551 -5.53432 158.479 23.9604 167.383 69.2455C176.286 114.53 146.792 158.459 101.507 167.362C56.221 176.265 12.2931 146.772 3.39037 101.487C-5.51372 56.2006 23.9813 12.2735 69.2651 3.3696Z" stroke="#4C4C4C" stroke-width="2"/>
</svg>
