<svg width="53" height="44" viewBox="0 0 53 44" fill="none" xmlns="http://www.w3.org/2000/svg">
<path d="M36.5828 30.7233C38.0219 29.1029 39.3971 27.4185 40.719 25.7022C41.3393 24.9039 42.0011 24.1388 42.7019 23.4102C43.3163 22.8254 43.8602 22.1706 44.3223 21.4593C40.0581 19.114 35.7299 17.0458 31.4018 14.8924L31.0499 14.7112C31.2135 15.7193 31.1249 16.7522 30.7919 17.7176C30.4589 18.6831 29.892 19.5511 29.1417 20.244C27.7238 21.7045 25.8796 22.7385 24.4724 24.1777L25.272 26.4164C25.6011 27.0029 25.6963 27.6922 25.5385 28.346C25.0655 29.193 24.461 29.9594 23.7475 30.6167C23.1292 31.3416 22.5002 32.0558 21.8712 32.7488C21.3284 33.4796 20.7142 34.1545 20.0376 34.7636C19.7765 34.9523 19.4604 35.0494 19.1384 35.0398C18.8164 35.0301 18.5066 34.9143 18.2573 34.7103C16.5516 33.6443 14.8779 32.5782 13.1936 31.5122C13.0936 31.4539 13.0193 31.36 12.9857 31.2493C12.9521 31.1385 12.9616 31.0192 13.0123 30.9152C13.7479 29.7532 14.4728 28.5805 15.1977 27.4185C15.7417 26.422 16.3846 25.4827 17.1166 24.6148C17.463 24.2624 17.8786 23.9857 18.3374 23.8022C18.7961 23.6187 19.2879 23.5324 19.7818 23.5487C21.0504 23.5487 22.319 23.5487 23.5876 23.5487C23.6104 23.495 23.6467 23.448 23.6929 23.4123C23.7391 23.3766 23.7937 23.3534 23.8515 23.3448C23.9093 23.3362 23.9683 23.3427 24.0229 23.3634C24.0775 23.3842 24.1258 23.4186 24.1632 23.4635C25.065 22.6372 26.0116 21.8613 26.999 21.1395C28.7579 19.7643 30.6555 17.9413 30.3997 15.4681C30.36 15.108 30.2923 14.7515 30.1971 14.402C26.2314 12.3872 22.3616 10.2124 18.4705 8.059C16.5516 7.00006 14.6292 5.95532 12.7032 4.92481C11.7011 4.38112 10.6883 3.85876 9.66493 3.31507C8.79939 2.80227 7.89385 2.36019 6.95715 1.99316C5.80581 1.6307 5.4007 2.15307 4.95296 3.05922C4.5065 4.08768 4.16714 5.15938 3.94023 6.25737C3.43919 8.38948 3.16201 10.6175 2.79955 12.8029C2.2452 16.1503 1.53096 19.5191 2.24521 22.8985C3.69504 29.6999 10.3365 33.6336 16.4663 35.6911C19.7818 36.7571 23.4383 37.6953 26.9456 37.0663C30.8047 36.3627 33.6511 33.6229 36.2949 30.9258C36.3632 30.8257 36.4655 30.7538 36.5828 30.7233Z" fill="#F02143"/>
<path d="M20.0812 24.3804C19.5875 24.339 19.0912 24.4195 18.6358 24.6146C18.1805 24.8098 17.78 25.1137 17.4694 25.4998C16.7946 26.4082 16.1785 27.3589 15.6251 28.3461C15.0815 29.2309 14.5591 30.1158 13.9728 30.9899L17.8319 33.4418C18.1517 33.6444 18.4715 33.8896 18.802 34.0602C19.1325 34.2307 19.4843 34.1241 19.7934 33.7936C20.3264 33.2073 20.8595 32.5997 21.3818 32.0133L23.0449 30.1371C23.6239 29.5727 24.1652 28.9709 24.6653 28.3355C25.1663 27.6105 24.612 26.6724 24.3561 25.9262L23.9404 24.7429C23.6594 25.077 23.4063 25.4335 23.1835 25.8089C22.9276 26.2566 22.224 25.8729 22.4799 25.4251C22.7022 25.0301 22.959 24.6555 23.2474 24.3058L20.0812 24.3804Z" fill="#FFA100"/>
<path d="M50.7504 28.4528C49.0652 26.0759 46.5842 24.3815 43.7571 23.6769C43.0108 24.4871 42.2006 25.244 41.5503 26.0968L41.0386 26.7365C43.1494 26.8628 45.1238 27.8213 46.5288 29.4016C47.8187 30.9047 48.6609 33.0368 47.968 34.9877C47.5485 35.9101 46.9456 36.7375 46.196 37.4193C45.4464 38.1011 44.5657 38.6231 43.6078 38.9534C41.7255 39.6993 39.6438 39.7746 37.7125 39.1666C35.7624 38.5784 34.0871 37.3116 32.9899 35.5954C32.1016 36.2623 31.148 36.8373 30.1436 37.3117C32.3609 39.4438 34.8235 41.5759 37.8405 42.4607C39.0745 42.8605 40.3804 42.9885 41.6686 42.8357C42.9567 42.683 44.1965 42.2532 45.3028 41.5759C47.649 40.183 49.5953 38.2073 50.9529 35.8406C51.5848 34.7042 51.8994 33.4187 51.8638 32.1189C51.8282 30.8191 51.4436 29.5529 50.7504 28.4528Z" fill="#F02143"/>
<path d="M51.9985 28.8258C50.4953 25.7662 47.4677 24.0073 44.3016 23.0585C44.7158 22.5826 45.0736 22.0603 45.3676 21.502C45.4217 21.3925 45.4321 21.2664 45.3964 21.1495C45.3607 21.0326 45.2818 20.9337 45.1757 20.8731C41.0075 18.5064 36.6473 16.4596 32.3831 14.3062L30.6348 13.4C30.0176 11.3732 28.7468 9.6077 27.0209 8.37893C26.2046 7.83575 25.2521 7.53276 24.272 7.50449C23.292 7.47622 22.3236 7.72379 21.4774 8.21902C21.4306 8.2496 21.3907 8.28953 21.3601 8.33628L19.7504 7.43015C17.7568 6.3641 15.742 5.2021 13.7272 4.11473C11.7537 2.93958 9.7181 1.87197 7.62935 0.916569C7.15076 0.635117 6.5928 0.51914 6.0417 0.586583C5.49059 0.654026 4.97706 0.901123 4.58046 1.28968C3.9446 2.13123 3.48418 3.09191 3.22655 4.11473C2.53073 6.57939 2.01414 9.09118 1.6808 11.6304C1.17975 14.8286 0.412181 17.9201 0.668034 21.1609C0.914532 24.1066 2.06082 26.9053 3.95149 29.1776C3.45045 29.8279 2.88544 30.4889 2.44836 31.1498C2.11714 31.4781 1.8908 31.8974 1.79805 32.3544C1.72342 33.3672 3.3012 34.0388 3.98347 34.4865C6.57569 36.2501 9.2587 37.8763 12.0215 39.3584C13.386 40.094 14.7506 40.7976 16.1471 41.4905C17.092 42.0659 18.1504 42.4296 19.2493 42.5566C19.6537 42.5674 20.0503 42.4434 20.3764 42.204C20.7026 41.9647 20.9399 41.6237 21.051 41.2347C21.1701 40.7683 21.2204 40.2871 21.2002 39.8062C21.2437 39.2734 21.3148 38.7431 21.4134 38.2177C22.9706 38.4749 24.555 38.5251 26.1254 38.367C27.1449 38.2872 28.1509 38.0831 29.121 37.7593C31.3045 40.1773 33.9994 42.0782 37.0098 43.3241C38.3179 43.8269 39.7159 44.0533 41.1158 43.9891C42.5157 43.9249 43.8872 43.5714 45.1437 42.951C49.9836 40.3712 54.7595 34.4226 51.9985 28.8258ZM27.4153 9.56225C28.4171 10.4974 29.2029 11.6397 29.718 12.9097C27.1381 11.5451 24.5902 10.1273 22.0424 8.70941C22.9176 8.28483 23.9021 8.13895 24.8629 8.29145C25.8237 8.44396 26.7145 8.88751 27.4153 9.56225ZM19.0468 41.7997C18.0137 41.5608 17.0269 41.1539 16.1258 40.595C14.9745 40.0407 13.8231 39.4543 12.6931 38.8467C10.5184 37.674 8.38625 36.4268 6.29679 35.1049C5.23074 34.4439 4.21799 33.7616 3.20524 33.0687C2.19249 32.3758 2.69354 32.0027 3.20524 31.2777L4.35657 29.7213C7.00999 32.575 10.2963 34.7659 13.951 36.1176C16.1403 37.0154 18.4108 37.7008 20.7311 38.1644C20.0595 39.3478 21.0509 42.0236 19.0468 41.7997ZM26.9142 37.0131C23.4069 37.6421 19.7504 36.7466 16.435 35.6379C10.3052 33.6017 3.64233 29.668 2.21382 22.8453C1.49957 19.4659 2.21381 16.0971 2.76816 12.7497C3.13062 10.5643 3.4078 8.36827 3.90884 6.20418C4.13575 5.10619 4.47511 4.03449 4.92157 3.00602C5.36931 2.04657 5.77442 1.52421 6.92576 1.93997C7.86246 2.307 8.768 2.74908 9.63354 3.26188C10.6996 3.79491 11.6697 4.32793 12.6718 4.87161C14.5978 5.90924 16.5202 6.95397 18.4391 8.00581C22.3302 10.1379 26.2 12.334 30.1657 14.3488C30.2609 14.6983 30.3286 15.0548 30.3683 15.4149C30.6241 17.8561 28.7265 19.6791 26.9676 21.0863C25.9803 21.8081 25.0336 22.584 24.1319 23.4103C24.0944 23.3655 24.0461 23.331 23.9915 23.3102C23.9369 23.2895 23.8779 23.283 23.8201 23.2916C23.7624 23.3002 23.7077 23.3234 23.6615 23.3591C23.6153 23.3948 23.579 23.4418 23.5562 23.4956C22.2876 23.4956 21.019 23.4956 19.7504 23.4956C19.2566 23.4792 18.7647 23.5655 18.306 23.749C17.8472 23.9325 17.4316 24.2092 17.0852 24.5616C16.3532 25.4295 15.7103 26.3688 15.1664 27.3653C14.4414 28.5273 13.7165 29.7 12.9809 30.862C12.9302 30.966 12.9207 31.0853 12.9543 31.1961C12.9879 31.3068 13.0622 31.4007 13.1622 31.459C14.8465 32.525 16.5202 33.5911 18.2259 34.6571C18.4752 34.8611 18.785 34.9769 19.107 34.9865C19.429 34.9962 19.7452 34.8991 20.0062 34.7104C20.6828 34.1013 21.297 33.4264 21.8399 32.6956C22.4688 31.9707 23.0978 31.2564 23.7161 30.5635C24.4296 29.9062 25.0341 29.1398 25.507 28.2928C25.6648 27.639 25.5696 26.9498 25.2405 26.3632L24.441 24.1245C25.8482 22.6854 27.6925 21.6513 29.1103 20.1908C29.8606 19.4979 30.4275 18.6299 30.7605 17.6645C31.0935 16.699 31.1822 15.6661 31.0185 14.658L31.3703 14.8392C35.6985 16.9713 40.0693 19.1034 44.2909 21.4061C43.8288 22.1174 43.2849 22.7722 42.6705 23.357C41.9697 24.0856 41.3079 24.8507 40.6876 25.649C39.3657 27.3653 37.9905 29.0497 36.5514 30.6701C36.4415 30.6866 36.3403 30.7391 36.2635 30.8193C33.6197 33.5698 30.7733 36.3095 26.9142 37.0131ZM23.1831 25.8409C23.4059 25.4655 23.659 25.1089 23.94 24.7748L24.3557 25.9581C24.6116 26.7044 25.1659 27.6425 24.6649 28.3674C24.1648 29.0028 23.6235 29.6047 23.0445 30.169L21.3814 32.0453C20.8484 32.6316 20.3154 33.2393 19.793 33.8256C19.4839 34.1561 19.2707 34.316 18.8016 34.0921C18.3325 33.8682 18.1513 33.6763 17.8315 33.4738L13.9724 31.0219C14.5267 30.1477 15.0384 29.2629 15.6247 28.3781C16.1781 27.3909 16.7942 26.4402 17.469 25.5317C17.7796 25.1457 18.1801 24.8417 18.6354 24.6466C19.0908 24.4514 19.5871 24.371 20.0808 24.4124H23.279C22.9906 24.7621 22.7337 25.1367 22.5114 25.5317C22.2236 25.9048 22.9272 26.2886 23.1831 25.8409ZM37.2123 31.363C38.3956 30.0411 39.5257 28.6872 40.6237 27.3014C40.6727 27.3136 40.7239 27.3136 40.7729 27.3014C42.525 27.3677 44.1881 28.0907 45.4316 29.3269C46.6788 30.5315 47.7982 32.525 47.2972 34.284C46.9681 35.1369 46.4601 35.9094 45.8072 36.5493C45.1544 37.1893 44.372 37.6819 43.5127 37.9939C41.9602 38.6497 40.2404 38.7989 38.5982 38.4203C36.6207 37.8854 34.8931 36.6746 33.7157 34.9983C34.935 33.9761 36.0623 32.8489 37.0844 31.6295C37.1504 31.5539 37.1946 31.4618 37.2123 31.363ZM45.3143 41.5971C44.208 42.2744 42.9682 42.7042 41.68 42.8569C40.3919 43.0097 39.086 42.8818 37.8519 42.4819C34.835 41.5865 32.3724 39.497 30.155 37.3329C31.1595 36.8586 32.1131 36.2835 33.0014 35.6166C34.0986 37.3328 35.7738 38.5996 37.724 39.1878C39.6553 39.7958 41.737 39.7206 43.6193 38.9746C44.5772 38.6443 45.4579 38.1223 46.2075 37.4405C46.9571 36.7587 47.56 35.9314 47.9794 35.0089C48.715 33.0581 47.8302 30.9259 46.5403 29.4228C45.1353 27.8425 43.1609 26.884 41.0501 26.7577L41.5618 26.118C42.2121 25.2652 43.0223 24.5083 43.7685 23.6981C46.5957 24.4028 49.0767 26.0971 50.7618 28.474C51.4567 29.5731 51.8431 30.8389 51.8806 32.1387C51.9182 33.4385 51.6054 34.7244 50.9751 35.8618C49.6115 38.222 47.6617 40.1902 45.3143 41.5758V41.5971Z" fill="#3A0D1F"/>
<path d="M13.983 36.107C10.3283 34.7553 7.042 32.5644 4.38857 29.7107L3.23725 31.2671C2.6829 32.0027 2.24582 32.4078 3.23725 33.0581C4.22868 33.7084 5.28406 34.4333 6.3288 35.0943C8.40404 36.4162 10.5361 37.6635 12.7251 38.8361C13.8551 39.4438 15.0065 40.0301 16.1578 40.5844C17.0589 41.1432 18.0457 41.5502 19.0788 41.7891C21.083 41.9916 20.0915 39.3371 20.7951 38.1432C18.4643 37.685 16.183 37.0031 13.983 36.107Z" fill="#F02143"/>
</svg>
