<svg width="8" height="9" viewBox="0 0 8 9" fill="none" xmlns="http://www.w3.org/2000/svg">
<path d="M4.04602 1.39771C4.86084 1.43295 5.6314 1.77817 6.20013 2.36274C6.76885 2.94732 7.09276 3.72709 7.10559 4.54257C7.05962 5.29308 6.7301 5.99805 6.18378 6.51468C5.63746 7.03131 4.91519 7.32098 4.16329 7.32499C3.78273 7.37703 3.39542 7.34651 3.0277 7.23555C2.65998 7.12459 2.32046 6.93576 2.03221 6.6819C1.74397 6.42804 1.51375 6.11512 1.35721 5.76436C1.20068 5.41361 1.12149 5.03327 1.12503 4.64918C1.10203 4.2436 1.15946 3.83747 1.29402 3.45417C1.42859 3.07087 1.63763 2.71797 1.90911 2.41577C2.18059 2.11357 2.50915 1.86806 2.87589 1.69334C3.24262 1.51862 3.6403 1.41814 4.04602 1.39771Z" fill="#FFC4A8"/>
<path d="M4.12091 8.17779C3.64182 8.22337 3.15848 8.16957 2.70115 8.01974C2.24381 7.86992 1.82233 7.62729 1.46308 7.30707C1.10383 6.98684 0.814555 6.59591 0.613352 6.15874C0.41215 5.72156 0.303352 5.24756 0.293777 4.76641C0.293777 2.6343 2.05277 0.502197 3.89704 0.502197C4.94735 0.536656 5.94541 0.968588 6.68948 1.71068C7.43355 2.45277 7.86814 3.44968 7.9054 4.49989C7.85705 5.47803 7.43964 6.40149 6.73732 7.08402C6.03501 7.76655 5.10003 8.1574 4.12091 8.17779ZM4.04629 1.39768C3.64057 1.41811 3.24289 1.51859 2.87615 1.69331C2.50941 1.86803 2.18086 2.11355 1.90937 2.41574C1.63789 2.71794 1.42885 3.07084 1.29429 3.45414C1.15973 3.83744 1.10229 4.24358 1.1253 4.64916C1.12175 5.03324 1.20094 5.41358 1.35748 5.76433C1.51402 6.11509 1.74423 6.42801 2.03248 6.68187C2.32073 6.93573 2.66025 7.12456 3.02797 7.23552C3.39569 7.34649 3.783 7.377 4.16355 7.32496C4.91545 7.32096 5.63772 7.03128 6.18404 6.51465C6.73036 5.99802 7.05989 5.29305 7.10586 4.54255C7.09303 3.72706 6.76911 2.94729 6.20039 2.36271C5.63167 1.77814 4.86111 1.43292 4.04629 1.39768Z" fill="#3A0D1F"/>
</svg>
