<svg width="44" height="66" viewBox="0 0 44 66" fill="none" xmlns="http://www.w3.org/2000/svg">
<path d="M20.2773 21.0168C15.8242 22.5987 11.2136 23.696 6.52527 24.2896C11.22 23.7319 15.8346 22.6337 20.2773 21.0168Z" fill="#F02143"/>
<path d="M7.86914 16.8058C8.81793 17.5307 9.82003 18.2663 10.8434 18.9379C9.84135 18.245 8.84992 17.52 7.87981 16.8058H7.86914Z" fill="#F02143"/>
<path d="M14.2751 21.2406C13.273 20.6223 12.2922 19.972 11.3221 19.3004C12.3135 19.9827 13.3049 20.6436 14.2751 21.2406Z" fill="#F02143"/>
<path d="M10.417 19.215L10.6949 19.4073L10.417 19.215Z" fill="#F02143"/>
<path d="M40.2029 12.1365C38.8167 8.57601 36.1887 5.63754 32.8045 3.8639C27.5223 1.0821 21.3591 0.484928 15.6411 2.20086C10.365 4.05992 6.00602 7.8769 3.46675 12.8614C-0.680191 20.6222 1.65445 29.737 5.43894 37.1461C11.0144 48.0838 20.0332 57.2092 29.6597 64.6715C30.4912 63.1933 31.2907 61.6973 32.0583 60.1835C37.5698 49.331 41.9512 37.178 42.1964 24.8865C42.4076 20.545 41.7292 16.2062 40.2029 12.1365Z" fill="#F02143"/>
<path d="M17.3243 17.9038C16.77 14.8016 16.2583 11.71 15.544 8.62915C14.2639 9.3273 13.069 10.1716 11.9834 11.145C11.2624 11.8074 10.5891 12.5198 9.96857 13.2771C11.4312 13.8981 12.8307 14.6585 14.1475 15.5478C15.2567 16.263 16.3179 17.05 17.3243 17.9038Z" fill="#00559D"/>
<path d="M31.0345 18.4368C33.0706 17.9465 35.1068 17.3708 37.1536 16.9763C36.8725 16.413 36.5556 15.8682 36.2048 15.3453H36.1515C33.497 16.0489 30.9172 16.955 28.2414 17.4774C28.173 17.4907 28.1023 17.4846 28.0371 17.4598C27.972 17.435 27.9152 17.3924 27.873 17.3369C27.8309 17.2814 27.8051 17.2153 27.7986 17.1459C27.7921 17.0765 27.8052 17.0067 27.8363 16.9444C29.1476 14.8123 30.6294 12.8401 32.0259 10.7932C31.077 10.0445 30.0639 9.38092 28.9983 8.81038C28.3693 10.2602 27.815 11.742 27.2073 13.2025C26.9088 13.9381 26.6103 14.6737 26.2586 15.3346C26.0969 15.7409 25.8454 16.1053 25.523 16.4007C25.4861 16.4217 25.4448 16.4339 25.4024 16.4364C25.36 16.4389 25.3176 16.4317 25.2784 16.4152C25.2393 16.3987 25.2044 16.3734 25.1766 16.3413C25.1488 16.3092 25.1287 16.2712 25.1179 16.2301C24.6062 13.0319 23.4762 9.9937 22.9858 6.8062C22.4924 6.77423 21.9974 6.77423 21.504 6.8062C22.4847 11.1664 23.7853 15.4625 24.7021 19.8334L31.0345 18.4368Z" fill="white"/>
<path d="M12.975 29.5664C11.3333 29.9395 9.70222 30.3766 8.04984 30.7178C9.15937 32.8521 10.7463 34.7016 12.6872 36.1226C12.9643 36.3252 13.2522 36.4958 13.54 36.677C14.6061 34.0012 16.1092 31.4747 17.3565 28.8522C15.8534 29.0547 14.4142 29.2359 12.975 29.5664Z" fill="#00559D"/>
<path d="M21.0882 37.3273C20.9709 36.5171 20.843 35.7069 20.7257 34.8967C20.5445 33.5855 20.3526 32.2849 20.1607 30.9736C19.3399 33.4789 18.0286 35.8135 17.3144 38.3401C18.6146 38.7194 19.9581 38.9308 21.3121 38.969C21.3121 38.8411 21.3121 38.7132 21.3121 38.5959C21.1841 38.1695 21.1841 37.7537 21.0882 37.3273Z" fill="#00559D"/>
<path d="M35.7038 14.6097C34.7518 13.3307 33.6454 12.1741 32.4097 11.1664C31.2477 12.9893 30.0324 14.7696 28.9131 16.6246C31.1944 16.0169 33.4225 15.2387 35.7038 14.6097Z" fill="#00559D"/>
<path d="M25.8102 14.9615C26.1407 14.2259 26.4605 13.501 26.759 12.7654C27.3347 11.3796 27.8997 9.9937 28.5286 8.63981L28.1235 8.4266C26.607 7.6958 24.9843 7.21005 23.3156 6.98743C23.8167 9.91907 24.8188 12.7334 25.4477 15.6331C25.629 15.3986 25.7249 15.1534 25.8102 14.9615Z" fill="#00559D"/>
<path d="M38.5384 24.1295C38.5384 24.0122 38.5384 23.895 38.5384 23.7777C37.8403 23.9746 37.1272 24.1136 36.4063 24.1935C35.6067 24.3107 34.8178 24.4067 34.0183 24.5026C32.5848 24.6416 31.1609 24.8659 29.7541 25.1742C31.8222 27.0612 34.0183 28.8095 36.1504 30.6538C37.3608 28.6906 38.2026 26.523 38.6343 24.2574C38.6085 24.2464 38.5861 24.2288 38.5692 24.2063C38.5524 24.1839 38.5417 24.1574 38.5384 24.1295Z" fill="#00559D"/>
<path d="M22.0165 32.3701C21.8459 31.3041 21.654 30.1527 21.4514 29.0547C21.3448 28.5004 21.2382 27.9887 21.121 27.413C21.0797 27.1101 21.0155 26.8107 20.9291 26.5175C20.7052 25.9525 20.4494 25.9418 19.9483 26.0271C17.6883 26.4002 15.5029 27.0932 13.2642 27.5196C11.2172 27.7925 9.19332 28.2165 7.20898 28.7882C7.39566 29.2966 7.60918 29.7948 7.84862 30.2807C9.53299 29.9075 11.1854 29.4172 12.8697 29.0227C14.5541 28.6283 16.1851 28.4364 17.8375 28.1805C17.8967 28.1678 17.9582 28.1722 18.015 28.1931C18.0718 28.214 18.1215 28.2505 18.1583 28.2985C18.1952 28.3465 18.2176 28.404 18.2231 28.4642C18.2286 28.5245 18.2169 28.5851 18.1893 28.6389C16.942 31.4533 15.3856 34.1185 14.2023 36.9648C15.1037 37.4654 16.0539 37.8726 17.038 38.1801C17.8162 35.2911 19.3407 32.658 20.0976 29.7583C20.0976 29.5451 20.524 29.5238 20.556 29.7583C20.8012 31.4427 21.0463 33.127 21.3022 34.8114C21.4195 35.6536 21.5474 36.4957 21.6647 37.3379C21.7286 37.7643 21.7926 38.1801 21.8459 38.6065C21.8459 38.7025 21.8459 38.8091 21.8992 38.9157C22.155 38.9157 22.4002 38.9157 22.6454 38.9157H22.88C22.7307 37.9349 22.6881 36.9115 22.5708 35.9307C22.3576 34.7581 22.251 33.5641 22.0165 32.3701Z" fill="white"/>
<path d="M29.1147 24.7586C30.6333 24.3986 32.176 24.1492 33.7307 24.0124C34.5942 23.9164 35.447 23.8205 36.2999 23.7032C37.1527 23.5859 37.8243 23.394 38.5812 23.2874C38.6081 22.8294 38.6081 22.3702 38.5812 21.9122C37.5152 21.9869 36.4491 22.2107 35.3831 22.36L32.2702 22.7864C29.951 23.0385 27.6644 23.5316 25.4474 24.2576C25.8362 28.8463 26.5811 33.3978 27.6755 37.871C28.1114 37.701 28.5384 37.5088 28.9548 37.2954C28.2085 33.948 27.3663 30.6112 26.8226 27.2212C26.8226 26.9227 27.1425 26.6455 27.3663 26.912C29.4238 29.2573 31.492 31.5813 33.6347 33.8414C34.4707 32.9899 35.2206 32.0579 35.8734 31.059C33.5921 29.0974 31.2255 27.2532 29.0187 25.2063C28.9876 25.1737 28.9649 25.1339 28.9527 25.0904C28.9404 25.047 28.939 25.0012 28.9484 24.9571C28.9579 24.913 28.978 24.8719 29.0069 24.8373C29.0359 24.8027 29.0729 24.7756 29.1147 24.7586Z" fill="white"/>
<path d="M29.479 37.0288C30.8283 36.2788 32.0752 35.358 33.1889 34.289C31.2913 32.2955 29.4577 30.2593 27.6348 28.2125C28.1678 31.1655 28.8607 34.0865 29.479 37.0288Z" fill="#00559D"/>
<path d="M13.4228 21.3046C12.5273 20.7076 11.5999 20.068 10.6937 19.407L10.4166 19.2152C9.41446 18.4902 8.4337 17.744 7.50623 17.0084C7.31435 17.4242 7.13312 17.8506 6.97321 18.277C6.47316 19.6785 6.19617 21.1498 6.15234 22.6372C7.27705 22.2735 8.43349 22.0165 9.60636 21.8696C10.875 21.6564 12.1436 21.4645 13.4228 21.3046Z" fill="#00559D"/>
<path d="M8.7863 23.5967C9.63203 23.4616 10.4742 23.3017 11.3129 23.117C12.3789 22.8931 13.445 22.6372 14.511 22.36L15.5771 22.0616C16.1314 21.9016 16.6431 21.7417 17.2081 21.5605C18.1249 21.262 19.0204 20.9422 19.9159 20.5904C18.6747 16.4538 17.7025 12.2412 17.0056 7.979C16.6751 8.12825 16.3339 8.26684 16.0141 8.42674C16.7497 11.7848 17.368 15.1642 18.0396 18.5223C18.0505 18.5831 18.0422 18.6459 18.0159 18.7019C17.9896 18.7578 17.9465 18.8042 17.8927 18.8346C17.8388 18.8651 17.7769 18.878 17.7154 18.8717C17.6538 18.8654 17.5958 18.8402 17.5492 18.7994C16.3426 17.7741 15.0636 16.8371 13.7221 15.9957C12.4109 15.1535 11.0357 14.4819 9.66047 13.757C9.66047 13.757 9.60716 13.693 9.57518 13.6611C8.83618 14.5961 8.1933 15.6033 7.65628 16.6673C7.72109 16.7075 7.78179 16.7539 7.83751 16.8059C8.80762 17.5522 9.79905 18.2771 10.8011 18.938L11.2809 19.2685C12.251 19.9401 13.2317 20.5904 14.2338 21.2087C14.4151 21.326 14.4044 21.6671 14.1592 21.6991L9.895 22.3814L7.82686 22.7225C7.2451 22.8048 6.67577 22.9588 6.13184 23.1809C6.13184 23.4368 6.13184 23.6926 6.13184 23.9485L6.88872 23.8419C7.54968 23.7992 8.16799 23.6926 8.7863 23.5967Z" fill="white"/>
<path d="M25.1063 23.8632C27.4443 23.0914 29.8556 22.5626 32.3021 22.2854L35.3723 21.7737C36.4384 21.5818 37.4298 21.3473 38.4852 21.2514C38.3083 19.9703 37.9493 18.7211 37.4192 17.5415C35.3617 18.1172 33.2509 18.5223 31.1721 18.9913L24.6372 20.5158C24.568 20.5323 24.4951 20.5216 24.4336 20.4859C24.3721 20.4502 24.3267 20.3922 24.3067 20.3239C23.3366 15.8252 22.036 11.4117 21.0553 6.91296C20.6222 6.9435 20.1914 7.00047 19.7653 7.08354C19.002 7.2316 18.253 7.44561 17.5266 7.72317C18.1663 12.126 19.4562 16.3688 20.4796 20.6864C20.493 20.7568 20.4798 20.8297 20.4423 20.8908C20.4048 20.9519 20.3459 20.9969 20.277 21.0168C15.8416 22.6358 11.2343 23.7375 6.54629 24.3003H6.21582C6.30284 25.4871 6.52458 26.6602 6.87677 27.7969C6.94073 28.0101 7.01535 28.2127 7.08997 28.4259C7.08997 28.4259 7.08998 28.4259 7.14328 28.4259C9.35001 27.6264 11.7166 27.5198 13.9873 26.9548C15.2346 26.6349 16.4712 26.2938 17.7185 26.0273C18.3262 25.8994 18.9445 25.7714 19.5521 25.6648C19.9579 25.5341 20.3881 25.4977 20.8101 25.5582C21.5883 25.8141 21.5883 27.3812 21.7269 28.0421C21.9934 29.3427 22.2279 30.6433 22.4305 31.9545C22.6117 33.0845 22.7716 34.2146 22.8995 35.3552C23.0864 36.5306 23.2038 37.716 23.2513 38.9052C24.6509 38.7919 26.0283 38.487 27.345 37.9991C26.0925 33.4694 25.289 28.8275 24.9464 24.1404C24.9144 23.9805 25.0103 23.9058 25.1063 23.8632Z" fill="#F02143"/>
<path d="M42.9632 27.9354C43.6028 19.9187 42.6967 9.88712 35.746 4.62082C31.1166 1.33869 25.4543 -0.153599 19.8086 0.420575C16.8244 0.742455 13.9409 1.68677 11.3444 3.19252C8.74786 4.69827 6.49611 6.73196 4.73457 9.1622C2.20135 12.419 0.681396 16.3486 0.363753 20.4624C0.192399 24.9855 1.02996 29.4901 2.81568 33.6494C7.3997 45.0349 16.12 54.5547 25.416 62.3156C26.7379 63.4243 28.0811 64.4903 29.4457 65.5137C29.4833 65.5827 29.5387 65.6403 29.6063 65.6804C29.6738 65.7205 29.7509 65.7416 29.8294 65.7416C29.908 65.7416 29.9851 65.7205 30.0526 65.6804C30.1202 65.6403 30.1756 65.5827 30.2132 65.5137C36.6842 54.043 41.9078 41.2077 42.9632 27.9354ZM29.7122 64.6822C20.1177 57.2198 11.0669 48.0944 5.49146 37.1567C1.70698 29.6944 -0.627685 20.6329 3.51926 12.8721C6.05852 7.88759 10.4175 4.07061 15.6936 2.21154C21.4116 0.495611 27.5748 1.09278 32.857 3.87458C36.2412 5.64822 38.8692 8.58669 40.2554 12.1472C41.7875 16.2302 42.466 20.5841 42.2489 24.9398C42.0038 37.2314 37.6223 49.3844 32.1108 60.2368C31.3077 61.7221 30.5082 63.2039 29.7122 64.6822Z" fill="#3A0D1F"/>
<path d="M39.1361 24.1401C39.2213 23.293 39.2213 22.4394 39.1361 21.5923C39.1577 21.5192 39.1577 21.4415 39.1361 21.3684C38.5711 16.0381 34.7759 11.2622 30.2558 8.51181C27.689 6.8463 24.7018 5.94423 21.6421 5.91064C18.4728 6.07267 15.4261 7.18731 12.9005 9.1088C10.3342 10.9634 8.24441 13.4003 6.80269 16.2194C5.31019 19.2278 4.82792 22.6374 5.42749 25.9418C6.05241 29.5677 7.81904 32.8993 10.4699 35.451C13.1249 37.908 16.5239 39.4087 20.1283 39.7152C24.2785 40.1389 28.4374 38.9984 31.791 36.517C35.5221 33.6813 38.603 28.9587 39.0401 24.2254C39.0781 24.2046 39.1109 24.1754 39.1361 24.1401ZM35.7034 14.6096C33.422 15.2386 31.194 16.0168 28.9126 16.6245C30.032 14.7695 31.2473 12.9892 32.4093 11.1663C33.6449 12.174 34.7513 13.3306 35.7034 14.6096ZM28.1237 8.42652L28.5288 8.63974C27.8999 9.99362 27.3349 11.3795 26.7592 12.7654C26.4607 13.5009 26.1409 14.2259 25.8104 14.9614C25.7251 15.1533 25.6292 15.3985 25.5226 15.633C24.851 12.7334 23.8489 9.919 23.3905 6.98735C25.0336 7.21761 26.6306 7.70319 28.1237 8.42652ZM23.0067 6.93405C23.4758 10.1322 24.6058 13.1811 25.1388 16.358C25.1496 16.399 25.1697 16.4371 25.1975 16.4692C25.2253 16.5013 25.2602 16.5266 25.2993 16.543C25.3385 16.5595 25.3809 16.5668 25.4233 16.5643C25.4657 16.5617 25.507 16.5495 25.5439 16.5285C25.8663 16.2332 26.1178 15.8687 26.2795 15.4625C26.6313 14.7589 26.9298 14.0233 27.2283 13.3304C27.8359 11.8699 28.3903 10.3881 29.0192 8.93823C30.0848 9.50878 31.098 10.1723 32.0468 10.9211C30.6503 12.9679 29.1685 14.9614 27.8572 17.0722C27.8261 17.1345 27.813 17.2044 27.8195 17.2737C27.826 17.3431 27.8518 17.4093 27.8939 17.4648C27.9361 17.5203 27.993 17.5628 28.0581 17.5876C28.1232 17.6125 28.1939 17.6186 28.2623 17.6052C30.9381 17.0402 33.518 16.1341 36.1724 15.4731H36.2257C36.5765 15.996 36.8934 16.5408 37.1745 17.1042C35.1277 17.5093 33.0915 18.0743 31.0554 18.5647L24.787 20.0572C23.8276 15.6863 22.527 11.3902 21.5888 7.02999C22.059 6.96871 22.5326 6.93667 23.0067 6.93405ZM11.9837 11.145C13.0716 10.1864 14.2663 9.35651 15.5443 8.67172C16.2053 11.7526 16.7703 14.8442 17.3246 17.9464C16.3127 17.0772 15.2443 16.2759 14.1265 15.5478C12.8096 14.6584 11.4102 13.898 9.94756 13.2771C10.5749 12.519 11.2553 11.8065 11.9837 11.145ZM6.97326 18.2662C7.13317 17.8398 7.3144 17.4133 7.50629 16.9976C8.43375 17.7332 9.41452 18.4794 10.4166 19.2043L10.6938 19.3962C11.5999 20.0572 12.5274 20.6968 13.4229 21.2938C12.1436 21.4643 10.875 21.6456 9.60641 21.8588C8.43354 22.0057 7.2771 22.2627 6.15239 22.6263C6.19622 21.139 6.47321 19.6677 6.97326 18.2662ZM6.14174 23.202C6.68567 22.9799 7.255 22.8259 7.83676 22.7436L9.9049 22.4025L14.1691 21.7202C14.4143 21.7202 14.425 21.3471 14.2437 21.2298C13.2736 20.6328 12.2822 19.9719 11.2908 19.2896L10.8111 18.9591C9.745 18.2555 8.78555 17.52 7.83676 16.827C7.78104 16.775 7.72034 16.7286 7.65553 16.6884C8.19255 15.6244 8.83543 14.6172 9.57443 13.6822C9.57443 13.6822 9.57443 13.7568 9.65972 13.7781C11.0349 14.503 12.4101 15.1746 13.7214 16.0168C15.0532 16.8731 16.3215 17.8244 17.5165 18.8632C17.5631 18.9039 17.6211 18.9292 17.6826 18.9355C17.7442 18.9418 17.8061 18.9288 17.8599 18.8984C17.9138 18.868 17.9568 18.8216 17.9832 18.7656C18.0095 18.7096 18.0178 18.6469 18.0069 18.586C17.3353 15.2279 16.717 11.8486 15.9814 8.49049C16.3012 8.33058 16.6424 8.192 16.9728 8.04275C17.6698 12.3049 18.642 16.5175 19.8832 20.6541C18.9877 21.0059 18.0922 21.3258 17.1754 21.6243C16.6424 21.8055 16.1093 21.9654 15.5443 22.1253L14.4783 22.4238C13.4122 22.701 12.3462 22.9568 11.2801 23.1807C10.4344 23.3655 9.59219 23.5254 8.75357 23.6604C8.13525 23.7564 7.51695 23.863 6.89864 23.9376L6.14174 24.0442C6.16306 23.7244 6.14174 23.4685 6.14174 23.2127V23.202ZM12.6553 36.1226C10.7144 34.7016 9.12752 32.852 8.01799 30.7177C9.67037 30.3765 11.3014 29.9395 12.9432 29.5663C14.3823 29.2359 15.8535 29.0546 17.3246 28.8521C16.0774 31.4746 14.6275 34.0011 13.5082 36.6769C13.2523 36.4957 12.9645 36.3251 12.6553 36.1226ZM17.282 38.34C18.0282 35.8134 19.3075 33.4788 20.1283 30.9735C20.3202 32.2848 20.5121 33.5854 20.6934 34.8966C20.8106 35.7068 20.9386 36.517 21.0558 37.3272C21.1091 37.7536 21.1731 38.1694 21.237 38.5958C21.237 38.7131 21.237 38.841 21.237 38.9689C19.9082 38.9244 18.5902 38.7131 17.314 38.34H17.282ZM22.527 38.9689C22.2818 38.9689 22.0366 38.9689 21.7807 38.9689C21.7807 38.8623 21.7807 38.7557 21.7274 38.6598C21.7274 38.2334 21.6102 37.8176 21.5462 37.3912C21.4289 36.549 21.301 35.7068 21.1837 34.8646C20.9279 33.1803 20.6827 31.4959 20.4375 29.8115C20.4375 29.5663 20.0324 29.5877 19.9791 29.8115C19.2222 32.7112 17.6978 35.3444 16.9195 38.2334C15.9354 37.9258 14.9852 37.5186 14.0838 37.0181C15.2671 34.1717 16.8236 31.5066 18.0709 28.6922C18.0984 28.6383 18.1102 28.5777 18.1047 28.5175C18.0992 28.4572 18.0767 28.3998 18.0399 28.3518C18.003 28.3038 17.9533 28.2672 17.8966 28.2463C17.8398 28.2254 17.7782 28.2211 17.7191 28.2338C16.0667 28.4896 14.3823 28.6922 12.7513 29.076C11.1202 29.4597 9.41453 29.9608 7.73016 30.3339C7.49072 29.8481 7.2772 29.3499 7.09053 28.8414C9.07486 28.2698 11.0988 27.8457 13.1457 27.5728C15.3844 27.1251 17.5698 26.4535 19.8299 26.0804C20.3309 25.9951 20.5867 26.0057 20.8106 26.5707C20.8971 26.864 20.9612 27.1633 21.0025 27.4662C21.1198 28.0099 21.2264 28.5323 21.333 29.1079C21.5355 30.174 21.7274 31.3147 21.898 32.4234C22.0686 33.5321 22.2391 34.8113 22.3671 36.016C22.4843 36.9967 22.527 38.0201 22.6762 39.0009L22.527 38.9689ZM23.1986 38.905C23.1511 37.7158 23.0336 36.5304 22.8468 35.355C22.7189 34.2143 22.5589 33.0843 22.3777 31.9543C22.1752 30.6431 21.9406 29.3425 21.6741 28.0419C21.5355 27.3809 21.5355 25.8138 20.7573 25.558C20.3354 25.4974 19.9051 25.5339 19.4994 25.6646C18.8917 25.7712 18.2734 25.8991 17.6658 26.0271C16.4185 26.2936 15.1819 26.6347 13.9346 26.9545C11.6639 27.5195 9.29725 27.6261 7.09053 28.4257C7.09053 28.4257 7.09052 28.4257 7.03722 28.4257C6.9626 28.2125 6.88798 28.0099 6.82401 27.7967C6.47182 26.66 6.25009 25.4869 6.16307 24.3001H6.49354C11.1818 23.7064 15.7925 22.6091 20.2456 21.0273C20.3145 21.0073 20.3734 20.9624 20.4109 20.9012C20.4483 20.8401 20.4616 20.7672 20.4482 20.6968C19.3821 16.4326 18.1348 12.1684 17.4952 7.73359C18.2215 7.45604 18.9706 7.24202 19.7339 7.09396C20.16 7.01089 20.5908 6.95393 21.0238 6.92339C22.0046 11.4221 23.3052 15.8356 24.2753 20.3343C24.2952 20.4026 24.3407 20.4606 24.4022 20.4963C24.4637 20.5321 24.5366 20.5428 24.6058 20.5262L31.1407 19.0018C33.2195 18.5327 35.3303 18.1276 37.3877 17.5519C37.9179 18.7315 38.2769 19.9807 38.4538 21.2618C37.3877 21.3577 36.3857 21.5923 35.3409 21.7842L32.2707 22.2959C29.8242 22.5731 27.4128 23.1018 25.0748 23.8736C24.9789 23.8736 24.8829 23.9909 24.8936 24.1082C25.2363 28.7953 26.0397 33.4372 27.2922 37.9668C25.9873 38.4629 24.6208 38.7785 23.2306 38.905H23.1986ZM29.4456 37.0287C28.8273 34.0864 28.1344 31.1654 27.6014 28.2125C29.4243 30.2593 31.2579 32.2954 33.1555 34.289C32.0517 35.3557 30.8157 36.2765 29.4776 37.0287H29.4456ZM33.5713 33.8306C31.4392 31.5705 29.3071 29.2465 27.3029 26.9012C27.079 26.6347 26.7059 26.9012 26.7592 27.2104C27.3029 30.6004 28.1451 33.9372 28.8913 37.2846C28.4749 37.498 28.048 37.6902 27.612 37.8602C26.5398 33.3888 25.8162 28.8409 25.448 24.2574C27.6615 23.5322 29.9445 23.0391 32.26 22.7863L35.3729 22.3598C36.439 22.2106 37.505 21.9867 38.5711 21.9121C38.598 22.3701 38.598 22.8293 38.5711 23.2873C37.8142 23.3939 37.0573 23.5858 36.2897 23.7031C35.5221 23.8203 34.584 23.9163 33.7205 24.0122C32.1658 24.149 30.6231 24.3984 29.1045 24.7584C29.0602 24.7719 29.02 24.7963 28.9875 24.8293C28.955 24.8623 28.9314 24.903 28.9186 24.9475C28.9059 24.992 28.9046 25.039 28.9147 25.0842C28.9248 25.1294 28.9461 25.1713 28.9766 25.2062C31.1833 27.253 33.55 29.0973 35.8313 31.0588C35.1819 32.0572 34.4356 32.9892 33.6032 33.8412L33.5713 33.8306ZM36.0658 30.6324C33.9337 28.7881 31.8016 27.0398 29.6695 25.1529C31.0763 24.8445 32.5003 24.6202 33.9337 24.4813C34.7333 24.3853 35.5221 24.2894 36.3217 24.1721C37.0426 24.0923 37.7557 23.9532 38.4538 23.7564C38.4538 23.8736 38.4538 23.9909 38.4538 24.1082C38.445 24.1283 38.4405 24.1501 38.4405 24.1721C38.4405 24.1941 38.445 24.2159 38.4538 24.2361C38.0675 26.4998 37.2728 28.6743 36.1085 30.6537L36.0658 30.6324Z" fill="#3A0D1F"/>
</svg>
