<svg width="62" height="62" viewBox="0 0 62 62" fill="none" xmlns="http://www.w3.org/2000/svg">
<circle cx="31" cy="31" r="29.5" transform="rotate(179.149 31 31)" stroke="#3A10E5"/>
<g clip-path="url(#clip0_12666_4671)">
<path d="M23.4777 32.3152C23.548 32.3255 23.619 32.3297 23.69 32.3277L35.7826 32.1481L35.5208 32.2746C35.2649 32.4004 35.0328 32.5699 34.8351 32.7755L31.4945 36.2169C31.0542 36.6499 30.9893 37.3369 31.3408 37.8446C31.749 38.3851 32.5182 38.4924 33.0588 38.0841C33.1025 38.0511 33.1439 38.0152 33.1828 37.9767L39.2238 31.7535C39.6959 31.2676 39.6848 30.4911 39.199 30.019C39.1987 30.0187 39.1983 30.0184 39.198 30.0181L32.9748 23.977C32.4881 23.5059 31.7116 23.5185 31.2404 24.0052C31.2033 24.0435 31.1688 24.0842 31.137 24.127C30.8008 24.645 30.886 25.3297 31.3389 25.7494L34.7743 29.0963C34.957 29.2737 35.1661 29.4217 35.3942 29.5348L35.7646 29.6949L23.7211 29.8739C23.0942 29.8599 22.5511 30.3057 22.4425 30.9233C22.344 31.5935 22.8075 32.2166 23.4777 32.3152Z" fill="#3A10E5"/>
</g>
<defs>
<clipPath id="clip0_12666_4671">
<rect width="17.1429" height="17.1429" fill="white" transform="translate(39.6978 39.4431) rotate(179.149)"/>
</clipPath>
</defs>
</svg>
