<svg width="20" height="20" viewBox="0 0 20 20" fill="none" xmlns="http://www.w3.org/2000/svg">
<path d="M18.6683 12.9359L18.2205 12.2109C17.7515 11.486 17.2291 10.6545 16.7494 9.80168C16.5703 9.43355 16.5324 9.01255 16.6428 8.61834C16.8453 8.04267 17.0692 7.47768 17.2931 6.90201C17.5169 6.32635 17.8154 5.59075 18.0286 4.91914C18.1347 4.67692 18.184 4.41371 18.1729 4.14953C18.1618 3.88535 18.0906 3.62718 17.9647 3.39469C17.8335 3.24354 17.6688 3.12526 17.4836 3.04935C17.2985 2.97344 17.0981 2.94201 16.8986 2.95761C16.7127 2.96052 16.5273 2.97836 16.3443 3.01093C15.033 3.2348 13.7218 3.58658 12.5704 3.89574C12.4317 3.93559 12.2884 3.95709 12.144 3.9597C11.8317 3.95467 11.5336 3.82855 11.3125 3.60792C10.3531 2.7764 9.35097 1.92354 8.29558 1.16665C7.95681 0.897284 7.54408 0.737407 7.11226 0.708252C6.48329 0.708252 6.04621 1.21995 5.92894 2.16874C5.83299 2.88299 5.7797 3.60791 5.72639 4.30084C5.67309 4.99378 5.65176 5.49481 5.57714 6.0918C5.52111 6.48189 5.31919 6.8362 5.01213 7.08322C4.40448 7.50965 3.76486 7.9041 3.12522 8.29854L2.05917 9.00214C1.78133 9.18748 1.52402 9.40191 1.29161 9.64178C1.15072 9.77894 1.04219 9.94581 0.973958 10.1302C0.905722 10.3147 0.879488 10.512 0.897171 10.7078C0.923428 10.8853 0.988666 11.0548 1.0882 11.2041C1.18773 11.3534 1.31909 11.4788 1.47284 11.5713C1.98695 11.8935 2.52933 12.1683 3.09324 12.3922L4.22326 12.8293C4.73496 13.0318 5.28931 13.2237 5.75838 13.4476C6.04764 13.6232 6.26063 13.9009 6.35536 14.2258C6.57923 15.0147 6.77112 15.8036 6.96301 16.6031L7.20821 17.6052L7.31481 17.9357C7.67727 18.8844 8.11435 19.3428 8.65804 19.3428C8.92227 19.3084 9.17704 19.2219 9.40761 19.0883C9.63817 18.9547 9.83995 18.7767 10.0013 18.5646C10.4703 18.0742 10.8967 17.5625 11.3338 17.0401C11.7709 16.5178 12.1014 16.1234 12.5065 15.6863C12.7901 15.4027 13.1716 15.2386 13.5725 15.2279C14.1908 15.2279 14.7985 15.2812 15.3955 15.3238C15.9925 15.3665 16.76 15.4091 17.4423 15.4091C18.1246 15.4091 18.7322 15.2172 18.9668 14.8654C19.2013 14.5136 19.0627 13.7887 18.6683 12.9359Z" fill="#FFA100"/>
</svg>
