<svg width="50" height="49" viewBox="0 0 50 49" fill="none" xmlns="http://www.w3.org/2000/svg">
<path d="M44.9879 28.2318C46.2672 30.3 46.1606 31.963 44.1457 33.3276C41.3314 35.2465 38.3571 36.9308 35.4574 38.6578C31.1932 41.2448 26.9681 43.8317 22.782 46.4187L22.4302 46.6426C21.4018 47.473 20.1047 47.8977 18.7843 47.8365C17.665 47.6766 16.7269 46.7705 15.6821 45.0008C11.0981 37.4034 6.47856 29.8345 1.82347 22.2939C0.490903 20.1085 0.6188 18.4668 2.79355 16.9637C5.51198 15.1407 8.37967 13.5203 11.1621 11.804L11.3753 11.676L23.9441 3.98978L24.5197 3.61669C27.6219 1.72978 29.2103 2.18816 31.0546 5.33302C33.272 9.08552 35.5853 12.7954 37.8454 16.5266C40.244 20.471 42.5893 24.3621 44.9879 28.2318Z" fill="#FFA100"/>
<path d="M34.2 3.73401C38.521 10.7913 42.8207 17.8628 47.0992 24.9484C48.6236 27.4537 48.581 29.1381 47.1738 30.7371C46.1611 28.8076 45.2656 26.846 44.1462 25.0124C39.882 17.9622 35.5716 10.9512 31.215 3.97921C30.4031 2.98064 29.4683 2.08872 28.4326 1.32472C29.09 0.833588 29.9139 0.619892 30.7271 0.729523C31.5404 0.839154 32.2782 1.26339 32.7821 1.91107C33.3135 2.47059 33.7885 3.08119 34.2 3.73401Z" fill="#FFA100"/>
<path d="M13.9568 44.4039L2.02767 24.8098C1.64389 24.0422 1.30277 23.2534 0.876347 22.5178C-0.562824 19.9806 -0.189702 18.115 2.11297 16.3454C2.73128 15.887 3.42422 15.5352 4.08518 15.1301L17.2403 7.10269L23.7752 3.15828C25.1254 2.19201 26.5514 1.33639 28.0394 0.599759C31.1842 -0.668844 32.9752 0.0667431 34.7662 3.00905C39.2329 10.3115 43.6677 17.6246 48.1558 24.9164C48.9322 26.001 49.2811 27.334 49.1355 28.6599C48.9899 29.9858 48.3602 31.2113 47.3669 32.1016C46.3302 33.0484 45.2057 33.8944 44.0088 34.6282C36.7597 39.0843 29.4892 43.4764 22.2294 47.9112C19.415 49.6275 17.1443 49.1265 15.3853 46.3654C14.9589 45.6831 14.4365 45.0541 13.9568 44.4039ZM37.8897 16.5799C35.619 12.8487 33.3057 9.11753 31.0883 5.37569C29.2333 2.24149 27.6556 1.78308 24.5427 3.67C24.3508 3.78726 24.1696 3.93653 23.9777 4.05379L11.4196 11.7293C8.54128 13.4883 5.60961 15.1514 2.82721 17.0596C0.695104 18.5201 0.513903 20.1618 1.85713 22.3899C6.51933 29.9375 11.1389 37.503 15.7158 45.0861C17.6773 48.3483 19.2231 48.7853 22.4746 46.7385L22.8051 46.5146L35.4804 38.7538C38.3907 36.9735 41.3543 35.2891 44.1687 33.4235C46.1942 32.0483 46.3008 30.3959 45.0216 28.3278C42.6016 24.3621 40.2563 20.4603 37.8897 16.5799ZM47.175 30.7371C48.5822 29.138 48.6248 27.4536 47.1004 24.9484C42.8362 17.8414 38.5364 10.7699 34.2012 3.73396C33.792 3.07995 33.313 2.47231 32.7727 1.92169C32.2741 1.27378 31.5407 0.84797 30.7309 0.736269C29.9211 0.624567 29.0998 0.835908 28.4444 1.32467C29.4716 2.09501 30.4022 2.98627 31.2162 3.97916C35.6012 10.9511 39.9116 17.9622 44.1474 25.0124C45.2668 26.846 46.1729 28.8182 47.175 30.7371Z" fill="#3A0D1F"/>
</svg>
